<svg height="164" viewBox="0 0 300 164" width="300" xmlns="http://www.w3.org/2000/svg" xmlns:xlink="http://www.w3.org/1999/xlink"><radialGradient id="a" cx="102.350314" cy="144.098154" gradientUnits="userSpaceOnUse" r="13.478641"><stop offset=".00001" stop-color="#ff7020"/><stop offset=".27586" stop-color="#df0000"/><stop offset=".34561" stop-color="#b10000"/><stop offset=".52103" stop-color="#5b0000"/><stop offset=".70899" stop-color="#1e0000"/><stop offset="1"/></radialGradient><linearGradient id="b" gradientUnits="userSpaceOnUse" x1="101.777518" x2="101.777518" y1="143.178045" y2="130.951777"><stop offset=".00001" stop-color="#e6e6e6"/><stop offset=".5918" stop-color="#e7e7e7"/><stop offset=".8047" stop-color="#eee"/><stop offset=".9562" stop-color="#fafafa"/><stop offset="1" stop-color="#fff"/></linearGradient><linearGradient id="c" gradientUnits="userSpaceOnUse" x1="102.212815" x2="102.212815" y1="158.593885" y2="129.978734"><stop offset=".00001" stop-color="#efefef"/><stop offset=".457" stop-color="#dadadb"/><stop offset="1" stop-color="#c5c5c7"/></linearGradient><linearGradient id="d" gradientUnits="userSpaceOnUse" x1="102.313435" x2="102.313435" y1="159.147506" y2="129.215539"><stop offset=".00001" stop-color="#59595b"/><stop offset=".2701" stop-color="#5c5c5e"/><stop offset=".4955" stop-color="#676769"/><stop offset=".7047" stop-color="#78787a"/><stop offset=".9031" stop-color="#909092"/><stop offset="1" stop-color="#9f9fa1"/></linearGradient><linearGradient id="e"><stop offset=".00001" stop-color="#fff"/><stop offset="1" stop-color="#fff" stop-opacity="0"/></linearGradient><linearGradient id="f" gradientUnits="userSpaceOnUse" x1="108.670848" x2="112.870052" xlink:href="#e" y1="134.065026" y2="138.628225"/><linearGradient id="g" gradientUnits="userSpaceOnUse" x1="94.68055" x2="91.576255" xlink:href="#e" y1="133.88584" y2="139.221226"/><linearGradient id="h"><stop offset=".00001" stop-color="#eee"/><stop offset="1" stop-color="#eee" stop-opacity="0"/></linearGradient><linearGradient id="i" gradientUnits="userSpaceOnUse" x1="95.034417" x2="93.591502" xlink:href="#h" y1="138.599608" y2="140.504528"/><linearGradient id="j" gradientUnits="userSpaceOnUse" x1="95.410548" x2="94.15173" xlink:href="#h" y1="137.571006" y2="140.274513"/><linearGradient id="k" gradientUnits="userSpaceOnUse" x1="109.726482" x2="110.9853" xlink:href="#h" y1="137.571006" y2="140.274513"/><filter id="l" color-interpolation-filters="sRGB" filterUnits="userSpaceOnUse" height="164" width="300" x="0" y="0"><feGaussianBlur stdDeviation=".415289"/></filter><linearGradient id="m" gradientUnits="userSpaceOnUse" x1="237.278609" x2="237.278609" y1="6.679125" y2="14.878146"><stop offset=".00001" stop-color="#eeeeec"/><stop offset="1" stop-color="#eeeeec" stop-opacity="0"/></linearGradient><linearGradient id="n" gradientUnits="userSpaceOnUse" x1="233.916352" x2="239.343261" y1="59.913213" y2="50.785073"><stop offset=".00001" stop-color="#888a85"/><stop offset="1" stop-color="#888a85" stop-opacity="0"/></linearGradient><linearGradient id="o"><stop offset=".00001" stop-color="#9faaaa"/><stop offset="1" stop-color="#424b4b"/></linearGradient><linearGradient id="p" gradientUnits="userSpaceOnUse" x1="239.2506" x2="235.871318" xlink:href="#o" y1="14.091517" y2="12.819103"/><linearGradient id="q" gradientUnits="userSpaceOnUse" x1="236.130627" x2="238.522587" xlink:href="#e" y1="13.773442" y2="13.773417"/><linearGradient id="r"><stop offset=".00001" stop-color="#2e3436"/><stop offset="1" stop-color="#e1deda"/></linearGradient><linearGradient id="s" gradientUnits="userSpaceOnUse" x1="237.313278" x2="237.615991" xlink:href="#r" y1="13.756078" y2="13.843709"/><linearGradient id="t" gradientUnits="userSpaceOnUse" x1="235.387479" x2="239.60674" xlink:href="#e" y1="36.070696" y2="37.292116"/><linearGradient id="u" gradientUnits="userSpaceOnUse" x1="239.251281" x2="235.871999" xlink:href="#o" y1="51.933826" y2="50.661412"/><linearGradient id="v" gradientUnits="userSpaceOnUse" x1="236.131308" x2="238.523267" xlink:href="#e" y1="51.615751" y2="51.615726"/><linearGradient id="w" gradientUnits="userSpaceOnUse" x1="237.313958" x2="237.616672" xlink:href="#r" y1="51.598387" y2="51.686018"/><filter id="x" color-interpolation-filters="sRGB" filterUnits="userSpaceOnUse" height="164" width="300" x="0" y="0"><feGaussianBlur stdDeviation=".31538"/></filter><filter id="y" color-interpolation-filters="sRGB" filterUnits="userSpaceOnUse" height="164" width="300" x="0" y="0"><feGaussianBlur stdDeviation=".315066"/></filter><filter id="z" color-interpolation-filters="sRGB" filterUnits="userSpaceOnUse" height="164" width="300" x="0" y="0"><feGaussianBlur stdDeviation=".169225"/></filter><linearGradient id="A" gradientUnits="userSpaceOnUse" x1="250.817322" x2="250.817322" y1="22.148472" y2="27.092881"><stop offset=".00001" stop-color="#9faaaa"/><stop offset=".3357" stop-color="#fffffa" stop-opacity=".82119"/><stop offset=".82331" stop-color="#9faaaa"/><stop offset="1" stop-color="#fff"/></linearGradient><path d="m126.490509 25.365479 4.997086 103.754348" fill="none" stroke="#45b38d" stroke-width=".337824"/><path d="m225.534042 29.289352c-36.597931 25.461655-68.01474 47.64383-76.011093 53.297753l-1.131576.797973s41.073639 38.141121 77.142959 71.634407v-2.864364c-34.466324-32.00557-72.695282-67.504524-73.800522-68.530426 22.572297-15.954765 48.238907-33.963364 73.800522-51.737351z" fill="#45b38d"/><path d="m100.497864 149.692703c24.367561-37.351257 38.383789-59.83342 43.673843-68.078499l.749405-1.164802s-52.377991-19.915985-98.374069-37.404717l1.074638 2.654801c43.952225 16.712211 92.7024 35.248314 94.111656 35.783836-14.934898 23.269486-25.812782 40.955986-42.835754 67.034912z" fill="#45b38d"/><path d="m154.3022 97.034813.161087 1.375961 81.41864 11.029335-.640106-2.5625s-77.545776-11.775528-78.973892-11.292648c-3.245834-27.464974-3.117233-8.280647-1.965729 1.449852z" fill="#45b38d"/><path d="m150.136536 52.265846c-19.422516 0-35.166016 15.759072-35.166016 35.193535 0 19.43821 15.7435 35.192154 35.165909 35.192154 19.419403 0 35.161606-15.753944 35.161606-35.192154 0-19.434463-15.742203-35.193535-35.161499-35.193535z" fill="#fffffe"/><path d="m150.136429 123.825027c20.034286 0 36.335861-16.313766 36.335861-36.365646 0-20.053154-16.301575-36.366035-36.335754-36.366035-20.037567 0-36.336159 16.312881-36.336159 36.366035 0 20.05188 16.298592 36.365646 36.336052 36.365646zm0-2.34642c-18.745056 0-33.992088-15.260483-33.992088-34.019226 0-18.758438 15.247032-34.020454 33.992195-34.020454 18.741928 0 33.9915 15.262016 33.9915 34.020454 0 18.758743-15.249572 34.019226-33.991607 34.019226z" fill="#45b38d"/><path d="m156.868698 135.457855c-2.965256 0-5.368805 2.405731-5.368805 5.37294 0 2.967697 2.403626 5.372605 5.368805 5.372605 2.964752 0 5.368302-2.404908 5.368302-5.372605 0-2.967209-2.40355-5.37294-5.368302-5.37294z" fill="#45b38d"/><path d="m156.868698 146.382813c3.058716 0 5.547577-2.490784 5.54744-5.552018 0-3.061508-2.4888-5.552154-5.54744-5.552154-3.059143 0-5.547516 2.490646-5.547516 5.552154.000077 3.061234 2.488434 5.552018 5.547516 5.552018zm0-.358201c-2.86174 0-5.189529-2.330215-5.189682-5.193817 0-2.86409 2.327942-5.19403 5.189682-5.19403 2.861374 0 5.189591 2.32994 5.189591 5.19403.000076 2.863602-2.328217 5.193817-5.189591 5.193817z" fill="#45b38d"/><path d="m266.008087 34.772949c-2.96524 0-5.368805 2.405747-5.368805 5.372948 0 2.967697 2.403626 5.372604 5.368805 5.372604 2.964783 0 5.368317-2.404907 5.368317-5.372604 0-2.967201-2.403534-5.372948-5.368317-5.372948z" fill="#45b38d"/><path d="m266.008087 45.697914c3.058716 0 5.547577-2.490784 5.547455-5.552017 0-3.061508-2.4888-5.552147-5.547455-5.552147-3.059143 0-5.547516 2.490639-5.547516 5.552147.000092 3.061233 2.488465 5.552017 5.547516 5.552017zm0-.3582c-2.861725 0-5.189514-2.330208-5.189667-5.193817 0-2.86409 2.327942-5.194023 5.189667-5.194023 2.861389 0 5.189606 2.329933 5.189606 5.194023.000061 2.863609-2.328217 5.193817-5.189606 5.193817z" fill="#45b38d"/><path d="m284.304749 73.112236c-1.340058 0-2.42627 1.087212-2.42627 2.428154 0 1.341179 1.086243 2.428009 2.42627 2.428009 1.339843 0 2.426086-1.08683 2.426086-2.428009 0-1.340942-1.086243-2.428154-2.426086-2.428154z" fill="#45b38d"/><path d="m284.304749 78.049477c1.382324 0 2.50708-1.125641 2.507019-2.509087 0-1.383568-1.124726-2.50914-2.507019-2.50914-1.382477 0-2.50705 1.125572-2.50705 2.50914.00003 1.383446 1.124603 2.509087 2.50705 2.509087zm0-.161881c-1.293274 0-2.345246-1.05307-2.345307-2.347206 0-1.294342 1.052033-2.347298 2.345307-2.347298 1.293151 0 2.345306 1.052956 2.345306 2.347298.00003 1.294136-1.052155 2.347206-2.345306 2.347206z" fill="#45b38d"/><path d="m14.390108 57.31015c-1.340066 0-2.426285 1.087212-2.426285 2.428162 0 1.341171 1.086252 2.428001 2.426285 2.428001 1.339845 0 2.426064-1.08683 2.426064-2.428001 0-1.34095-1.086219-2.428162-2.426064-2.428162z" fill="#45b38d"/><path d="m14.390108 62.247398c1.382307 0 2.50708-1.125648 2.507017-2.509086 0-1.383568-1.124742-2.509148-2.507017-2.509148-1.382496 0-2.507047 1.12558-2.507047 2.509148.000032 1.383438 1.124584 2.509086 2.507047 2.509086zm0-.16188c-1.293283 0-2.345268-1.053078-2.345333-2.347206 0-1.29435 1.05205-2.347306 2.345333-2.347306 1.293127 0 2.345301 1.052956 2.345301 2.347306.000032 1.294128-1.052174 2.347206-2.345301 2.347206z" fill="#45b38d"/><path d="m46.555748 37.976082c-2.965252 0-5.368801 2.405739-5.368801 5.37294 0 2.967697 2.403622 5.372604 5.368801 5.372604 2.96476 0 5.368309-2.404907 5.368309-5.372604 0-2.967201-2.403549-5.37294-5.368309-5.37294z" fill="#45b38d"/><path d="m46.555748 48.901039c3.05872 0 5.547581-2.490784 5.547443-5.552017 0-3.061508-2.488792-5.552147-5.547443-5.552147-3.059143 0-5.547508 2.490639-5.547508 5.552147.000068 3.061233 2.488437 5.552017 5.547508 5.552017zm0-.3582c-2.861736 0-5.189529-2.330208-5.189674-5.193817 0-2.86409 2.327938-5.194031 5.189674-5.194031 2.861385 0 5.189602 2.329941 5.189602 5.194031.000069 2.863609-2.328217 5.193817-5.189602 5.193817z" fill="#45b38d"/><path d="m57.864456 29.393051c-2.28096 0-4.129844 1.850571-4.129844 4.133042 0 2.282836 1.848937 4.132766 4.129844 4.132766 2.280586 0 4.129471-1.84993 4.129471-4.132766 0-2.282471-1.848885-4.133042-4.129471-4.133042z" fill="#45b38d"/><path d="m57.864456 37.796875c2.352863 0 4.267372-1.915985 4.267265-4.270782 0-2.355011-1.914455-4.27089-4.267265-4.27089-2.353184 0-4.267311 1.915879-4.267311 4.27089.000053 2.354797 1.914181 4.270782 4.267311 4.270782zm0-.275543c-2.201332 0-3.991943-1.792465-3.992054-3.995239 0-2.203141 1.790722-3.995408 3.992054-3.995408 2.201069 0 3.992005 1.792267 3.992005 3.995408.000053 2.202774-1.790936 3.995239-3.992005 3.995239z" fill="#45b38d"/><path d="m107.069786 20.343903c-6.462257 0-11.700302 5.242797-11.700302 11.709381 0 6.467445 5.23819 11.708534 11.700302 11.708534 6.461449 0 11.699349-5.241089 11.699349-11.708534 0-6.466584-5.2379-11.709381-11.699349-11.709381z" fill="#45b38d"/><path d="m107.069786 44.152824c6.665825 0 12.089905-5.428405 12.089783-12.09954 0-6.672119-5.424111-12.100113-12.089783-12.100113-6.666801 0-12.089752 5.427994-12.089752 12.100113.000152 6.67144 5.423096 12.09954 12.089752 12.09954zm0-.780609c-6.236809 0-11.309753-5.078293-11.309898-11.318931 0-6.242096 5.073089-11.319504 11.309898-11.319504 6.235977 0 11.309937 5.077408 11.309937 11.319504.000145 6.240638-5.07396 11.318931-11.309937 11.318931z" fill="#45b38d"/><path d="m237.963837 1.793777c-12.011612 0-21.747864 9.745453-21.747864 21.764679 0 12.021485 9.736511 21.763237 21.747864 21.763237 12.009903 0 21.74588-9.741752 21.74588-21.763237 0-12.019226-9.735977-21.764679-21.74588-21.764679z" fill="#45b38d"/><path d="m237.963837 46.048454c12.389938 0 22.472046-10.089744 22.471496-22.489998 0-12.40158-10.081863-22.490753-22.471496-22.490753-12.391922 0-22.471772 10.089173-22.471772 22.490753.00029 12.400254 10.080399 22.489998 22.471772 22.489998zm0-1.450958c-11.592575 0-21.021668-9.439049-21.021973-21.03904 0-11.601974 9.429398-21.039901 21.021973-21.039901 11.591156 0 21.021972 9.437927 21.021972 21.039901.000275 11.599991-9.430816 21.03904-21.021972 21.03904z" fill="#45b38d"/><path d="m39.260311 54.453125 96.550495 35.554688 5.405518-6.97194-102.062699-39.686912z" fill="#45b38d"/><path d="m135.164658 141.048172c3.054077-2.005417 3.90509-6.10907 1.901718-9.164856-2.003922-3.056656-6.103577-3.907639-9.157219-1.902542-3.053948 2.005096-3.905678 6.107925-1.901459 9.164566 2.003517 3.055496 6.10331 3.908203 9.15696 1.902832z" fill="#45b38d"/><path d="m127.787895 129.796158c-3.150436 2.068664-4.031929 6.317032-1.964805 9.469986 2.067123 3.153229 6.312683 4.035263 9.462677 1.966339 3.150863-2.068924 4.032074-6.316712 1.96437-9.469956-2.066681-3.152679-6.311813-4.035553-9.462242-1.966369zm.241829.368957c2.947312-1.935897 6.918579-1.11026 8.852188 1.839295 1.933762 2.950088 1.109375 6.924118-1.837936 8.85971-2.947342 1.935288-6.91832 1.109955-8.852371-1.839599-1.93377-2.949524-1.109368-6.924103 1.838119-8.859406z" fill="#45b38d"/><path d="m32.319706 131.865875c3.054085-2.005401 3.905094-6.10907 1.901722-9.164856-2.003925-3.05664-6.103571-3.907638-9.157221-1.902542-3.053944 2.005112-3.90568 6.107926-1.901461 9.164566 2.003514 3.055496 6.103306 3.908203 9.15696 1.902832z" fill="#45b38d"/><path d="m24.942942 120.613869c-3.150429 2.068657-4.031927 6.317024-1.964802 9.469978 2.067121 3.153244 6.312687 4.035263 9.462683 1.966354 3.150863-2.068939 4.03207-6.316726 1.96437-9.469963-2.066684-3.152679-6.311821-4.03556-9.462251-1.966369zm.241829.36895c2.947313-1.935883 6.918581-1.11026 8.852193 1.839294 1.933766 2.950104 1.109368 6.924118-1.837944 8.859711-2.947336 1.935287-6.918314 1.109955-8.852367-1.8396-1.933764-2.949509-1.109365-6.924095 1.838118-8.859405z" fill="#45b38d"/><path d="m35.947018 65.347649c3.054084-2.00541 3.905094-6.10907 1.901722-9.164856-2.003926-3.056641-6.103573-3.907639-9.157221-1.902542-3.053946 2.005104-3.90568 6.107925-1.901461 9.164566 2.003513 3.055496 6.103306 3.908203 9.15696 1.902832z" fill="#45b38d"/><path d="m28.570253 54.095642c-3.15043 2.068657-4.031927 6.317024-1.964801 9.469978 2.067119 3.153237 6.312688 4.035263 9.462682 1.966347 3.150864-2.068931 4.03207-6.316719 1.964371-9.469963-2.066685-3.152672-6.311821-4.035553-9.462252-1.966362zm.241829.36895c2.947314-1.93589 6.918581-1.11026 8.852194 1.839294 1.933766 2.950097 1.109367 6.924111-1.837944 8.859711-2.947338 1.935288-6.918314 1.109955-8.852369-1.8396-1.933764-2.949516-1.109364-6.924095 1.838119-8.859405z" fill="#45b38d"/><path d="m126.53933 134.176468-14.695069-2.275772-.165665 1.070633 14.695191 2.275467z" fill="#45b38d"/><path d="m132.027603 9.439636c.040436-3.655227-2.888107-6.65123-6.539863-6.691498-3.65271-.040344-6.64544 2.890381-6.685723 6.545182-.040291 3.655365 2.887116 6.651184 6.539711 6.691116 3.651726.040421 6.645592-2.889572 6.685875-6.5448z" fill="#45b38d"/><path d="m118.581261 9.291336c-.041565 3.770783 2.99031 6.872559 6.757759 6.914017 3.768158.041855 6.86766-2.992981 6.908935-6.763153.041687-3.771469-2.989608-6.872696-6.758056-6.914124-3.767594-.041778-6.867218 2.992233-6.908638 6.76326zm.440956.004715c.038711-3.52803 2.938217-6.366043 6.46299-6.327133 3.525337.039184 6.361198 2.940719 6.322197 6.468155-.038865 3.527878-2.938065 6.366272-6.463112 6.327377-3.524651-.038742-6.361367-2.940658-6.322075-6.468399z" fill="#45b38d"/><path d="m121.970108 12.732452-10.083839 10.937317.795356.734497 10.083702-10.937332z" fill="#45b38d"/><path d="m253.409714 98.249001c.401092-1.836434-.760666-3.650376-2.595337-4.052063-1.834992-.402016-3.647186.760948-4.048828 2.597381-.401139 1.835602.760605 3.650383 2.595016 4.051521 1.834427.401978 3.647461-.760963 4.049149-2.596839z" fill="#45b38d"/><path d="m246.654785 96.770119c-.41362 1.894249.789383 3.772575 2.681885 4.186561 1.892761.41478 3.769577-.789482 4.183762-2.683471.41365-1.894539-.789383-3.772583-2.68216-4.187401-1.892486-.41452-3.769287.789459-4.183487 2.684311zm.221756.048134c.387436-1.772065 2.14299-2.89827 3.913635-2.510514 1.77092.388031 2.89621 2.144997 2.50853 3.917038-.387192 1.772049-2.143021 2.89827-3.913666 2.510803-1.770614-.387481-2.896225-2.145286-2.508499-3.917327z" fill="#45b38d"/><path d="m248.002106 98.8564-6.217453 4.453781.32399.453003 6.217453-4.453789z" fill="#45b38d"/><path d="m225.229446 90.524193c-1.869415-.180046-3.530456 1.191147-3.710067 3.06208-.180207 1.871208 1.189621 3.533013 3.059036 3.713059 1.86943.180038 3.531036-1.190583 3.710373-3.061806.179626-1.87088-1.189911-3.533554-3.059342-3.713333z" fill="#45b38d"/><path d="m224.568192 97.412155c1.928619.185738 3.64801-1.233879 3.833358-3.163788.185852-1.930725-1.23265-3.651527-3.16098-3.836685-1.928924-.18605-3.6492 1.233009-3.834503 3.16375-.185303 1.930183 1.23291 3.651237 3.162125 3.836723zm.021331-.225914c-1.804809-.17379-3.131073-1.783462-2.957138-3.589691.173355-1.80571 1.782044-3.133041 3.586258-2.959541 1.803955.173797 3.131073 1.78376 2.957428 3.589157-.172806 1.805938-1.782593 3.134125-3.586548 2.960075z" fill="#45b38d"/><path d="m227.437332 96.572121 5.159943 5.646919.410476-.376053-5.159622-5.64666z" fill="#45b38d"/><path d="m126.931023 152.554565c1.080894 1.537003 3.202263 1.905961 4.737892.824463 1.536346-1.081741 1.905014-3.204773.824127-4.741241-1.081039-1.537277-3.202103-1.907074-4.737885-.825333-1.535949 1.082031-1.904876 3.204788-.824134 4.742111z" fill="#45b38d"/><path d="m132.585281 148.571991c-1.115203-1.585724-3.311142-1.967484-4.895187-.851837-1.585037 1.116241-1.966644 3.314194-.851593 4.899643 1.115051 1.586014 3.311432 1.968368 4.896179.852127 1.584473-1.115936 1.965943-3.313629.850601-4.899933zm-.185348.130783c1.04332 1.484024.686203 3.539261-.796494 4.583695-1.482696 1.044143-3.536728.686584-4.57946-.797165-1.0429-1.483445-.686333-3.539826.795922-4.58397 1.482131-1.043884 3.537597-.686325 4.580032.79744z" fill="#45b38d"/><path d="m130.138535 148.155472.922485-7.596207-.552139-.06723-.922898 7.595901z" fill="#45b38d"/><path d="m123.709442 27.324295c1.080734 1.537003 3.202225 1.90596 4.737747.824463 1.536499-1.081589 1.904984-3.204773.824234-4.741379-1.081176-1.537277-3.202224-1.906936-4.738029-.825043-1.535767 1.081757-1.904724 3.204636-.823952 4.741959z" fill="#45b38d"/><path d="m129.363663 23.341705c-1.115311-1.585861-3.311249-1.967621-4.895447-.851806-1.585037 1.11618-1.966637 3.313766-.851593 4.899353 1.115196 1.586166 3.311432 1.968353 4.896179.852569 1.584595-1.116089 1.966202-3.313949.850861-4.900116zm-.185303.130631c1.043304 1.483917.68605 3.539276-.796509 4.583572-1.482719 1.044296-3.536728.686447-4.579773-.797012-1.042579-1.483444-.686195-3.539688.796234-4.583985 1.48185-1.043701 3.537278-.686309 4.580048.797425z" fill="#45b38d"/><path d="m126.916656 22.925201.9226-7.596206-.552246-.067215-.922897 7.595596z" fill="#45b38d"/><path d="m245.716202 108.428925c.053283-4.872284-3.849838-8.86599-8.717972-8.919823-4.868973-.053551-8.858048 3.853233-8.911575 8.724968-.053788 4.872276 3.848175 8.865967 8.717147 8.918945 4.868134.054154 8.858628-3.851509 8.9124-8.72409z" fill="#45b38d"/><path d="m227.792328 108.231201c-.055237 5.026444 3.986221 9.160576 9.008057 9.2164 5.02301.055847 9.154693-3.989395 9.20935-9.015533.056336-5.027016-3.985092-9.161148-9.008087-9.216705-5.022141-.055535-9.153809 3.988861-9.20932 9.015838zm.587845.006577c.051223-4.70308 3.916473-8.486794 8.614944-8.434662 4.699326.052994 8.479721 3.920189 8.427307 8.622391-.051788 4.702514-3.916153 8.486206-8.614929 8.434089-4.69844-.05159-8.479706-3.919624-8.427322-8.621818z" fill="#45b38d"/><path d="m238.278854 111.148438-22.77388 24.701629 1.796082 1.658035 22.77391-24.70111z" fill="#45b38d"/><path d="m52.47987 143.407074c-.555401 6.443787 4.21368 12.117493 10.651047 12.673325 6.438358.555557 12.106395-4.216736 12.661945-10.659958.555244-6.442932-4.212112-12.116089-10.650497-12.671936-6.43734-.555802-12.106984 4.216491-12.662495 10.658569z" fill="#45b38d"/><path d="m76.181839 145.453461c.572914-6.646042-4.364822-12.521195-11.006012-13.094391-6.641914-.573212-12.512081 4.368301-13.084969 11.014664-.572887 6.647506 4.364563 12.521484 11.006596 13.094711 6.641476.573486 12.511204-4.367462 13.084385-11.014984zm-.777-.066666c-.536042 6.219025-6.027573 10.840332-12.240197 10.303894-6.21405-.536484-10.832534-6.031006-10.296348-12.24971.535896-6.21788 6.026584-10.840607 12.240486-10.304428 6.212768.536468 10.8321 6.032669 10.296059 12.250244z" fill="#45b38d"/><path d="m110.77877 130.452393 2.634415 2.698135 38.817635-34.572197-2.634415-2.69812z" fill="#45b38d"/><path d="m68.562752 98.582375.488823 3.740547 51.78218-4.332909-.488815-3.740547z" fill="#45b38d"/><path d="m127.335106 27.008331 96.233574 65.300576" fill="none" stroke="#45b38d" stroke-width=".337824"/><path d="m225.864258 94.659035-96.152024 55.936851" fill="none" stroke="#45b38d" stroke-width=".337824"/><path d="m236.591446 102.853195 1.372391-68.601501" fill="none" stroke="#45b38d" stroke-width=".337824"/><path d="m104.825607 39.885666.710388 88.204269" fill="none" stroke="#45b38d" stroke-width=".337824"/><path d="m46.514893 40.14624 181.194793-17.97731" fill="none" stroke="#45b38d" stroke-width=".337824"/><path d="m64.619644 117.39743 60.542267-102.848907" fill="none" stroke="#45b38d" stroke-width=".871466"/><path d="m133.238739 133.777008 58.246582 12.796127" fill="none" stroke="#45b38d" stroke-width=".337824"/><path d="m208.355667 132.892151 20.066925-95.081787" fill="none" stroke="#45b38d" stroke-width=".337824"/><path d="m125.414749 9.366409 99.101013 2.847519" fill="none" stroke="#45b38d" stroke-width=".337824"/><path d="m134.30426 138.04248 99.800873-29.804702" fill="none" stroke="#45b38d" stroke-width=".337824"/><path d="m198.221817 78.102913c0 29.100433-23.571899 52.691353-52.649322 52.691353-29.077408 0-52.649308-23.59092-52.649308-52.691353 0-29.100784 23.5719-52.691475 52.649308-52.691475 29.077423 0 52.649322 23.590691 52.649322 52.691475z" fill="#7dafd2"/><path d="m148.735214 53.91748v20.982384h20.965714v6.405747h-20.965714v20.982498h-6.323547v-20.982498h-20.965714v-6.405747h20.965714v-20.982384z" fill="#fff"/><path d="m118.136337 143.980148c0 8.756668-7.029243 15.855179-15.700462 15.855179s-15.700455-7.098511-15.700455-15.855179c0-8.756653 7.029236-15.855148 15.700455-15.855148s15.700462 7.098495 15.700462 15.855148z"/><path d="m115.828506 144.09816c0 7.449951-6.034629 13.489395-13.478637 13.489395-7.444016 0-13.478646-6.039444-13.478646-13.489395 0-7.449967 6.03463-13.489411 13.478646-13.489411 7.444008 0 13.478637 6.039444 13.478637 13.489411z" fill="url(#a)"/><path d="m117.950478 144.100098c0 8.621719-6.983788 15.611084-15.598633 15.611084-8.614838 0-15.598625-6.989365-15.598625-15.611084 0-8.621735 6.983787-15.611084 15.598625-15.611084 8.614845 0 15.598633 6.989349 15.598633 15.611084z" fill="none" stroke="#000" stroke-opacity=".69792" stroke-width="1.480559"/><g opacity=".022221" stroke-width=".01"><path d="m111.781944 136.335281c-.00679-.044464-.013229-.088272-.01934-.131729-.127228-.955444-.629662-1.832443-1.308518-2.504028-.055984-.055359-.109581-.112396-.165222-.167069-.846451-.795517-1.889335-1.353012-2.971916-1.75502-1.447617-.531021-2.988197-.779907-4.526054-.821319-1.587395-.03566-3.182259.14804-4.71299.574478-1.633202.457016-3.220932 1.190048-4.496544 2.325439-.287689.260086-.551293.545639-.794212.847809-.206604.248886-.375893.526276-.532975.808426-.269714.492661-.426445 1.040665-.491249 1.597488.002037.125626.002716.251252.003395.377228-.017303.976822.430176 1.904755 1.0439 2.642563.218483.237335.437301.47432.688019.678711.372848.333771.796241.60437 1.227783.85495.528908.320175 1.107338.541214 1.681366.764282.339935.103211.677505.213227 1.022186.300141.301262.08522.613037.124954.916336.202697 2.078308.369416 4.227516.323243 6.290215-.122223.322967-.080474.652389-.137847.967559-.247863 1.52871-.434937 3.003464-1.128601 4.224457-2.157715.238838-.195908.431877-.440704.671738-.635254.047493-.064179.095665-.128006.146553-.189804.424072-.500809.76062-1.080383.963501-1.705795.164543-.494034.203903-1.019288.172012-1.536393z" fill="url(#b)" stroke="#e6e6e5"/><path d="m116.426399 142.728638c-.048843-.542221-.148254-1.079026-.266311-1.610047-.159455-.683822-.364365-1.357788-.623223-2.010696-.271744-.717087-.617111-1.404648-1.000473-2.068085-.32196-.539841-.669357-1.064758-1.057136-1.559463-.338242-.441727-.707016-.859345-1.097504-1.254898-.38031-.38469-.780632-.749009-1.201996-1.087845-1.809952-1.46576-3.989349-2.458893-6.27256-2.902313-2.245903-.431214-4.592895-.319153-6.783836.338516-2.074227.619644-4.006653 1.716995-5.593026 3.191925-.376243.341903-.728393.709945-1.066299 1.089538-.740593.848832-1.385872 1.782532-1.906639 2.78212-.099732.191147-.194054.385025-.288368.578888-.270729.576538-.503464 1.171387-.690728 1.780167-.288375.910293-.483108 1.849762-.586242 2.799087-.001015.010864-.003052.032257-.004074.043122-.079727.767334-.09906 1.541473-.050209 2.311859.006111.151764.01934.303192.033584.454971.058357.644424.16285 1.28479.311104 1.914948.048172.204406.10212.40744.15538.610824.237824.835922.548241 1.651123.931267 2.43103.079392.160935.161492.320862.246979.479081.334518.627792.717537 1.229431 1.141273 1.800857.679192.912323 1.466278 1.744507 2.34224 2.470093.43425.359558.889885.694 1.364845.998215 2.162781 1.391403 4.704506 2.184539 7.27372 2.27452 2.694061.096421 5.409149-.598602 7.727989-1.973358.582848-.344284 1.141266-.72998 1.66983-1.153045.227311-.181992.448502-.371781.665627-.565995.935684-.851883 1.762459-1.823608 2.443687-2.890426.078369-.125275.157082-.249893.23375-.37619.546547-.918091.995392-1.8956 1.322776-2.913178.305672-.922836.507531-1.878967.623559-2.843902l.002708-.027161c.107895-1.033875.122818-2.080307-.001694-3.113159zm-4.816459-4.85698c-.202881.625412-.539422 1.205002-.963501 1.705796-.050888.061798-.099053.12564-.146553.189804-.239861.194549-.432892.439346-.671738.635269-1.220993 1.029114-2.695747 1.722778-4.224457 2.157715-.31517.11-.644592.167389-.96756.247848-2.062698.445465-4.211906.491638-6.290207.122238-.303306-.077758-.615074-.117477-.916336-.202697-.344688-.08693-.682258-.19693-1.022194-.300156-.574028-.223068-1.152465-.444107-1.681366-.764282-.431541-.250565-.854934-.521179-1.227783-.854935-.250709-.204407-.469536-.441391-.688011-.678726-.613724-.737793-1.061203-1.665726-1.043899-2.642563-.000687-.125961-.001366-.251587-.003403-.377213.064804-.556839.221535-1.104827.491249-1.597488.157082-.282165.32637-.559555.532982-.808426.242912-.302185.506515-.587723.794204-.847809 1.275612-1.135391 2.86335-1.868438 4.496544-2.325439 1.530739-.426453 3.125595-.610153 4.71299-.574494 1.537865.041428 3.078438.290299 4.526055.821335 1.08258.401993 2.125465.959503 2.971916 1.75502.055641.054673.109237.11171.165222.167054.678856.671585 1.181297 1.548599 1.308517 2.504043.006112.043457.012558.08725.019341.131729.031883.517105-.007477 1.042359-.172012 1.536377z" fill="url(#c)" stroke="#efefef"/></g><path d="m117.003204 141.394211c-.208725-1.134537-.563331-2.240875-1.029922-3.295181-.301323-.680512-.655922-1.336701-1.054756-1.964676-.784729-1.232651-1.749985-2.350113-2.857247-3.302933-.532806-.459732-1.098983-.880371-1.691536-1.259323-1.863533-1.193299-3.996322-1.958466-6.190666-2.23674-2.717575-.351776-5.528007.076629-8.022125 1.210907-1.751541.79132-3.347374 1.924057-4.674225 3.315124l.001556.003616c-.895172.93187-1.661796 1.986939-2.282028 3.120453-.43193.791047-.793258 1.620407-1.075699 2.476166-.001815.01062-.005432.031586-.006988.041947-.05069.113891-.080696.235549-.118202.354095-.335717 1.119019-.549095 2.277115-.613503 3.444016-.047073.752227-.038536 1.509368.037766 2.259521.0494.582672.136306 1.163528.264595 1.734299.149231.742904.373993 1.469497.635231 2.180557l.004913.000259c.485733 1.293229 1.155365 2.517334 1.977593 3.62677.908363 1.227478 2.005538 2.315689 3.243148 3.209763 1.810776 1.312881 3.922348 2.202301 6.122383 2.596786 2.519715.459198 5.156342.25058 7.572342-.600265 1.936989-.677155 3.73172-1.757355 5.237038-3.152817.957504-.887344 1.798874-1.900482 2.491783-3.007324.463753-.736435.859734-1.51506 1.18692-2.321381.555832-1.375793.91716-2.834167 1.041817-4.313247.010613-.06807.017075-.136155.021729-.204483.098548-1.307465.02845-2.628632-.221917-3.915909zm-21.517692 14.72554c.161789.001938.323562.001404.485351.002319-.161789-.000915-.32357-.000381-.485351-.002319zm17.666214-10.749069-.002068.020706c-.088455.735657-.242348 1.464584-.475387 2.168152-.249596.775772-.591782 1.520996-1.008461 2.220932-.058449.096298-.118462.191299-.178208.286819-.519356.813309-1.149673 1.554138-1.863014 2.203598-.165535.148056-.334167.292755-.507462.431504-.402969.322525-.828697.616577-1.273048.879058-1.767837 1.048081-3.837768 1.577958-5.89167 1.504441-1.958718-.068589-3.896485-.673264-5.545342-1.73404-.362106-.231933-.709465-.486908-1.040527-.761032-.667816-.553161-1.267876-1.187606-1.785683-1.883133-.323043-.435653-.615059-.894333-.870086-1.372955-.065178-.120621-.127762-.242538-.188294-.365234-.292-.59459-.528663-1.21608-.709976-1.853379-.040604-.155044-.081726-.309845-.118462-.465667-.113021-.480439-.192688-.968628-.237175-1.459931-.010864-.115707-.02095-.23114-.025604-.346847-.037247-.587342-.022507-1.177521.038277-1.762528.000778-.008285.002334-.024597.003105-.032867.078629-.723755.227089-1.439987.446938-2.133972.142768-.464127.320198-.917633.526603-1.357163.0719-.147812.143807-.295608.219849-.441345.397018-.762054.888962-1.473892 1.453583-2.121033.257606-.289383.526085-.569992.812919-.830642 1.209427-1.124451 2.682663-1.96106 4.264015-2.433472 1.670334-.501389 3.459633-.586807 5.171868-.258072 1.740669.338058 3.402206 1.0952 4.782074 2.212662.321235.258331.626442.536087.916374.829361.297699.301559.57885.619949.836723.956726.295632.377136.560479.777328.805931 1.188888.292267.505799.555565 1.029984.762742 1.57666.197349.497788.353569 1.011597.475135 1.532929.090004.404846.165787.814087.203034 1.227478.094925.787414.083549 1.585205.001297 2.373398z" fill="url(#d)" opacity=".237286" stroke="#59595b" stroke-width=".01"/><path d="m87.38945 144.541168-.016212.508667 3.885078.09993.011704-.429398z" fill="#00aeef"/><path d="m91.305115 143.784973-.015297.415009-3.873383-.309647.024224-.52121z" fill="#00aeef"/><path d="m91.42292 142.88118-.05941.398804-3.845474-.568055.079216-.529327z" fill="#00aeef"/><path d="m91.610008 141.990768-.082718.396119-3.795189-.854279.110726-.520386z" fill="#00aeef"/><path d="m91.861839 141.132889-.111458.381653-3.720481-1.146881.153823-.517624z" fill="#00aeef"/><path d="m92.180359 140.318161-.146645.359146-3.614372-1.463714.206978-.506928z" fill="#00aeef"/><path d="m92.563545 139.531357-.193443.341186-3.472145-1.789688.26178-.472641z" fill="#00aeef"/><path d="m93.004288 138.768799c-.011689-.007187-.203285.335846-.203285.335846l-3.312058-2.083222s.268044-.469024.279747-.459076z" fill="#00aeef"/><path d="m93.523346 138.046814-.229454.321442-3.13842-2.349701.312156-.43393z" fill="#00aeef"/><path d="m94.093605 137.374313-.266296.285416-2.944992-2.59816.360717-.395187z" fill="#00aeef"/><path d="m94.693634 136.731598c-.011711-.01355-.268974.282654-.268974.282654l-2.726509-2.839402s.36071-.396957.372413-.383499z" fill="#00aeef"/><path d="m95.372765 136.179688-.301392.247604-2.48719-3.061737.41468-.338516z" fill="#00aeef"/><path d="m96.076118 135.663925s-.33638.193482-.329193.2052l-2.230857-3.262436c-.008011-.011703.447113-.287262.447113-.287262z" fill="#00aeef"/><path d="m96.821861 135.205658-.330124.205292-1.961891-3.439881.453385-.275451z" fill="#00aeef"/><path d="m97.609879 134.823914-.359787.152206-1.683991-3.591995.484879-.209809z" fill="#00aeef"/><path d="m98.414932 134.477402-.35804.1557-1.399627-3.717086.486618-.204377z" fill="#00aeef"/><path d="m99.261444 134.24057-.377846.098999-1.114547-3.817001.507347-.137726z" fill="#00aeef"/><path d="m100.112366 134.017303c-.002762-.01889-.378762.096344-.378762.096344l-.823021-3.895385s.505517-.140412.510026-.121506z" fill="#00aeef"/><path d="m100.977669 133.920975-.38411.045074-.518951-3.949402.524383-.062133z" fill="#00aeef"/><path d="m101.843056 133.848969s-.09626-.005341-.193436-.011704c-.09626.012634-.191589.025253-.191589.025253l-.204216-3.980011s.130424-.014373.261779-.027923c.131356.004516.263535.009964.263535.009964z" fill="#00aeef"/><path d="m102.71019 133.892212-.385941-.017151.115135-3.983597.527161.025254z" fill="#ed1c24"/><path d="m103.575485 133.979507s-.383186-.089141-.38401-.068405l.434402-3.96019c.003586-.02156.517296.086487.517296.086487z" fill="#ed1c24"/><path d="m104.439034 134.148758-.384011-.073837.73127-3.913361.514542.101776z" fill="#ed1c24"/><path d="m105.282875 134.383743-.367073-.133209 1.022804-3.844955.498329.172851z" fill="#ed1c24"/><path d="m106.110397 134.673569-.368812-.127762 1.315079-3.749542.495658.177353z" fill="#ed1c24"/><path d="m106.87677 135.040924-.329208-.178284 1.617393-3.623428.482109.2547z" fill="#ed1c24"/><path d="m107.624344 135.428009-.333809-.16925 1.957375-3.442566.478614.261078z" fill="#ed1c24"/><path d="m108.44828 135.978088c.022484.008103-.363372-.249359-.363372-.249359l2.143531-3.32283.396721.270935z" fill="#ed1c24"/><path d="m109.068016 136.47229s-.085388-.071075-.169945-.143158c-.065681-.048584-.130432-.098099-.130432-.098099l2.444916-3.096862s.11689.093658.232948.186386c.091744.077453.183495.154785.183495.154785z" fill="#ed1c24"/><path d="m109.799385 137.136658s-.2546-.26558-.282509-.278107l2.539421-3.014923c-.015289-.028854.379593.366333.379593.365417z" fill="#ed1c24"/><path d="m110.366966 137.778564-.242889-.304321 2.792175-2.770904.344505.415023z" fill="#ed1c24"/><path d="m110.921944 138.454636-.248238-.29979 3.012505-2.516189.339988.41954z" fill="#ed1c24"/><path d="m111.411331 139.201889-.215912-.333984 3.202355-2.257889.288681.447464z" fill="#ed1c24"/><path d="m111.853844 139.971558-.169953-.353821 3.361527-1.999405.241058.484344z" fill="#ed1c24"/><path d="m112.236198 140.766449c.008103-.005341-.168197-.35463-.168197-.35463l3.514427-1.700637s.23838.487945.227608.490707z" fill="#ed1c24"/><path d="m112.54744 141.614471-.13945-.377136 3.633155-1.412552.182656.50148z" fill="#ed1c24"/><path d="m112.806458 142.494003-.110627-.394272 3.72316-1.142364.141197.50766z" fill="#ed1c24"/><path d="m113.014259 143.386185-.085479-.397873 3.788833-.881394.109795.517624z" fill="#ed1c24"/><path d="m113.130318 144.317062-.042275-.418609 3.837372-.629257.055824.514022z" fill="#ed1c24"/><path d="m113.219398 145.256897-.035102-.416779 3.864357-.415924.044037.51854z" fill="#ed1c24"/><g fill-rule="evenodd" opacity=".13508480158"><path d="m102.015305 131.472443c-1.575585-.064408-4.033738.205688-5.664704 1.235702.122437.517044.267288.959732.659332 1.723129 1.542672-.681625 2.949975-1.022552 4.746254-.976821 1.796326.045669 3.465516.624115 4.78682 1.131515.456299-.906311.55146-1.212692.727348-1.730637-1.878616-1.081924-3.566131-1.313766-5.255203-1.382858z" fill="#fff" fill-opacity=".70833"/><path d="m112.663773 138.154892c-.275635-1.162872-1.849366-2.82048-2.553383-3.263519-.311867.258407-.418473.445236-.808464.967453.823784.505615 2.15052 1.312851 2.718353 2.524994.473572-.167298.35186-.080994.643494-.228882z" fill="url(#f)"/><path d="m91.280647 139.640015c.058502-1.214249 1.637207-4.091599 2.21167-4.663788.331108.201401.460976.369232.908303.820434-.674691.656891-2.162529 2.422638-2.482331 3.73993-.464874-.080796-.343971.198272-.637642.103424z" fill="url(#g)"/><path d="m101.786766 135.170212c-.83268.022278-2.181915.356521-2.778648.568527.106086.509033.156471.779755.19477 1.101257.611985-.24176 1.803231-.599838 2.644722-.556121.867783.045059 1.883996.281692 2.406167.467086.104934-.46701.21405-.739242.359046-1.194381-1.161018-.261979-1.994674-.40857-2.826072-.386322z" fill="url(#i)" opacity=".38421"/><path d="m93.814064 138.768463c.420654-.621094.709053-.943878 1.365768-1.614593.261895.23413.943947.693817 1.324624 1.000167-.679062.559983-1.013756.781006-1.381875 1.168122-.395301-.148346-1.064613-.421036-1.308517-.553665z" fill="url(#j)" opacity=".38421"/><path d="m111.324524 138.768463c-.420654-.621094-.709053-.943878-1.365769-1.614593-.261894.23413-.943946.693817-1.324623 1.000167.679062.559983 1.013756.781006 1.381874 1.168122.395302-.148346 1.064614-.421036 1.308518-.553665z" fill="url(#k)" opacity=".38421"/></g><path d="m104.645683 143.506042c-.345245.490998-.63446.997147-.867645 1.518464-.184738.409164-.351303.909256-.499695 1.500274-.148392.591019-.222587 1.075943-.222587 1.454804h-1.344628c.039368-1.182038.427002-2.411042 1.162918-3.687027.475472-.791062.873703-1.342667 1.194718-1.654846h-3.28434l.018173-1.163849h4.65168v1.013809c-.193825.190948-.463348.530411-.808594 1.018371zm-5.750999 4.473542h-1.326454v-4.54628h-1.54905v-.881973c.408844-.018189.695023-.045472.858567-.081833.260444-.057587.472435-.17276.635971-.34552.112045-.11821.196846-.275803.254387-.472824.033309-.118195.049964-.206086.049964-.263672h1.076615z" fill="#fff" fill-rule="evenodd"/><path d="m108.026627 145.953522c-.094483 0-.176255.011825-.245301.035461-.121742.04364-.213508.124573-.275284.242767l-.697753-.03273.278007-2.184951h2.17775v.660125h-1.616272l-.141732.864701c.119927-.078186.213501-.13002.280732-.155472.112663-.04184.249847-.062744.411567-.062744.327073 0 .612351.110016.855835.330063.243492.220047.365227.5401.365227.960174 0 .365524-.117195.69194-.351601.979263-.234397.287323-.58509.430985-1.052078.430985-.376129 0-.685028-.100922-.926697-.30278-.241676-.201859-.376136-.488266-.403389-.859238h.774071c.030884.169113.089943.299591.177162.391434.08722.091827.214409.137756.381585.137756.192604 0 .339332-.067749.440177-.203232.100846-.135482.151276-.305954.151276-.511459 0-.201843-.047249-.37233-.141731-.511444-.09449-.13913-.241669-.208679-.441551-.208679zm-2.690155 1.151123h.825851v.812866h-.825851z" fill="#fff" fill-rule="evenodd"/><path d="m246.615891 123.999367c10.599624 0 19.244705-8.652123 19.244705-19.260155 0-10.608208-8.645081-19.260261-19.244705-19.260261-10.599747 0-19.244889 8.652053-19.244889 19.260261 0 10.608032 8.645142 19.260155 19.244889 19.260155z" fill="#78e594" fill-rule="evenodd"/><path d="m246.615707 86.416824c6.011383 0 10.884568 4.261811 10.884568 9.518921h-21.768906v.002663-.002663c0-5.25711 4.873199-9.518921 10.884338-9.518921z" fill="#cad8e3" fill-rule="evenodd"/><path d="m236.187622 95.490967h20.856049c-.051636-.926346-.264344-1.832497-.627961-2.690506-.756622-1.784546-2.11235-3.245873-3.750488-4.260315-1.811966-1.122009-3.923553-1.678673-6.049515-1.678673-2.125579 0-4.237365.556664-6.049331 1.678673-1.638138 1.014442-2.993683 2.475769-3.750412 4.260315-.36438.859505-.577088 1.767143-.628342 2.690506z" fill="#fff" fill-rule="evenodd"/><path d="m246.615707 87.24881c-.053039 0-.096878.044052-.096878.097153v1.125709c.032303-.000297.06456-.001182.097062-.001182.032501 0 .064575.000885.096939.001182v-1.125709c0-.053101-.043885-.097153-.097123-.097153zm7.517167 4.343475c-.02649-.046097-.086533-.062149-.132599-.035759l-.973023.56237c.033066.055573.065613.111702.097305.168267l.972779-.562302c.046066-.026573.062042-.08667.035538-.132576zm-3.177109-3.17971c-.045929-.026581-.105973-.010346-.132477.035568l-.561722.97374c.056336.031524.112427.064125.168015.097328l.561844-.973931c.026382-.045906.010406-.106193-.03566-.132705zm-11.856858 3.17971c-.026748.046082-.010513.106186.035355.132706l.972962.562172c.031692-.056374.064071-.112511.097061-.168267l-.972962-.561988c-.04599-.026772-.106109-.010544-.132416.035377zm3.176804-3.179519c-.0457.026512-.062042.086608-.035355.132705l.561722.97374c.055542-.033028.111618-.065613.168015-.097328l-.561585-.973565c-.026687-.046089-.086746-.062141-.132797-.035552z" fill="#949494" fill-rule="evenodd"/><path d="m247.514145 88.684372c.205704.025589-.061234 3.545555-.281983 5.327743-.220687 1.782197-.311813 1.151543-.517532 1.12603-.205521-.025528-.447754.563843-.227005-1.218345.220886-1.782196.820801-5.260773 1.02652-5.235428z" fill="#a12800" fill-rule="evenodd"/><path d="m246.615891 94.46109c.658798 0 1.21669.43277 1.405258 1.029877h-2.810501c.188369-.597107.746444-1.029877 1.405243-1.029877z" fill="#7b8287" fill-rule="evenodd"/><path d="m248.021149 95.490967c.044387.140396.068222.289833.068222.444778h-2.946945c0-.154945.023834-.304382.068222-.444778z" fill="#485259" fill-rule="evenodd"/><path d="m233.487427 97.322914h8.275146c1.627243 0 2.954621 1.328385 2.954621 2.956795v19.133758c0 .840836-.380722 1.563858-1.073746 2.039307-.693024.475189-1.504181.570099-2.287659.266892-8.897842-3.442826-13.385361-11.155701-11.789444-21.0551.312988-1.941292 1.956146-3.341652 3.921082-3.341652zm26.256805 0c-2.758514 0-5.516891 0-8.275268 0-1.627365 0-2.954499 1.328385-2.954499 2.956795v19.133758c0 .840836.380722 1.563858 1.073685 2.039307.692856.475189 1.504059.570099 2.287537.266892 8.898147-3.442826 13.385666-11.155701 11.789627-21.0551-.312989-1.941353-1.956208-3.341652-3.921082-3.341652z" fill="#738b9e" fill-rule="evenodd"/><path d="m246.602219 88.802956c.109939 0 .195678.039398.257766.118019.073731.093002.110566.247635.110566.463363 0 .215355-.03714.37011-.111435.464287-.061524.077698-.146958.116417-.256897.116417-.11026 0-.199341-.042442-.267136-.127571-.067337-.08519-.101395-.237106-.101395-.455307 0-.214241.037339-.368698.11142-.462677.061737-.07782.147156-.116531.257111-.116531zm0 .180656c-.025879 0-.049225.008293-.069214.025337-.020371.016724-.036225.046784-.047425.090332-.014679.056321-.022033.151482-.022033.285057 0 .133568.006683.225396.019684.275322.013366.049874.03009.083275.050079.099999.019989.01654.04303.024711.068909.024711s.049026-.008361.069381-.025398c.020188-.016662.035904-.046768.047058-.090332.014847-.055939.022217-.150734.022217-.284302 0-.133575-.006683-.225273-.019867-.2752-.013183-.050071-.029892-.083465-.049896-.100189-.020004-.017044-.043014-.025337-.068893-.025337z" fill="#666" fill-rule="evenodd"/><path d="m249.459396 90.755272-.197723-.090019.339981-.747986c-.10289.035072-.210846.0466-.323761.034386l.082077-.180291c.059433.006508.129761 0 .211716-.020073.082092-.019508.14833-.055763.199585-.108177l.160202.072807zm1.103394-.75219c-.100037-.04541-.194-.04541-.282044-.00032-.10646.055084-.204284.180168-.2928.37532-.090271.198693-.122452.350983-.095963.456497.02626.105385.089767.181023.19017.226746.09993.045418.193894.045609.282166.000305.106491-.055061.204285-.180656.293442-.376678.089141-.196343.119476-.35228.090759-.467446-.023911-.097396-.085816-.168838-.18573-.214424zm-.074646.164604c.023514.01072.040848.028069.052124.051796.011383.023362.012741.060776.004074.111893-.008652.050743-.040604.137039-.095825.258415-.055222.121926-.101288.205071-.137802.249794-.02797.035073-.054856.055962-.080109.062767-.025497.006997-.05014.005021-.073654-.005638-.023529-.010711-.041123-.027748-.052384-.051109-.011505-.023537-.012878-.060783-.004333-.111519.008789-.051109.040741-.137291.095947-.258972.055237-.121552.101288-.205193.137924-.250305.028244-.035057.0551-.055939.080353-.062622.025391-.007134.050156-.005158.073685.0055z" fill="#666" fill-rule="evenodd"/><path d="m252.062393 92.956223-.165542.114357-.433075-.627419c.067596-.036728.14125-.057487.220977-.06263.079636-.004829.200715.010537.362915.046219.130982.028748.21605.042748.255417.042435.053849-.000984.098923-.013687.135071-.038719.040115-.027748.063385-.059471.069946-.095833.006821-.036255-.002838-.073181-.028839-.110916-.025757-.037354-.057586-.059098-.095459-.065789-.037521-.006317-.083572.006882-.13829.039589l-.105621-.1912c.105987-.057426.199707-.073097.281677-.046699.081344.026512.151291.081649.20935.165779.063523.092193.088532.181839.075165.269134-.01326.086991-.056961.156128-.131119.207237-.042221.029183-.087402.049256-.13594.060776-.048416.011154-.104752.014687-.169006.010849-.04271-.002357-.109696-.014183-.200684-.034881-.091141-.020882-.150192-.033089-.177673-.036118-.027359-.003662-.052506-.00415-.075043-.002296zm1.065521-.110848c-.062408-.090332-.143127-.138779-.241928-.145462-.119476-.0075-.267563.049622-.443741.17131-.179534.124093-.285141.23845-.316711.342293-.031448.104203-.015976.201729.046814.292557.0625.090446.142868.138702.241791.14521.119476.007691.267929-.049743.444977-.172104.177429-.122734.283523-.240951.318191-.354507.029343-.095848.013001-.188843-.049393-.279297zm-.148712.102661c-.014602-.021194-.034775-.035568-.060165-.042557-.025253-.007194-.059052-.003158-.101166.012513-.054703.019882-.137039.067779-.246857.143608-.109954.076141-.181518.133575-.215072.172973-.033554.039032-.051499.071755-.053848.097832-.002228.025894.004211.049446.018814.070809.014724.021316.034912.035697.060302.042747.025132.007004.058808.002983.101029-.012695.054214-.019387.136444-.067276.246368-.143311.109833-.075752.181397-.133377.214951-.172592.033554-.039413.051758-.072121.054092-.098198.002472-.026024-.003708-.049751-.018448-.071129z" fill="#666" fill-rule="evenodd"/><path d="m240.941086 93.594536-.12262.179291-.677872-.464165c.016831.107567.009644.216102-.02185.325142l-.163498-.112076c.016846-.057251.022537-.127869.017151-.212006-.005142-.084205-.029526-.155944-.072373-.215416l.099427-.145408zm.448074-.655487-.941269-.644821-.099426.145599c.042709.05941.067047.131035.072067.215347.005692.084015-.00032.154648-.017029.212075l.163498.111839c.031372-.109177.038742-.217346.022034-.324906l.677673.463982zm-.549835-1.217537c.062027-.09082.143112-.139389.243027-.146271.118301-.008362.266754.048447.44461.170319.177536.121559.284272.239761.319992.354324.029206.09465.013001.187279-.049041.277802-.062394.091133-.147828.140762-.255906.148628-.108459.007675-.252944-.050118-.432968-.173477-.176681-.121056-.282913-.238961-.318618-.353333-.029221-.094665-.013016-.187347.048904-.277992zm.149124.101982c.014664-.021309.034668-.035553.05986-.042557.025071-.007194.062287-.001983.11081.015366.048538.017341.12796.063614.238083.138893.11026.075653.184173.135246.221878.178986.029724.033775.045684.063819.048034.089851.002365.026382-.003647.050423-.01831.0718-.014557.02137-.034424.035744-.059449.042748-.024993.00737-.061904.002166-.110443-.015061-.048721-.017349-.128128-.063751-.238205-.139206-.110122-.07534-.184524-.135261-.222549-.179359-.029709-.033707-.045563-.063759-.047913-.089775-.002472-.02639.00354-.050308.018204-.071686z" fill="#666" fill-rule="evenodd"/><path d="m243.095886 91.071671-.177536.12471-.471786-.672882c-.022034.106567-.066925.205566-.134461.296699l-.113785-.162262c.035737-.047768.066056-.111885.090455-.19268.024643-.080658.026992-.156311.007797-.227059l.14418-.101181zm.752396-.774369-.354035.248558c-.001983-.022491-.001663-.047577.001679-.075279.003021-.027374.014725-.08667.034912-.177986.020004-.091141.031326-.158302.033371-.200989.003464-.064491-.000549-.120743-.012192-.169006-.011703-.048569-.032074-.093674-.061416-.135559-.051697-.073784-.121094-.117218-.208191-.129921-.087296-.012703-.176667.013008-.268296.077324-.083755.058799-.13829.129051-.164169.210891-.02568.081971-.009354.175644.048721.281342l.190232-.107063c-.033066-.054589-.046738-.100495-.040421-.138222.006378-.037918.027741-.069817.065064-.095841.037384-.02639.074096-.03643.110504-.029869.036331.006508.068329.029496.096069.069268.025314.036056.038498.081161.040054.135063.000306.039284-.013061.124718-.040741.255813-.034362.162629-.049026.283997-.043502.36361.005615.079681.026855.153465.064178.220749l.623825-.437958zm-.118424-1.065445c.08989-.063247.182816-.080291.278778-.051414.113572.033699.232697.139091.356507.315719.123428.176323.181869.324273.175186.444153-.005875.098816-.053558.179795-.143494.243103-.090439.063446-.187698.079621-.291763.048889-.104309-.030853-.219086-.135734-.344376-.314537-.12294-.17546-.181015-.323097-.174316-.442787.005676-.099006.053528-.179992.143478-.243126zm.10376.14814c.020981-.015053.044693-.02137.070892-.019081.026047.002167.05893.020073.098298.053467.039505.033203.097564.104515.174133.213684.076767.109535.125122.191376.145172.245644.015854.042076.020187.075775.013306.100982-.006989.025536-.021164.045731-.042343.060601-.021164.014869-.044693.02137-.070572.019394-.026184-.002167-.058869-.019883-.098236-.053101-.039383-.033386-.097443-.104706-.17421-.214058-.076752-.109344-.125107-.191483-.145462-.245949-.015854-.042068-.020187-.075775-.013016-.101173.006699-.025337.020859-.045731.042038-.06041z" fill="#666" fill-rule="evenodd"/><path d="m234.852448 8.585785h6.8553c1.06009 0 1.919449.860062 1.919449 1.92099v45.281006c0 1.060936-.859359 1.920982-1.919449 1.920982h-6.8553c-1.06009 0-1.919449-.860046-1.919449-1.920982v-45.281006c0-1.060928.859359-1.92099 1.919449-1.92099z" fill="#555753" filter="url(#l)"/><path d="m233.989182 8.007813h6.855209c1.060074 0 1.919418.860031 1.919418 1.920959v45.280708c0 1.060913-.859344 1.920952-1.919418 1.920952h-6.855209c-1.060059 0-1.919419-.860039-1.919419-1.920952v-45.280708c0-1.060928.85936-1.920959 1.919419-1.920959z" fill="#9faaaa"/><path d="m231.925812 14.877884v-4.873062c0-1.064209.869491-1.918656 1.932846-1.918656h6.854263c1.063355 0 1.917496.854447 1.917496 1.918625v4.873078c-.023041.000763-.044144 0-.067185 0h-10.63742z" fill="url(#m)"/><path d="m242.223495 50.17733v4.873459c0 1.064209-.871414 1.919029-1.934768 1.919029h-6.854248c-1.06337 0-1.915589-.85482-1.915589-1.919029v-4.873459c.021119 0 .044144-9.779572.067185-9.779572z" fill="url(#n)"/><path d="m238.483505 13.772675c.000016.639419-.517929 1.157775-1.156845 1.157775-.638916.000016-1.15686-.518341-1.156875-1.15776 0-.63942.517929-1.157776 1.156845-1.157791.638916 0 1.156875.518356 1.156875 1.157776z" fill="url(#p)" stroke="url(#q)" stroke-linecap="round" stroke-linejoin="bevel" stroke-width=".076207"/><path d="m238.293625 14.037033c-.155441.537811-.717072.847687-1.254456.692123-.537368-.155563-.847-.717651-.691559-1.255462.155442-.537811.717087-.847672 1.254456-.692108.537384.155563.847.717651.691559 1.255447z" fill="#899797"/><path d="m237.59549 12.787201-.554551 1.918716c-.003509.012131.020676.01474.018418.031601.084762.024536.16571.030457.250259.033051l.544052-1.88237c-.072464-.042862-.148392-.069214-.232742-.093628z" fill="#d3d7cf"/><path d="m237.631409 12.797607c-.077484-.022445-.156952-.041061-.234238-.041549l-.544052 1.88237c.073685.043213.155792.084488.24176.109375.002655-.016739-.02153-.019364-.01802-.031479z" fill="url(#s)"/><path d="m237.321106 33.010147c-.785111-.002563-1.422562.767914-1.421219 1.717072-.000046.518051.189362.984848.488052 1.302276l-.559433 3.845345 2.993409-.001068-.558564-3.850663c.294693-.320427.479538-.778739.480744-1.29647-.000763-.94899-.636215-1.719681-1.422989-1.716492z" fill="#353439" stroke="url(#t)" stroke-linecap="round" stroke-linejoin="bevel" stroke-width=".055866"/><path d="m238.484192 51.614975c0 .639427-.517929 1.157783-1.156845 1.157791-.638916 0-1.156876-.518341-1.156876-1.157768-.000015-.63942.517929-1.157776 1.156845-1.157784.638916-.000007 1.156861.518341 1.156876 1.157761z" fill="url(#u)" stroke="url(#v)" stroke-linecap="round" stroke-linejoin="bevel" stroke-width=".076207"/><path d="m238.294312 51.879349c-.155442.537811-.717087.847679-1.254456.692116-.537384-.155564-.847-.717652-.691559-1.255463s.717072-.847672 1.254456-.692108c.537368.155563.847.717643.691559 1.255455z" fill="#899797"/><path d="m237.596176 50.629517-.554565 1.918716c-.003495.012116.020675.014732.018432.031593.084763.024536.165711.030465.25026.033051l.544037-1.882362c-.072464-.042862-.148377-.069222-.232743-.093636z" fill="#d3d7cf"/><path d="m237.632095 50.639915c-.077499-.022438-.156967-.041069-.234237-.041549l-.544052 1.882362c.073669.043213.155777.084496.241745.109383.002655-.016747-.021515-.019364-.018006-.031479z" fill="url(#w)"/><path d="m239.667801 8.391006c.222595 0 .429993.048508.628158.118607 1.005997.059296 1.798111.867935 1.798111 1.886826v44.928299c0 .857162-.562454 1.557983-1.340438 1.800582 1.063552 0 1.917541-.846389 1.917541-1.903007v-44.928307c0-1.056625-.853989-1.903-1.917541-1.903z" fill="#eeeeec" filter="url(#x)"/><path d="m235.070129 8.483063c-.22258 0-.429977.048416-.628143.118362-1.005997.059189-1.798111.866211-1.798111 1.883072v44.838646c0 .855446.562454 1.554871 1.340439 1.796982-1.063553 0-1.917542-.844696-1.917542-1.899208v-44.838639c0-1.054519.853989-1.899215 1.917542-1.899215z" fill="#eeeeec" filter="url(#y)"/><path d="m234.64859 27.195236 1.927307 4.080506 5.461655 1.233383 1.183548.755234 14.723663 2.531982.048859-3.265488-14.473923-2.140762-1.579864-.787842c-3.637482-.896515-.988099-.347732-3.01857-.755249l-1.080384-1.760422z" fill="#555753" filter="url(#z)" opacity=".39085"/><path d="m234.553497 22.768402v4.329636h27.146363v-4.278733c0-.017288-.001923-.033996 0-.050903z" fill="#9faaaa"/><path d="m234.451767 22.768402v4.329636h27.248093v-4.278733c0-.017288-.001923-.033996 0-.050903z" fill="url(#A)"/><g fill-rule="evenodd"><path d="m33.68655 61.50132h11.980244v-15.941002h-11.980244z" fill="#4d4441"/><path d="m33.68668 48.645218 11.980114-1.500435v2.450691l-11.980114 1.500366z" fill="#7d6f6a"/><path d="m33.68668 53.116203c3.993431-.500122 7.986812-1.00029 11.980114-1.500427v2.450707c-3.993302.500175-7.986683 1.000297-11.980114 1.50035 0-.816795 0-1.633651 0-2.45063z" fill="#7d6f6a"/><path d="m33.68668 57.586861 11.980114-1.500344v2.450615l-11.980114 1.500481z" fill="#7d6f6a"/><path d="m36.66898 63.742188h6.015514l2.9823-2.240868h-11.980114z" fill="#4d4c50"/><path d="m39.67667 8.007813c9.148205 0 16.564156 7.421997 16.564156 16.577377 0 5.653183-2.827732 10.644852-7.144543 13.636902-2.215168 1.535232-3.429359 3.854705-3.429359 6.551445v.786781h-11.980244v-.786781c0-2.696869-1.214199-5.016075-3.429489-6.551445-4.316902-2.99205-7.144553-7.983719-7.144553-13.636902 0-9.15538 7.415949-16.577377 16.564032-16.577377z" fill="#ffdd30"/><path d="m41.039459 45.560318v-15.993225h-2.725311v15.993225h-1.829697v-15.993225h-2.31129c-1.14346 0-2.178725-.463928-2.928046-1.213837-.749317-.749908-1.212852-1.786133-1.212852-2.930359 0-1.144378.463535-2.180465 1.212852-2.930389.749321-.749924 1.784586-1.213821 2.928046-1.213821 1.143444 0 2.178802.463897 2.928119 1.213821.749359.749924 1.212868 1.786133 1.212868 2.930389v2.313004h2.725311v-2.313004c0-1.144256.463539-2.180465 1.212857-2.930389.749317-.749924 1.784717-1.213821 2.928169-1.213821 1.143406 0 2.178676.463897 2.92799 1.213821.749363.749924 1.212871 1.786011 1.212871 2.930389 0 1.144226-.463508 2.180451-1.212871 2.930359-.749314.749909-1.784584 1.213837-2.92799 1.213837h-2.311302v15.993225zm1.829724-20.137421v2.313004h2.311302c.638298 0 1.216129-.258927 1.634273-.677399.418141-.418518.676903-.996902.676903-1.635605 0-.638855-.258762-1.217132-.676903-1.635635-.418144-.418488-.995975-.677399-1.634273-.677399-.638344 0-1.216305.258911-1.634453.677399-.418144.418503-.676849.996902-.676849 1.635635zm-8.696022 2.313004h2.31129v-2.313004c0-.638733-.258747-1.217132-.676891-1.635635-.418144-.418488-.996109-.677399-1.634399-.677399-.638348 0-1.216179.258911-1.634327.677399-.418141.418503-.676846.99678-.676846 1.635635 0 .638703.258705 1.217087.676846 1.635605.418148.418472.995979.677399 1.634327.677399z" fill="#fff"/><path d="m56.057793 123.918854c18.099075 0 32.860656-.254662 32.860656-.566986 0-.312317-14.761581-.567246-32.860656-.567246-18.099522 0-32.861166.254929-32.861166.567246 0 .312324 14.761644.566986 32.861166.566986z" fill="#2c2c2c"/><path d="m72.470779 76.316933h2.597138v.508018h-2.3433v1.714638h7.573395v-1.714638h-2.678169v-.508018h3.185844v2.730796h-8.588509v-2.730796z" fill="#2c2c2c"/><path d="m58.64666 76.316933h2.596763v.508018c-.781059 0-1.561851 0-2.342987 0v1.714638h7.573342c0-.57151 0-1.143013 0-1.714638-.892769 0-1.785774 0-2.678166 0 0-.169327 0-.338661 0-.508018h3.185971v2.730796c-2.863007 0-5.726136 0-8.588883 0 0-.910316 0-1.820602 0-2.730796z" fill="#2c2c2c"/><path d="m44.822113 76.316933h2.597137v.508018c-.781181 0-1.562236 0-2.343231 0v1.714638h7.573204c0-.57151 0-1.143013 0-1.714638-.892761 0-1.785343 0-2.678104 0 0-.169327 0-.338661 0-.508018h3.185852v2.730796c-2.862942 0-5.725693 0-8.588455 0 0-.910316 0-1.820602 0-2.730796z" fill="#2c2c2c"/><path d="m30.997944 76.316933h2.597137v.508018h-2.343361v1.714638h7.573014v-1.714638h-2.677914v-.508018h3.185597v2.730796h-8.588379v-2.730796z" fill="#2c2c2c"/><path d="m44.296837 82.488663h41.614601v34.693092c0 1.794472-1.467453 3.263222-3.260742 3.263222h-35.093128c-1.793042 0-3.260731-1.468498-3.260731-3.263222z" fill="#b5b4b7"/><path d="m85.911438 117.181755c0 1.794472-1.467453 3.263222-3.26049 3.263222h-35.09338c-1.793042 0-3.260731-1.468498-3.260731-3.263222z" fill="#a7a6aa"/><path d="m46.507137 77.682388h39.404301c1.320541 0 2.401398 1.081284 2.401398 2.403145 0 1.321861-1.080857 2.40313-2.401398 2.40313h-39.404301c-1.320537 0-2.401088-1.081269-2.401088-2.40313 0-1.321861 1.080551-2.403145 2.401088-2.403145z" fill="#464546"/><path d="m25.597778 77.682388h25.305931c1.320927 0 2.401398 1.081284 2.401398 2.403145 0 1.321861-1.080471 2.40313-2.401398 2.40313h-25.305931c-1.320732 0-2.401275-1.081269-2.401275-2.40313 0-1.321861 1.080543-2.403145 2.401275-2.403145z" fill="#2c2c2c"/><path d="m25.597778 82.488663h25.305931v34.693092c0 1.794472-1.467063 3.263222-3.260673 3.263222h-18.784454c-1.793293 0-3.260804-1.468498-3.260804-3.263222z" fill="#979799"/><path d="m28.858582 123.351868h53.792366v-2.906891h-53.792366z" fill="#2c2c2c"/><path d="m47.643036 123.351868h35.007912v-2.906891h-35.007912z" fill="#464546"/><path d="m25.597778 84.062805h25.305931v-1.574142h-25.305931z" fill="#828284"/><path d="m50.903709 89.172249h35.007729v-6.683647h-35.007729z" fill="#e4e2e2"/><path d="m50.903709 84.062805h35.007729v-1.574142h-35.007729z" fill="#cfcecf"/><path d="m54.713326 91.462776h27.29219c.774674 0 1.408089.63411 1.408089 1.409264v18.763496c0 .775292-.633415 1.409325-1.408089 1.409325h-27.29219c-.774735 0-1.408219-.634033-1.408219-1.409325v-18.763496c0-.775154.633484-1.409264 1.408219-1.409264z" fill="#464546"/><path d="m80.47171 91.462776h1.533806c.774674 0 1.408089.63411 1.408089 1.409264v18.763496c0 .775292-.633415 1.409325-1.408089 1.409325h-1.533806c.774285 0 1.408333-.634033 1.408333-1.409325v-18.763496c0-.775154-.634048-1.409264-1.408333-1.409264z" fill="#636162"/><path d="m54.713326 115.952026h47.704879v-2.907165h-47.704879z" fill="#636162"/><path d="m74.030884 113.044861h1.760612v2.907165h-1.760612zm-4.378906 0h2.860618v2.907165h-2.860618z" fill="#7d7d7e"/><path d="m53.305107 109.734421h28.476586v-.720482h-28.476586z" fill="#636162"/><path d="m73.192848 109.013939h1.812706v.720482h-1.812706zm-4.50814 0h2.945152v.720482h-2.945152z" fill="#7d7d7e"/><path d="m59.850121 84.767967c.793827.27372 1.364067 1.028092 1.364067 1.915787 0 .887604-.57024 1.641884-1.364067 1.915741v.110283h-.418072c-1.118366 0-2.024719-.907128-2.024719-2.026024 0-1.119186.906353-2.026329 2.024719-2.026329h.418072z" fill="#2c2c2c"/><path d="m59.850311 88.709778c1.114918 0 2.024399-.910072 2.024399-2.026024 0-1.115997-.909481-2.026329-2.024399-2.026329-1.115169 0-2.024654.910332-2.024654 2.026329 0 1.115952.909485 2.026024 2.024654 2.026024z" fill="#464546"/><path d="m59.635544 84.316223h.654884c.163296 0 .296803.133972.296803.297287v3.017182c0 .163299-.133507.297287-.296803.297287h-.654884z" fill="#636162"/><path d="m59.486961 84.316223h.296978c.163483 0 .297352.133721.297352.297287v3.017182c0 .163436-.133869.297287-.297352.297287h-.296978z" fill="#2c2c2c"/><path d="m66.488297 84.767967c.794082.27372 1.364509 1.028092 1.364509 1.915787 0 .887604-.570427 1.641884-1.364509 1.915741v.110283c-.139123 0-.278756 0-.418007 0-1.118065 0-2.02459-.907128-2.02459-2.026024 0-1.119186.906525-2.026329 2.02459-2.026329h.418007z" fill="#2c2c2c"/><path d="m66.488297 84.657425c1.118431 0 2.024719.907143 2.024719 2.026329 0 1.118896-.906288 2.026024-2.024719 2.026024-1.118042 0-2.024338-.907128-2.024338-2.026024 0-1.119186.906296-2.026329 2.024338-2.026329z" fill="#464546"/><path d="m66.274025 84.316223h.654839c.163551 0 .297042.133972.297042.297287v3.017182c0 .163299-.133751.297287-.297042.297287-.2184 0-.436814 0-.654839 0 0-1.204056 0-2.407837 0-3.611756z" fill="#636162"/><path d="m66.125389 84.316223h.297165c.1633 0 .297043.133721.297043.297287v3.017182c0 .163436-.133743.297287-.297043.297287-.099182 0-.19799 0-.297165 0 0-1.204056 0-2.407837 0-3.611756z" fill="#2c2c2c"/><path d="m73.126732 84.767967c.794075.27372 1.36438 1.028092 1.36438 1.915787 0 .887604-.570305 1.641884-1.36438 1.915741v.110283c-.139145 0-.278763 0-.418022 0-1.11805 0-2.024712-.907128-2.024712-2.026024 0-1.119186.906662-2.026329 2.024712-2.026329h.418022z" fill="#2c2c2c"/><path d="m73.126732 84.657425c1.118294 0 2.024589.907143 2.024589 2.026329 0 1.118896-.906295 2.026024-2.024589 2.026024-1.11805 0-2.024338-.907128-2.024338-2.026024 0-1.119186.906288-2.026329 2.024338-2.026329z" fill="#464546"/><path d="m72.912086 84.316223h.654953c.163292 0 .296914.133972.296914.297287v3.017182c0 .163299-.133866.297287-.296914.297287-.218276 0-.436553 0-.654953 0 0-1.204056 0-2.407837 0-3.611756z" fill="#636162"/><path d="m72.763809 84.316223h.297043c.163437 0 .297173.133721.297173.297287v3.017182c0 .163436-.133736.297287-.297173.297287-.098808 0-.197983 0-.297043 0 0-1.204056 0-2.407837 0-3.611756z" fill="#2c2c2c"/><path d="m79.765282 84.767967c.79396.27372 1.364128 1.028092 1.364128 1.915787 0 .887604-.570168 1.641884-1.364128 1.915741v.110283h-.418145c-1.118301 0-2.024459-.907128-2.024459-2.026024 0-1.119186.906158-2.026329 2.024459-2.026329h.418145z" fill="#2c2c2c"/><path d="m79.765282 88.709778c1.114921 0 2.024467-.910072 2.024467-2.026024 0-1.115997-.909546-2.026329-2.024467-2.026329-1.115166 0-2.024582.910332-2.024582 2.026329 0 1.115952.909416 2.026024 2.024582 2.026024z" fill="#464546"/><path d="m79.550766 84.316223h.654701c.163552 0 .297173.133972.297173.297287v3.017182c0 .163299-.133881.297287-.297173.297287h-.654701z" fill="#636162"/><path d="m79.401993 84.316223h.29705c.163666 0 .297287.133721.297287.297287v3.017182c0 .163436-.133621.297287-.297287.297287h-.29705z" fill="#2c2c2c"/><path d="m25.597778 117.181755h25.305931v-28.009506h-25.305931z" fill="#636162"/><path d="m54.959366 108.836327h23.667946v-.789505h-23.667946z" fill="#fffffe"/><path d="m66.903931 99.467972c4.191505-.407578 7.589592 2.245605 7.589592 5.925979 0 .234574-.013993.467659-.0411.698731l-15.097069 1.467834c-.026893-.225906-.040889-.4561-.040889-.690857 0-3.680358 3.397956-6.994072 7.589466-7.401687z" fill="#af642f"/><path d="m74.20517 103.596481c.18769.56192.288353 1.164383.288353 1.79747 0 .234574-.013993.467835-.0411.698731l-15.097069 1.467834c-.026893-.225906-.040889-.4561-.040889-.690857 0-1.025299.26395-2.022232.735084-2.935676 1.481842 1.090599 4.006222 1.808853 6.871784 1.808853 3.151635 0 5.8909-.868713 7.283837-2.146355z" fill="#924e2a"/><path d="m56.537376 106.088737h20.733193c.156296 0 .284065.127884.284065.284295 0 .156234-.127769.284027-.284065.284027h-20.733193c-.156204 0-.283973-.127793-.283973-.284027 0-.156411.127769-.284295.283973-.284295z" fill="#fffffe"/><path d="m56.758251 106.657059h10.03513 10.035179l-2.997788 1.389938h-7.037391-7.037125z" fill="#f0e8e2"/><path d="m73.653313 98.719383-2.039078 2.130738-1.130829-1.084298 2.038994-2.130508c-.360413-.345558-.372925-.918427-.027458-1.279259.345459-.360832.917602-.373176 1.278282-.027527.241562.231636.326736.565163.252838.868538.299629-.08696.636528-.016014.877983.215615.360687.34552.373016.918388.027557 1.279136-.345199.36097-.917701.373307-1.278289.027565z" fill="#fffffe"/><path d="m71.991966 99.404251c.968949.928925.908776 2.565872-.134598 3.656128-1.043373 1.090233-2.674903 1.220741-3.643936.291901-.969032-.929108-.908859-2.565873.134514-3.656128 1.043373-1.090019 2.674729-1.220742 3.64402-.291901z" fill="#c3712f"/><path d="m194.093689 152.806427c0 1.21608.98584 2.20192 2.201935 2.20192h2.199295c1.216095 0 2.201935-.98584 2.201935-2.20192v-2.047226c0-1.216095-.98584-2.201935-2.201935-2.201935h-2.199295c-1.216095 0-2.201935.98584-2.201935 2.201935z"/><path d="m223.965103 152.649078c0 1.216095.98584 2.201935 2.201935 2.201935h2.199295c1.21608 0 2.20192-.98584 2.20192-2.201935v-2.047226c0-1.216095-.98584-2.201934-2.20192-2.201934h-2.199295c-1.216095 0-2.201935.985839-2.201935 2.201934z"/><path d="m236.903351 147.878998c0 3.426666-10.866913 6.205154-24.271881 6.205154-13.405152 0-24.271881-2.778488-24.271881-6.205154v-6.2052h24.271881 24.271881z" fill="#333"/><path d="m237.9086 145.747253c0 3.569123-11.31691 6.462021-25.27713 6.462021-13.960404 0-25.277466-2.892898-25.277466-6.462021v-6.46199h25.277466 25.27713z" fill="#027ca8"/><path d="m212.63147 145.747253c13.922134 0 25.277496-2.902954 25.277496-6.462356 0-3.559021-11.355362-6.461975-25.277496-6.461975-13.922303 0-25.277268 2.902954-25.277268 6.461975 0 3.559402 11.354965 6.462356 25.277268 6.462356z" fill="#07a1d9"/></g><path d="m196.294739 142.477127 30.971939.157333-3.301575-4.24826-22.324951-.314697z" fill="none" opacity=".477557" stroke="#fff" stroke-width=".186908"/><path d="m218.233582 134.449417c0 .929779-2.948105 1.683396-6.584824 1.683396-3.63678 0-6.58493-.753617-6.58493-1.683396v-1.68338h6.58493 6.584824z" fill="#027ca8" fill-rule="evenodd"/><path d="m211.648758 134.449417c3.626785 0 6.58493-.756241 6.58493-1.683487 0-.927139-2.958145-1.68338-6.58493-1.68338-3.626846 0-6.584885.756241-6.584885 1.68338 0 .927246 2.958039 1.683487 6.584885 1.683487z" fill="#07a1d9" fill-rule="evenodd"/></svg>