<svg height="164" viewBox="0 0 300 164" width="300" xmlns="http://www.w3.org/2000/svg" xmlns:xlink="http://www.w3.org/1999/xlink"><radialGradient id="a" cx="31.350314" cy="78.098154" gradientUnits="userSpaceOnUse" r="13.478641"><stop offset=".00001" stop-color="#ff7020"/><stop offset=".27586" stop-color="#df0000"/><stop offset=".34561" stop-color="#b10000"/><stop offset=".52103" stop-color="#5b0000"/><stop offset=".70899" stop-color="#1e0000"/><stop offset="1"/></radialGradient><linearGradient id="b" gradientUnits="userSpaceOnUse" x1="30.777518" x2="30.777518" y1="77.178045" y2="64.951777"><stop offset=".00001" stop-color="#e6e6e6"/><stop offset=".5918" stop-color="#e7e7e7"/><stop offset=".8047" stop-color="#eee"/><stop offset=".9562" stop-color="#fafafa"/><stop offset="1" stop-color="#fff"/></linearGradient><linearGradient id="c" gradientUnits="userSpaceOnUse" x1="31.212815" x2="31.212815" y1="92.593885" y2="63.978734"><stop offset=".00001" stop-color="#efefef"/><stop offset=".457" stop-color="#dadadb"/><stop offset="1" stop-color="#c5c5c7"/></linearGradient><linearGradient id="d" gradientUnits="userSpaceOnUse" x1="31.313435" x2="31.313435" y1="93.147506" y2="63.215539"><stop offset=".00001" stop-color="#59595b"/><stop offset=".2701" stop-color="#5c5c5e"/><stop offset=".4955" stop-color="#676769"/><stop offset=".7047" stop-color="#78787a"/><stop offset=".9031" stop-color="#909092"/><stop offset="1" stop-color="#9f9fa1"/></linearGradient><linearGradient id="e"><stop offset=".00001" stop-color="#fff"/><stop offset="1" stop-color="#fff" stop-opacity="0"/></linearGradient><linearGradient id="f" gradientUnits="userSpaceOnUse" x1="37.670848" x2="41.870052" xlink:href="#e" y1="68.065026" y2="72.628225"/><linearGradient id="g" gradientUnits="userSpaceOnUse" x1="23.68055" x2="20.576255" xlink:href="#e" y1="67.88584" y2="73.221226"/><linearGradient id="h"><stop offset=".00001" stop-color="#eee"/><stop offset="1" stop-color="#eee" stop-opacity="0"/></linearGradient><linearGradient id="i" gradientUnits="userSpaceOnUse" x1="24.034417" x2="22.591502" xlink:href="#h" y1="72.599608" y2="74.504528"/><linearGradient id="j" gradientUnits="userSpaceOnUse" x1="24.410548" x2="23.15173" xlink:href="#h" y1="71.571006" y2="74.274513"/><linearGradient id="k" gradientUnits="userSpaceOnUse" x1="38.726482" x2="39.9853" xlink:href="#h" y1="71.571006" y2="74.274513"/><filter id="l" color-interpolation-filters="sRGB" filterUnits="userSpaceOnUse" height="164" width="300" x="0" y="0"><feGaussianBlur stdDeviation=".415289"/></filter><linearGradient id="m" gradientUnits="userSpaceOnUse" x1="251.278609" x2="251.278609" y1="57.679125" y2="65.878146"><stop offset=".00001" stop-color="#eeeeec"/><stop offset="1" stop-color="#eeeeec" stop-opacity="0"/></linearGradient><linearGradient id="n" gradientUnits="userSpaceOnUse" x1="247.916352" x2="253.343261" y1="110.913213" y2="101.785073"><stop offset=".00001" stop-color="#888a85"/><stop offset="1" stop-color="#888a85" stop-opacity="0"/></linearGradient><linearGradient id="o"><stop offset=".00001" stop-color="#9faaaa"/><stop offset="1" stop-color="#424b4b"/></linearGradient><linearGradient id="p" gradientUnits="userSpaceOnUse" x1="253.2506" x2="249.871318" xlink:href="#o" y1="65.091517" y2="63.819103"/><linearGradient id="q" gradientUnits="userSpaceOnUse" x1="250.130627" x2="252.522587" xlink:href="#e" y1="64.773442" y2="64.773417"/><linearGradient id="r"><stop offset=".00001" stop-color="#2e3436"/><stop offset="1" stop-color="#e1deda"/></linearGradient><linearGradient id="s" gradientUnits="userSpaceOnUse" x1="251.313278" x2="251.615991" xlink:href="#r" y1="64.756078" y2="64.843709"/><linearGradient id="t" gradientUnits="userSpaceOnUse" x1="249.387479" x2="253.60674" xlink:href="#e" y1="87.070696" y2="88.292116"/><linearGradient id="u" gradientUnits="userSpaceOnUse" x1="253.251281" x2="249.871999" xlink:href="#o" y1="102.933826" y2="101.661412"/><linearGradient id="v" gradientUnits="userSpaceOnUse" x1="250.131308" x2="252.523267" xlink:href="#e" y1="102.615751" y2="102.615726"/><linearGradient id="w" gradientUnits="userSpaceOnUse" x1="251.313958" x2="251.616672" xlink:href="#r" y1="102.598387" y2="102.686018"/><filter id="x" color-interpolation-filters="sRGB" filterUnits="userSpaceOnUse" height="164" width="300" x="0" y="0"><feGaussianBlur stdDeviation=".31538"/></filter><filter id="y" color-interpolation-filters="sRGB" filterUnits="userSpaceOnUse" height="164" width="300" x="0" y="0"><feGaussianBlur stdDeviation=".315066"/></filter><filter id="z" color-interpolation-filters="sRGB" filterUnits="userSpaceOnUse" height="164" width="300" x="0" y="0"><feGaussianBlur stdDeviation=".169225"/></filter><linearGradient id="A" gradientUnits="userSpaceOnUse" x1="264.817322" x2="264.817322" y1="73.148472" y2="78.092881"><stop offset=".00001" stop-color="#9faaaa"/><stop offset=".3357" stop-color="#fffffa" stop-opacity=".82119"/><stop offset=".82331" stop-color="#9faaaa"/><stop offset="1" stop-color="#fff"/></linearGradient><g fill="#fff" fill-rule="evenodd" opacity=".496462"><path d="m40 77h207v-3h-207z"/><path d="m53.116371 25.049042 179.26725 103.5 1.5-2.598084-179.26725-103.5z"/><path d="m53.116371 125.950958 179.267265-103.5 1.5 2.598068-179.267265 103.500016z"/></g><path d="m182 75.480301c0 21.024666-17.03038 38.068787-38.038406 38.068787-21.008034 0-38.038407-17.044121-38.038407-38.068787 0-21.024918 17.030373-38.068871 38.038407-38.068871 21.008026 0 38.038406 17.043953 38.038406 38.068871z" fill="#7dafd2"/><path d="m146.246613 58.00666v15.159485h15.147445v4.628067h-15.147445v15.159561h-4.56868v-15.159561h-15.147438v-4.628067h15.147438v-15.159485z" fill="#fff"/><path d="m47.136337 77.980156c0 8.75666-7.029239 15.855164-15.700458 15.855164s-15.70046-7.098504-15.70046-15.855164c0-8.756661 7.029241-15.855156 15.70046-15.855156s15.700458 7.098495 15.700458 15.855156z"/><path d="m44.82851 78.098152c0 7.449959-6.034637 13.489411-13.478645 13.489411s-13.47864-6.039452-13.47864-13.489411c0-7.449951 6.034632-13.489403 13.47864-13.489403s13.478645 6.039452 13.478645 13.489403z" fill="url(#a)"/><path d="m46.950478 78.10009c0 8.621719-6.983792 15.611084-15.598629 15.611084-8.61484 0-15.598628-6.989365-15.598628-15.611084s6.983788-15.611084 15.598628-15.611084c8.614837 0 15.598629 6.989365 15.598629 15.611084z" fill="none" stroke="#000" stroke-opacity=".69792" stroke-width="1.480559"/><g opacity=".022221" stroke-width=".01"><path d="m40.781944 70.335289c-.00679-.044472-.013229-.08828-.019344-.131737-.12722-.955444-.629658-1.832451-1.308518-2.504036-.055976-.055351-.109581-.112388-.165218-.167053-.846454-.795517-1.889335-1.353027-2.971916-1.755028-1.447617-.531028-2.988197-.779907-4.526054-.821319-1.587397-.035652-3.182255.148033-4.712994.574478-1.633194.457008-3.22093 1.190056-4.496538 2.325439-.287693.260086-.551296.545632-.794213.847809-.206602.248879-.375894.526276-.532978.808426-.269712.492661-.426445 1.040665-.491247 1.597488.002041.125626.002718.251252.003397.377221-.017303.976829.430176 1.904762 1.043902 2.642562.218479.237336.437301.474328.688013.678727.372846.333763.796245.604362 1.227783.854934.528906.320183 1.107338.541222 1.681364.764283.339939.103218.677507.213226 1.02219.300148.301262.08522.613039.124954.91634.202697 2.078302.369416 4.22751.323243 6.290207-.122223.322971-.080474.652397-.137855.967563-.247863 1.528706-.434937 3.003468-1.128594 4.224461-2.157715.238834-.195908.431877-.440704.67173-.635262.047497-.064163.095669-.127998.146557-.189796.424076-.500809.760624-1.080383.963497-1.705803.164551-.494019.203907-1.01928.172016-1.536377z" fill="url(#b)" stroke="#e6e6e5"/><path d="m45.426403 76.728645c-.048847-.542228-.148258-1.079033-.266319-1.610054-.159451-.683815-.364365-1.35778-.623219-2.010696-.271747-.717095-.617111-1.40464-1.000477-2.068085-.321956-.539848-.669357-1.064758-1.057132-1.559456-.338242-.441726-.707016-.859359-1.097504-1.254905-.380306-.38469-.780636-.749009-1.201992-1.087853-1.809952-1.465752-3.989353-2.458877-6.272564-2.902305-2.245903-.431206-4.592892-.319161-6.783836.338508-2.074225.619644-4.006651 1.717003-5.593026 3.191925-.376241.341904-.728391.709953-1.066297 1.089554-.740597.848824-1.385872 1.782532-1.906637 2.782112-.099739.191147-.194056.385025-.28837.578896-.270729.576523-.503462 1.171379-.690733 1.780159-.28837.910286-.483105 1.849762-.586237 2.799087-.001019.010864-.003056.03225-.004074.043122-.079726.767341-.09906 1.541465-.050211 2.311859.006111.151771.01934.303199.033586.454971.058352.644424.162844 1.284782.3111 1.914948.048178.204399.102118.40744.155382.610816.237822.835923.548243 1.651139.931267 2.431038.07939.160942.161488.320855.246981.479081.334512.627784.717539 1.229431 1.141273 1.800865.679194.912315 1.466278 1.744507 2.342242 2.470085.434249.359558.889879.694 1.364841.998215 2.162779 1.391395 4.70451 2.184539 7.27372 2.274513 2.694057.096428 5.409149-.598587 7.727989-1.973351.582844-.344284 1.14127-.729988 1.669834-1.153038.227307-.181991.448498-.371795.665627-.566002.93568-.851883 1.762455-1.823616 2.443687-2.890419.078365-.12529.157074-.249893.233749-.376205.546547-.918083.995385-1.895592 1.322773-2.913162.305672-.922844.507531-1.878968.623559-2.84391l.002712-.027161c.107891-1.033875.122814-2.080307-.001694-3.113152zm-4.816463-4.856987c-.202877.62542-.539425 1.204995-.963498 1.705803-.050891.061798-.09906.125633-.146556.189797-.239861.194549-.432896.439354-.671734.635269-1.220993 1.029114-2.695755 1.722771-4.224457 2.157707-.31517.110008-.644592.167389-.967568.247864-2.062692.445457-4.211904.491638-6.290203.122223-.303304-.077744-.615078-.117478-.916339-.202698-.344687-.086922-.682251-.19693-1.022191-.30014-.574026-.223076-1.152464-.444107-1.681366-.76429-.431537-.250572-.854934-.521172-1.227783-.854935-.250711-.204399-.469534-.441391-.688015-.678719-.613723-.7378-1.061201-1.665733-1.043899-2.64257-.000679-.125969-.001358-.251587-.003395-.37722.064796-.556824.221534-1.104828.491245-1.597481.157082-.282158.326372-.559555.532978-.808433.242914-.302178.506519-.587723.794212-.847802 1.275612-1.135391 2.863344-1.868438 4.496542-2.325447 1.530739-.426445 3.125597-.610138 4.712988-.574478 1.537865.04142 3.078438.290291 4.526055.82132 1.08258.402008 2.125461.95951 2.971916 1.755027.055641.054665.109241.111702.165218.167054.67886.671592 1.181301 1.548599 1.308521 2.504036.006112.043457.012555.087257.019341.131736.031883.517105-.007473 1.042366-.172012 1.536377z" fill="url(#c)" stroke="#efefef"/></g><path d="m46.003208 75.394218c-.208732-1.134552-.563331-2.240882-1.02993-3.295181-.301319-.680519-.655922-1.336708-1.054748-1.964683-.784733-1.232651-1.749989-2.350113-2.857251-3.302941-.53281-.459724-1.098983-.880356-1.691539-1.259315-1.86353-1.193299-3.996315-1.958466-6.190659-2.236733-2.717577-.351776-5.528015.076622-8.022125 1.210907-1.751541.791313-3.34738 1.924042-4.674227 3.31511l.001551.003623c-.895172.931862-1.661793 1.986939-2.282023 3.120453-.431936.791054-.793264 1.620407-1.075703 2.476166-.001811.01062-.005432.031586-.006984.041939-.050696.113892-.080696.235557-.118201.354111-.33572 1.119011-.549102 2.277115-.613504 3.444008-.047073.75222-.038538 1.509361.03776 2.259513.049402.582672.136307 1.163536.264595 1.734307.149237.742904.374 1.469497.635231 2.180565l.004915.000259c.485733 1.293221 1.155365 2.517334 1.977596 3.626762.90836 1.227471 2.005534 2.315682 3.243147 3.209755 1.810772 1.312897 3.92235 2.202309 6.122383 2.596794 2.519715.459206 5.156342.250573 7.572342-.600273 1.936989-.677154 3.73172-1.757339 5.237038-3.152809.957504-.887337 1.79887-1.900482 2.491783-3.007332.463753-.736435.859734-1.515052 1.18692-2.32138.555828-1.375794.917157-2.83416 1.041821-4.31324.010609-.068077.017074-.136155.021728-.204491.098542-1.307449.028443-2.628632-.221916-3.915894zm-21.517694 14.725525c.161785.001946.323564.001412.485346.002335-.161782-.000923-.323565-.000389-.485346-.002335zm17.666212-10.749061-.002068.020714c-.088459.735649-.242351 1.464584-.475391 2.168136-.249592.77578-.591778 1.521012-1.008454 2.220947-.058456.096291-.118465.191292-.178207.286805-.51936.813316-1.149677 1.554145-1.863018 2.203605-.165535.148056-.334171.292755-.507462.431504-.402969.322525-.828701.616577-1.273048.879058-1.767841 1.048088-3.837772 1.577958-5.89167 1.504441-1.958716-.068596-3.896485-.673271-5.545344-1.73404-.362102-.231933-.709465-.486908-1.040527-.761024-.667818-.553169-1.267877-1.187614-1.785681-1.883148-.323047-.435646-.615057-.894326-.870083-1.372948-.065179-.120621-.127767-.242538-.188295-.365234-.292005-.594582-.528665-1.216088-.709978-1.853379-.040606-.155052-.08173-.309845-.11846-.465675-.113027-.480423-.192693-.96862-.237177-1.459915-.01086-.115708-.020948-.231156-.025606-.346863-.037243-.587334-.022503-1.177513.038281-1.76252.000774-.008285.002329-.024589.003105-.032875.078625-.723747.227087-1.439987.446936-2.133964.142772-.464127.320201-.917633.526601-1.357163.071902-.147804.143809-.295608.219847-.441337.397022-.762062.888964-1.473908 1.453583-2.121033.257614-.289398.526087-.569992.812927-.83065 1.209419-1.124459 2.682661-1.96106 4.264013-2.433465 1.67033-.501396 3.459633-.586814 5.171862-.258071 1.740673.338058 3.402206 1.095199 4.782082 2.212661.321231.258332.626434.53608.91637.829361.297703.30156.57885.61995.83672.956711.295631.377152.560482.777329.805934 1.188904.292271.505798.555569 1.029968.762745 1.57666.197346.49778.353566 1.011597.475129 1.532921.090011.404846.165794.814087.203037 1.22747.094925.78743.083545 1.585205.001297 2.373406z" fill="url(#d)" opacity=".237286" stroke="#59595b" stroke-width=".01"/><path d="m16.38945 78.541168-.016212.508675 3.885076.09993.011706-.429398z" fill="#00aeef"/><path d="m20.305115 77.784966-.015295.415023-3.873385-.309654.02422-.52121z" fill="#00aeef"/><path d="m20.42292 76.88118-.059408.398804-3.845476-.568055.079218-.529319z" fill="#00aeef"/><path d="m20.610006 75.990768-.082718.396119-3.795187-.854279.110724-.520386z" fill="#00aeef"/><path d="m20.861839 75.132896-.111459.381646-3.720482-1.146881.153825-.517617z" fill="#00aeef"/><path d="m21.180359 74.318161-.146641.359154-3.614374-1.463722.206974-.50692z" fill="#00aeef"/><path d="m21.563545 73.531364-.193441.341179-3.472147-1.789695.261783-.472626z" fill="#00aeef"/><path d="m22.00429 72.768799c-.011691-.007179-.203284.335838-.203284.335838l-3.312059-2.083206s.268043-.46904.279741-.459084z" fill="#00aeef"/><path d="m22.52335 72.046814-.229462.321442-3.138418-2.349701.312158-.433922z" fill="#00aeef"/><path d="m23.093607 71.374313-.266296.285408-2.944991-2.598152.360712-.395195z" fill="#00aeef"/><path d="m23.69363 70.731598c-.011705-.01355-.268974.282646-.268974.282646l-2.726507-2.839401s.360714-.396942.372411-.383492z" fill="#00aeef"/><path d="m24.372763 70.179688-.301392.247611-2.487188-3.061744.414676-.338509z" fill="#00aeef"/><path d="m25.076122 69.663918s-.336385.193496-.3292.2052l-2.230853-3.262436c-.008014-.011704.44711-.287247.44711-.287247z" fill="#00aeef"/><path d="m25.821861 69.205666-.330124.205291-1.961891-3.439895.453383-.275444z" fill="#00aeef"/><path d="m26.609875 68.823921-.359782.152199-1.68399-3.591995.484875-.209816z" fill="#00aeef"/><path d="m27.41493 68.477402-.358034.1557-1.399635-3.717094.486624-.204376z" fill="#00aeef"/><path d="m28.261442 68.240578-.377842.098999-1.114549-3.817017.507347-.137718z" fill="#00aeef"/><path d="m29.112366 68.017303c-.00276-.018898-.37876.096337-.37876.096337l-.823021-3.895386s.505513-.140396.510025-.121498z" fill="#00aeef"/><path d="m29.977667 67.920967-.38411.045075-.518951-3.949395.524389-.062133z" fill="#00aeef"/><path d="m30.843056 67.848976s-.096258-.005348-.193436-.011719c-.096258.012635-.191591.025269-.191591.025269l-.204216-3.980011s.130428-.014374.261783-.027924c.131354.004509.263537.009957.263537.009957z" fill="#00aeef"/><path d="m31.710192 67.892204-.385947-.017143.115136-3.983597.527162.025254z" fill="#ed1c24"/><path d="m32.575485 67.979507s-.383186-.089141-.38401-.068405l.434399-3.960182c.003589-.021568.517299.086479.517299.086479z" fill="#ed1c24"/><path d="m33.439034 68.148766-.384011-.073845.73127-3.913361.514538.101776z" fill="#ed1c24"/><path d="m34.282871 68.383743-.367069-.133209 1.022804-3.844955.498329.172851z" fill="#ed1c24"/><path d="m35.110397 68.673569-.368812-.12777 1.315079-3.749542.495655.177361z" fill="#ed1c24"/><path d="m35.87677 69.040924-.329208-.178284 1.617397-3.623428.482109.2547z" fill="#ed1c24"/><path d="m36.624344 69.428009-.333805-.16925 1.957367-3.442559.478615.261063z" fill="#ed1c24"/><path d="m37.448284 69.978081c.02248.00811-.36338-.249359-.36338-.249359l2.143535-3.322815.396725.270927z" fill="#ed1c24"/><path d="m38.068012 70.47229s-.085384-.071075-.169941-.143166c-.065677-.048576-.130432-.098083-.130432-.098083l2.444916-3.09687s.11689.093658.232952.186393c.091744.077439.183487.154778.183487.154778z" fill="#ed1c24"/><path d="m38.799381 71.136665s-.254596-.265594-.282505-.278122l2.539421-3.014915c-.015289-.028854.379597.366341.379597.365425z" fill="#ed1c24"/><path d="m39.36697 71.778557-.242893-.304306 2.792175-2.770912.344502.415023z" fill="#ed1c24"/><path d="m39.921947 72.454636-.248245-.299782 3.012512-2.516197.339985.419532z" fill="#ed1c24"/><path d="m40.411335 73.201889-.215916-.333992 3.202359-2.257881.288681.447464z" fill="#ed1c24"/><path d="m40.85384 73.97155-.169949-.353821 3.361523-1.999397.241058.484337z" fill="#ed1c24"/><path d="m41.236198 74.766457c.008103-.005349-.168197-.35463-.168197-.35463l3.514427-1.700638s.238377.487946.227612.4907z" fill="#ed1c24"/><path d="m41.54744 75.614471-.13945-.377128 3.633155-1.41256.182656.501488z" fill="#ed1c24"/><path d="m41.806454 76.494011-.110623-.39428 3.723156-1.142356.141205.507659z" fill="#ed1c24"/><path d="m42.014259 77.386177-.085476-.397873 3.78883-.881386.109799.517624z" fill="#ed1c24"/><path d="m42.130318 78.317062-.042271-.418609 3.837372-.629257.05582.514022z" fill="#ed1c24"/><path d="m42.219398 79.256889-.035102-.416771 3.86436-.415931.044034.518539z" fill="#ed1c24"/><g fill-rule="evenodd" opacity=".13508480158"><path d="m31.015305 65.472435c-1.575587-.0644-4.033736.205688-5.664702 1.23571.122437.517044.267288.959732.659329 1.723137 1.542671-.681633 2.949974-1.022568 4.746259-.976822 1.796322.045662 3.465512.6241 4.78682 1.1315.456295-.906295.551452-1.212692.72734-1.730629-1.878612-1.081932-3.566127-1.313774-5.255203-1.382858z" fill="#fff" fill-opacity=".70833"/><path d="m41.663773 72.1549c-.275635-1.162888-1.849366-2.820481-2.553387-3.263527-.311863.258407-.418465.445228-.80846.96746.823787.505608 2.150516 1.312844 2.718353 2.524979.473572-.16729.351856-.080986.643494-.228882z" fill="url(#f)"/><path d="m20.280647 73.640022c.058501-1.214248 1.637205-4.091598 2.21167-4.663795.331108.201401.460978.369232.908303.820427-.674693.656891-2.162531 2.422645-2.482329 3.739937-.464874-.080796-.343977.198272-.637644.103431z" fill="url(#g)"/><path d="m30.786766 69.170212c-.83268.022285-2.181913.356514-2.778646.568519.106081.509041.156465.779763.19477 1.101258.611983-.241745 1.803229-.599823 2.644724-.556114.867783.045066 1.883995.281684 2.406163.467086.10493-.467003.21405-.739242.359046-1.194381-1.161022-.261979-1.994678-.408577-2.826072-.38633z" fill="url(#i)" opacity=".38421"/><path d="m22.814066 72.768463c.42065-.621101.709053-.943886 1.365766-1.614586.261897.234123.943949.69381 1.324625 1.00016-.679061.559975-1.013757.781006-1.381876 1.168114-.395299-.148338-1.064611-.42102-1.308515-.55365z" fill="url(#j)" opacity=".38421"/><path d="m40.324524 72.768463c-.420651-.621101-.709053-.943886-1.365769-1.614586-.261894.234123-.943946.69381-1.324623 1.00016.679062.559975 1.01376.781006 1.381878 1.168114.395298-.148338 1.06461-.42102 1.308514-.55365z" fill="url(#k)" opacity=".38421"/></g><path d="m33.645683 77.506042c-.345245.491005-.634456.997147-.867649 1.518464-.184734.409164-.351299.909248-.499691 1.500274-.148392.591019-.222591 1.075951-.222591 1.454804h-1.344624c.03937-1.182038.427006-2.411034 1.162918-3.687035.475468-.791054.873703-1.342666 1.194718-1.654846h-3.284338l.018171-1.163849h4.651676v1.013825c-.193817.19094-.463348.530395-.80859 1.018363zm-5.751001 4.473542h-1.326456v-4.54628h-1.549046v-.881981c.408842-.018181.695027-.045464.858563-.081833.260446-.057587.472435-.172752.635971-.345512.112053-.118203.19685-.275811.254389-.472817.033313-.118202.04997-.2061.04997-.263687h1.076609z" fill="#fff" fill-rule="evenodd"/><path d="m37.02663 79.953522c-.09449 0-.176258.011818-.245304.035461-.121742.04364-.213504.124565-.275287.242767l-.69775-.03273.278011-2.184944h2.17775v.660118h-1.61628l-.141731.864708c.119926-.078201.213504-.130027.280738-.155487.112656-.041824.249844-.062736.411564-.062736.327073 0 .612347.110016.855835.330063.243489.220039.365231.540092.365231.960174 0 .365517-.117199.69194-.351601.979263-.234405.287331-.585094.430993-1.052078.430993-.376137 0-.685032-.10093-.926704-.302781-.241669-.201858-.37613-.488273-.403386-.859253h.774067c.030892.169121.089943.299599.177163.391434.087219.091835.214416.137757.381584.137757.192608 0 .339336-.067742.440181-.203217.10085-.135483.151272-.305969.151272-.511459 0-.201859-.047245-.372338-.141731-.51146-.094486-.139114-.241669-.208671-.441544-.208671zm-2.690162 1.151115h.825855v.812882h-.825855z" fill="#fff" fill-rule="evenodd"/><path d="m251.615891 41.999367c10.599624 0 19.244705-8.652123 19.244705-19.260155 0-10.6082-8.645081-19.260254-19.244705-19.260254-10.599747 0-19.244889 8.652054-19.244889 19.260254 0 10.608032 8.645142 19.260155 19.244889 19.260155z" fill="#78e594" fill-rule="evenodd"/><path d="m251.615707 4.416824c6.011399 0 10.884568 4.261811 10.884568 9.518921h-21.768906v.002671-.002671c0-5.25711 4.873199-9.518921 10.884338-9.518921z" fill="#cad8e3" fill-rule="evenodd"/><path d="m241.187622 13.490967h20.856049c-.051636-.926346-.264344-1.832489-.627961-2.690506-.756622-1.784546-2.112335-3.24588-3.750488-4.260315-1.811966-1.122009-3.923553-1.678681-6.049515-1.678681-2.125579 0-4.237365.556672-6.049331 1.678681-1.638138 1.014435-2.993683 2.475769-3.750412 4.260315-.36438.859497-.577088 1.767135-.628342 2.690506z" fill="#fff" fill-rule="evenodd"/><path d="m251.615707 5.24881c-.053039 0-.096878.044052-.096878.097153v1.125717c.032303-.000305.06456-.00119.097062-.00119.032501 0 .064575.000885.096939.00119v-1.125717c0-.053101-.043885-.097153-.097123-.097153zm7.517167 4.343475c-.02649-.046097-.086548-.062149-.132599-.035751l-.973023.562362c.033051.055573.065613.111695.097321.168274l.972778-.562301c.046051-.026581.062012-.08667.035523-.132584zm-3.177109-3.179718c-.045929-.026581-.105973-.01033-.132477.035568l-.561722.97374c.056336.03154.112427.064133.168015.097336l.561844-.973938c.026367-.045899.010406-.106186-.03566-.132706zm-11.856858 3.179718c-.026748.046082-.010513.106186.035355.132706l.972962.562179c.031692-.056381.064071-.112518.097061-.168274l-.972962-.561981c-.04599-.026779-.106109-.010559-.132416.03537zm3.176804-3.179519c-.0457.026519-.062042.086608-.035355.132705l.561722.97374c.055542-.03302.111618-.065613.168015-.097336l-.561585-.973557c-.026687-.046081-.086746-.062133-.132797-.035552z" fill="#949494" fill-rule="evenodd"/><path d="m252.514145 6.684372c.205704.025589-.061234 3.545547-.281983 5.327743-.220687 1.782197-.311813 1.151551-.517532 1.126023-.205521-.025528-.447754.563858-.227005-1.218338.220886-1.782196.820801-5.260773 1.02652-5.235428z" fill="#a12800" fill-rule="evenodd"/><path d="m251.615891 12.46109c.658798 0 1.21669.43277 1.405258 1.029877h-2.810501c.188369-.597107.746444-1.029877 1.405243-1.029877z" fill="#7b8287" fill-rule="evenodd"/><path d="m253.021149 13.490967c.044387.140396.068222.289825.068222.444778h-2.946945c0-.154953.023834-.304382.068222-.444778z" fill="#485259" fill-rule="evenodd"/><path d="m238.487427 15.322922h8.275146c1.627243 0 2.954621 1.328369 2.954621 2.956787v19.133758c0 .840844-.380722 1.563858-1.073746 2.039307-.693024.475189-1.504181.570107-2.287659.266899-8.897842-3.442825-13.385361-11.155708-11.789444-21.055107.312988-1.941284 1.956146-3.341644 3.921082-3.341644zm26.256805 0c-2.758514 0-5.516876 0-8.275268 0-1.627365 0-2.954499 1.328369-2.954499 2.956787v19.133758c0 .840844.380722 1.563858 1.073685 2.039307.692856.475189 1.504044.570107 2.287521.266899 8.898163-3.442825 13.385682-11.155708 11.789643-21.055107-.312989-1.94136-1.956208-3.341644-3.921082-3.341644z" fill="#738b9e" fill-rule="evenodd"/><path d="m251.602219 6.802948c.109939 0 .195678.039413.257766.118027.073731.093002.110566.247635.110566.463363 0 .215348-.03714.370118-.111435.464295-.061524.077682-.146958.116409-.256897.116409-.11026 0-.199341-.042435-.267136-.127563-.067337-.08519-.101395-.237107-.101395-.455307 0-.214249.037339-.368698.11142-.462693.061737-.077804.147156-.116531.257111-.116531zm0 .180664c-.025879 0-.049225.008301-.069214.02533-.020371.016739-.036225.046798-.047425.090332-.014679.05632-.022033.151489-.022033.285064 0 .133561.006683.225388.019684.275315.013366.049881.03009.083282.050079.100006.019989.01654.04303.024719.068909.024719s.049026-.008362.069381-.025406c.020188-.016662.035904-.046768.047058-.090332.014847-.055939.022217-.150741.022217-.284302 0-.133575-.006683-.225265-.019867-.275207-.013183-.050064-.029892-.08345-.049896-.100189-.020004-.017029-.043014-.02533-.068893-.02533z" fill="#666" fill-rule="evenodd"/><path d="m254.459396 8.75528-.197723-.090027.339981-.747986c-.10289.03508-.210846.0466-.323761.034393l.082077-.180298c.059433.006516.129761 0 .211716-.020065.082092-.019516.14833-.055771.199585-.108185l.160202.072815zm1.103394-.752198c-.100037-.04541-.194-.04541-.282044-.00032-.10646.055084-.204284.18016-.2928.37532-.090271.198685-.122452.350983-.095963.456497.02626.105393.089767.181015.19017.226746.09993.04541.193894.045609.282166.000305.106491-.055069.204285-.180649.293442-.376678.089141-.196335.119476-.35228.090759-.467453-.023911-.097397-.085816-.168823-.18573-.214417zm-.074646.164612c.023514.010712.040848.028061.052124.051788.011383.023362.012741.060776.004074.111893-.008652.050751-.040604.137039-.095825.258408-.055222.121933-.101288.205078-.137802.249801-.02797.035065-.054856.055954-.080109.062775-.025497.006989-.05014.005005-.073654-.005646-.023529-.010711-.041123-.027755-.052384-.051117-.011505-.023529-.012878-.060775-.004333-.111511.008789-.051117.040741-.137299.095947-.258972.055237-.121552.101288-.2052.137924-.250305.028244-.03505.0551-.055939.080353-.062622.025391-.007141.050156-.005158.073685.005508z" fill="#666" fill-rule="evenodd"/><path d="m257.062408 10.956223-.165557.114364-.433075-.627426c.067596-.036728.141266-.05748.220977-.062622.079621-.004837.200715.010529.362915.046204.130982.028747.216034.042755.255402.04245.053864-.000992.098938-.013703.135071-.038727.04013-.027756.063415-.059464.069977-.095841.006805-.036239-.002869-.073166-.028839-.110901-.025788-.037353-.057587-.059112-.09549-.065796-.037506-.006317-.083557.006882-.138275.039597l-.105621-.191208c.105987-.057419.199707-.073089.281677-.046707.081329.02652.151275.08165.20935.165787.063507.092193.088532.181839.075165.269134-.013244.086991-.056946.156128-.131134.20723-.042206.02919-.087402.04927-.135925.060791-.048401.011154-.104736.014679-.169006.010849-.042725-.002365-.109711-.014191-.200684-.034882-.091126-.020889-.150177-.033096-.177673-.036133-.027375-.003646-.052521-.00415-.075043-.002288zm1.065491-.110856c-.062378-.090316-.143127-.138763-.241913-.145462-.119476-.007492-.267547.049637-.443725.171311-.179535.1241-.285157.238449-.316712.3423-.031463.104203-.015991.201737.046784.292557.06253.090454.142883.138702.241821.145218.119476.00769.267914-.049759.444946-.172119.17743-.122727.283539-.240937.318207-.354492.029358-.095856.013001-.188843-.049408-.279313zm-.148681.102662c-.014618-.02118-.034791-.035569-.060181-.042557-.025269-.007187-.059052-.003159-.101166.012512-.054718.019897-.137054.06778-.246857.143616-.109954.076141-.181518.133575-.215057.172973-.033569.039032-.051514.071762-.053863.097824-.002228.02591.004211.049454.018798.070817.01474.021316.034912.03569.060303.042755.025147.007003.058838.002975.101044-.012711.05423-.019379.136444-.067276.246368-.143295.109833-.07576.181397-.133377.214935-.172608.03357-.039413.051758-.072113.054108-.09819.002472-.026031-.003723-.049744-.018432-.071136z" fill="#666" fill-rule="evenodd"/><path d="m245.941086 11.594528-.12262.179306-.677872-.464172c.016831.107559.009644.216095-.02185.325134l-.163498-.112076c.016846-.057251.022537-.127868.017151-.212005-.005142-.084198-.029526-.15593-.072373-.215409l.099427-.145401zm.448074-.655472-.941269-.644821-.099426.1456c.042709.059402.067047.131027.072067.215347.005692.084-.00032.154632-.017029.212067l.163498.111831c.031372-.109161.038742-.217331.022034-.32489l.677673.463974zm-.549835-1.217544c.062027-.09082.143112-.139389.243027-.146271.118301-.008362.266754.048447.44461.170319.177536.121551.284272.239761.319992.354324.029206.09465.013001.187286-.049041.277802-.062394.09114-.147828.140762-.255906.14862-.108459.007691-.252944-.05011-.432968-.173477-.176681-.121048-.282913-.238953-.318618-.353317-.029221-.094666-.013016-.187348.048904-.278zm.149124.101974c.014664-.021301.034668-.035553.05986-.042556.025071-.007187.062287-.001969.11081.015365.048538.017349.12796.063629.238083.138901.11026.075653.184173.135254.221878.178986.029724.033782.045684.063827.048034.089843.002365.026398-.003647.050431-.01831.071808-.014557.021362-.034424.035736-.059449.04274-.024993.00737-.061904.002182-.110443-.01506-.048721-.017334-.128128-.063736-.238205-.139206-.110122-.075333-.184524-.135254-.222549-.179352-.029709-.033707-.045563-.063767-.047913-.089768-.002472-.026397.00354-.050323.018204-.071701z" fill="#666" fill-rule="evenodd"/><path d="m248.095886 9.071671-.177536.12471-.471786-.672882c-.022034.106567-.066925.205566-.134461.296707l-.113785-.162262c.035737-.047776.066056-.111893.090455-.192688.024643-.080658.026992-.156311.007797-.227066l.14418-.101166zm.752396-.774369-.354035.248566c-.001983-.022507-.001663-.047592.001679-.075287.003021-.027374.014725-.08667.034912-.177994.020004-.09114.031326-.158294.033371-.200988.003464-.064484-.000549-.120728-.012192-.168992-.011703-.048584-.032074-.093689-.061416-.135574-.051697-.073776-.121094-.117203-.208191-.129913-.087296-.012696-.176667.013015-.268296.077331-.083755.058792-.13829.129044-.164169.210892-.02568.081955-.009354.175644.048721.281342l.190232-.107071c-.033066-.054581-.046738-.100495-.040421-.138214.006378-.037934.027741-.069825.065064-.095856.037384-.026383.074096-.036423.110504-.029862.036331.006516.068329.029496.096069.06926.025314.036072.038498.081177.040054.135071.000306.039291-.013061.12471-.040741.255813-.034362.162629-.049026.283997-.043502.363602.005615.079681.026855.153473.064178.220764l.623825-.437973zm-.118424-1.065445c.08989-.063247.182816-.080291.278778-.051407.113572.033692.232697.139084.356507.315705.123428.17633.181869.32428.175186.444153-.005875.098831-.053558.179794-.143494.243118-.090439.063431-.187698.07962-.291763.048889-.104309-.030868-.219086-.135742-.344376-.314545-.12294-.17546-.181015-.323104-.174316-.442794.005676-.098999.053528-.179978.143478-.243119zm.10376.148133c.020981-.015046.044693-.021363.070892-.019074.026047.002167.05893.020065.098298.053467.039505.033203.097564.104507.174133.213684.076767.109543.125122.191376.145172.245651.015854.042069.020187.075775.013306.100983-.006989.025528-.021164.045731-.042343.060593-.021164.014877-.044693.021362-.070572.019394-.026184-.002167-.058869-.019883-.098236-.053101-.039383-.033386-.097443-.104706-.17421-.21405-.076752-.109345-.125107-.191498-.145462-.245957-.015854-.042068-.020187-.075775-.013016-.101181.006699-.025329.020859-.045715.042038-.060409z" fill="#666" fill-rule="evenodd"/><path d="m248.852448 59.585785h6.8553c1.060074 0 1.919449.860054 1.919449 1.92099v45.281006c0 1.060936-.859375 1.920982-1.919449 1.920982h-6.8553c-1.06009 0-1.919449-.860046-1.919449-1.920982v-45.281006c0-1.060936.859359-1.92099 1.919449-1.92099z" fill="#555753" filter="url(#l)"/><path d="m247.989182 59.007813h6.855209c1.060074 0 1.919433.860038 1.919433 1.920951v45.280709c0 1.06092-.859359 1.920959-1.919433 1.920959h-6.855209c-1.060059 0-1.919419-.860039-1.919419-1.920959v-45.280709c0-1.060913.85936-1.920951 1.919419-1.920951z" fill="#9faaaa"/><path d="m245.925812 65.877892v-4.873078c0-1.064209.869491-1.918648 1.932846-1.918648h6.854263c1.063355 0 1.917511.854439 1.917511 1.918625v4.873078c-.023041.00077-.044159 0-.0672 0h-10.63742z" fill="url(#m)"/><path d="m256.223511 101.17733v4.873459c0 1.064209-.87143 1.919029-1.934784 1.919029h-6.854248c-1.06337 0-1.915589-.85482-1.915589-1.919029v-4.873459c.021119 0 .044144-9.779572.067185-9.779572z" fill="url(#n)"/><path d="m252.483505 64.772667c.000016.639427-.517929 1.157776-1.156845 1.157791-.638916 0-1.15686-.518341-1.156875-1.157768 0-.63942.517929-1.157776 1.156845-1.157784.638916-.000007 1.156875.518341 1.156875 1.157761z" fill="url(#p)" stroke="url(#q)" stroke-linecap="round" stroke-linejoin="bevel" stroke-width=".076207"/><path d="m252.293625 65.037041c-.155441.537811-.717072.847679-1.254456.692115-.537368-.155563-.847-.717659-.691559-1.255462.155442-.537811.717087-.847672 1.254456-.692116.537384.155571.847.717651.691559 1.255463z" fill="#899797"/><path d="m251.59549 63.787201-.554551 1.918724c-.003509.012115.020676.014732.018418.031593.084762.024536.16571.030464.250259.033058l.544052-1.88237c-.072464-.042869-.148392-.069213-.232742-.093643z" fill="#d3d7cf"/><path d="m251.631409 63.7976c-.077484-.022431-.156952-.041054-.234238-.041542l-.544052 1.882362c.073685.043213.155792.084496.24176.109383.002655-.016747-.02153-.019364-.01802-.031479z" fill="url(#s)"/><path d="m251.321106 84.010155c-.785111-.002571-1.422562.767906-1.421219 1.717064-.000046.518051.189362.984848.488052 1.302276l-.559433 3.845345 2.993409-.001068-.558564-3.850663c.294693-.320419.479538-.778739.480744-1.29647-.000763-.94899-.636215-1.719673-1.422989-1.716484z" fill="#353439" stroke="url(#t)" stroke-linecap="round" stroke-linejoin="bevel" stroke-width=".055866"/><path d="m252.484192 102.614975c0 .63942-.517929 1.157776-1.156845 1.157791-.638916 0-1.156876-.518341-1.156876-1.157761-.000015-.639427.517929-1.157783 1.156845-1.157791.638916 0 1.156861.518341 1.156876 1.157761z" fill="url(#u)" stroke="url(#v)" stroke-linecap="round" stroke-linejoin="bevel" stroke-width=".076207"/><path d="m252.294312 102.879349c-.155442.537811-.717087.847679-1.254456.692116-.537384-.155564-.847-.717659-.691559-1.255463s.717072-.847672 1.254456-.692108c.537368.155563.847.717643.691559 1.255455z" fill="#899797"/><path d="m251.596176 101.629517-.554565 1.918716c-.003495.012116.020675.01474.018432.031601.084763.024536.165711.030457.25026.033051l.544037-1.88237c-.072464-.042862-.148377-.069214-.232743-.093644z" fill="#d3d7cf"/><path d="m251.632095 101.639915c-.077499-.022438-.156967-.041069-.234237-.041549l-.544052 1.882362c.073669.043213.155777.084496.241745.109383.002655-.016747-.021515-.019356-.018006-.031479z" fill="url(#w)"/><path d="m253.667801 59.390999c.222595 0 .429993.048515.628158.118606 1.005997.059296 1.798096.867943 1.798096 1.886834v44.928299c0 .857162-.562439 1.557983-1.340423 1.800582 1.063552 0 1.917541-.846389 1.917541-1.903015v-44.928299c0-1.056617-.853989-1.903007-1.917541-1.903007z" fill="#eeeeec" filter="url(#x)"/><path d="m249.070129 59.483055c-.22258 0-.429977.048424-.628143.118363-1.005997.059188-1.798111.866218-1.798111 1.883071v44.838646c0 .855454.562454 1.554871 1.340439 1.796997-1.063553 0-1.917542-.844703-1.917542-1.899215v-44.838646c0-1.05452.853989-1.899216 1.917542-1.899216z" fill="#eeeeec" filter="url(#y)"/><path d="m248.64859 78.195244 1.927307 4.080498 5.46167 1.233383 1.183533.755241 14.723663 2.531975.048859-3.26548-14.473908-2.14077-1.579879-.787842c-3.637482-.896515-.988099-.34774-3.01857-.755241l-1.080384-1.760437z" fill="#555753" filter="url(#z)" opacity=".39085"/><path d="m248.553497 73.768402v4.329636h27.146363v-4.278733c0-.017288-.001923-.034004 0-.050903z" fill="#9faaaa"/><path d="m248.451767 73.768402v4.329636h27.248093v-4.278733c0-.017288-.001923-.034004 0-.050903z" fill="url(#A)"/><g fill-rule="evenodd"><path d="m32.652138 52.268227h10.808254v-14.381546h-10.808254z" fill="#4d4441"/><path d="m32.652256 40.669792 10.808136-1.353653v2.210953l-10.808136 1.353584z" fill="#7d6f6a"/><path d="m32.652256 44.7034c3.602764-.451195 7.20549-.902443 10.808136-1.353653v2.210968c-3.602646.45124-7.205372.902435-10.808136 1.353569 0-.736885 0-1.473831 0-2.210884z" fill="#7d6f6a"/><path d="m32.652256 48.73671 10.808136-1.353577v2.210876l-10.808136 1.353699z" fill="#7d6f6a"/><path d="m35.342808 54.289879h5.427036l2.690548-2.021652h-10.808136z" fill="#4d4c50"/><path d="m38.056267 4.007813c8.253261 0 14.943733 6.695922 14.943733 14.955673 0 5.100143-2.551098 9.6035-6.445614 12.302841-1.998466 1.38504-3.093876 3.477615-3.093876 5.910538v.709816h-10.808254v-.709816c0-2.433045-1.095419-4.525376-3.093992-5.910538-3.894594-2.699341-6.445626-7.202698-6.445626-12.302841 0-8.259751 6.690472-14.955673 14.943629-14.955673z" fill="#ffdd30"/><path d="m39.285736 37.886681v-14.428673h-2.458702v14.428673h-1.650703v-14.428673h-2.085186c-1.031598 0-1.965586-.418534-2.641602-1.095078-.676016-.676559-1.094206-1.611404-1.094206-2.643692 0-1.032425.41819-1.967163 1.094206-2.643722.676016-.67656 1.610004-1.095078 2.641602-1.095078 1.031585 0 1.965656.418518 2.64167 1.095078.676056.676559 1.094219 1.611404 1.094219 2.643722v2.086731h2.458702v-2.086731c0-1.032318.418194-1.967163 1.094208-2.643722.676014-.67656 1.610123-1.095078 2.641716-1.095078 1.031547 0 1.965542.418518 2.641556 1.095078.676052.676559 1.094215 1.611297 1.094215 2.643722 0 1.032288-.418163 1.967133-1.094215 2.643692-.676014.676544-1.610009 1.095078-2.641556 1.095078h-2.085194v14.428673zm1.65073-18.167443v2.086731h2.085194c.575851 0 1.09716-.233597 1.474396-.61113.377239-.377578.610683-.899383.610683-1.475601 0-.576355-.233444-1.098068-.610683-1.475631-.377236-.377549-.898545-.61113-1.474396-.61113-.575897 0-1.097321.233581-1.47456.61113-.377239.377563-.610634.899368-.610634 1.475631zm-7.845321 2.086731h2.085186v-2.086731c0-.576263-.233437-1.098068-.610672-1.475631-.37724-.377549-.898663-.61113-1.474514-.61113-.575898 0-1.097205.233581-1.474444.61113-.377237.377563-.610634.899276-.610634 1.475631 0 .576218.233397 1.098023.610634 1.475601.377239.377533.898546.61113 1.474444.61113z" fill="#fff"/><path d="m40.057793 159.918854c18.099075 0 32.860656-.254654 32.860656-.566986 0-.312317-14.761581-.567246-32.860656-.567246-18.099522 0-32.861166.254929-32.861166.567246 0 .312332 14.761644.566986 32.861166.566986z" fill="#2c2c2c"/><path d="m56.470779 112.316933h2.597138v.508018h-2.3433v1.71463h7.573395v-1.71463h-2.678166v-.508018h3.185841v2.730796h-8.588505v-2.730796z" fill="#2c2c2c"/><path d="m42.64666 112.316933h2.596763v.508018c-.781059 0-1.561851 0-2.342987 0v1.71463h7.573346c0-.571502 0-1.143005 0-1.71463-.892773 0-1.785782 0-2.67817 0 0-.169327 0-.338653 0-.508018h3.185967v2.730796c-2.863007 0-5.726132 0-8.588879 0 0-.910316 0-1.820602 0-2.730796z" fill="#2c2c2c"/><path d="m28.822115 112.316933h2.597135v.508018c-.781181 0-1.562238 0-2.343229 0v1.71463h7.573202c0-.571502 0-1.143005 0-1.71463-.892761 0-1.785343 0-2.678104 0 0-.169327 0-.338653 0-.508018h3.185852v2.730796c-2.862942 0-5.725693 0-8.588453 0 0-.910316 0-1.820602 0-2.730796z" fill="#2c2c2c"/><path d="m14.997944 112.316933h2.597135v.508018h-2.343358v1.71463h7.573011v-1.71463h-2.677912v-.508018h3.185595v2.730796h-8.588377v-2.730796z" fill="#2c2c2c"/><path d="m28.296837 118.488663h41.614601v34.693084c0 1.79448-1.467453 3.26323-3.260742 3.26323h-35.09313c-1.79304 0-3.260729-1.468506-3.260729-3.26323z" fill="#b5b4b7"/><path d="m69.911438 153.181747c0 1.79448-1.467453 3.26323-3.26049 3.26323h-35.093382c-1.79304 0-3.260729-1.468506-3.260729-3.26323z" fill="#a7a6aa"/><path d="m30.507139 113.682388h39.404299c1.320541 0 2.401398 1.081284 2.401398 2.403145 0 1.321861-1.080857 2.40313-2.401398 2.40313h-39.404299c-1.320539 0-2.40109-1.081269-2.40109-2.40313 0-1.321861 1.080551-2.403145 2.40109-2.403145z" fill="#464546"/><path d="m9.597777 113.682388h25.305932c1.320927 0 2.401398 1.081284 2.401398 2.403145 0 1.321861-1.080471 2.40313-2.401398 2.40313h-25.305932c-1.32073 0-2.401275-1.081269-2.401275-2.40313 0-1.321861 1.080545-2.403145 2.401275-2.403145z" fill="#2c2c2c"/><path d="m9.597777 118.488663h25.305932v34.693084c0 1.79448-1.467063 3.26323-3.260673 3.26323h-18.784454c-1.793293 0-3.260805-1.468506-3.260805-3.26323z" fill="#979799"/><path d="m12.858582 159.351868h53.792366v-2.906891h-53.792366z" fill="#2c2c2c"/><path d="m31.643036 159.351868h35.007912v-2.906891h-35.007912z" fill="#464546"/><path d="m9.597777 120.062805h25.305932v-1.574142h-25.305932z" fill="#828284"/><path d="m34.903709 125.172241h35.007729v-6.683639h-35.007729z" fill="#e4e2e2"/><path d="m34.903709 120.062805h35.007729v-1.574142h-35.007729z" fill="#cfcecf"/><path d="m38.713326 127.462769h27.29219c.774674 0 1.408089.634124 1.408089 1.409271v18.763489c0 .775299-.633415 1.409332-1.408089 1.409332h-27.29219c-.774735 0-1.408219-.634033-1.408219-1.409332v-18.763489c0-.775147.633484-1.409271 1.408219-1.409271z" fill="#464546"/><path d="m64.47171 127.462769h1.533806c.774674 0 1.408089.634124 1.408089 1.409271v18.763489c0 .775299-.633415 1.409332-1.408089 1.409332h-1.533806c.774285 0 1.408333-.634033 1.408333-1.409332v-18.763489c0-.775147-.634048-1.409271-1.408333-1.409271z" fill="#636162"/><path d="m38.713326 151.952026h47.704879v-2.907165h-47.704879z" fill="#636162"/><path d="m58.030884 149.044861h1.760612v2.907165h-1.760612zm-4.37891 0h2.860618v2.907165h-2.860618z" fill="#7d7d7e"/><path d="m37.305107 145.734421h28.476586v-.72049h-28.476586z" fill="#636162"/><path d="m57.192848 145.013931h1.812706v.72049h-1.812706zm-4.50814 0h2.945152v.72049h-2.945152z" fill="#7d7d7e"/><path d="m43.850121 120.767967c.793827.27372 1.364067 1.028092 1.364067 1.915787 0 .887604-.57024 1.641884-1.364067 1.915741v.110283h-.418072c-1.118366 0-2.024719-.90712-2.024719-2.026024 0-1.119186.906353-2.026329 2.024719-2.026329h.418072z" fill="#2c2c2c"/><path d="m43.850311 124.709778c1.114918 0 2.024399-.910072 2.024399-2.026024 0-1.115997-.909481-2.026329-2.024399-2.026329-1.115169 0-2.024654.910332-2.024654 2.026329 0 1.115952.909485 2.026024 2.024654 2.026024z" fill="#464546"/><path d="m43.635544 120.316223h.654884c.163296 0 .296803.133972.296803.297287v3.017182c0 .163299-.133507.297287-.296803.297287h-.654884z" fill="#636162"/><path d="m43.486961 120.316223h.296978c.163483 0 .297352.133713.297352.297287v3.017182c0 .163436-.133869.297287-.297352.297287h-.296978z" fill="#2c2c2c"/><path d="m50.488297 120.767967c.794082.27372 1.364509 1.028092 1.364509 1.915787 0 .887604-.570427 1.641884-1.364509 1.915741v.110283c-.139126 0-.278759 0-.418011 0-1.118057 0-2.02459-.90712-2.02459-2.026024 0-1.119186.906533-2.026329 2.02459-2.026329h.418011z" fill="#2c2c2c"/><path d="m50.488297 120.657425c1.118431 0 2.024715.907143 2.024715 2.026329 0 1.118904-.906284 2.026024-2.024715 2.026024-1.118042 0-2.024338-.90712-2.024338-2.026024 0-1.119186.906296-2.026329 2.024338-2.026329z" fill="#464546"/><path d="m50.274025 120.316223h.654835c.163551 0 .297046.133972.297046.297287v3.017182c0 .163299-.133754.297287-.297046.297287-.218396 0-.436806 0-.654835 0 0-1.204056 0-2.407837 0-3.611756z" fill="#636162"/><path d="m50.125393 120.316223h.297157c.163307 0 .297043.133713.297043.297287v3.017182c0 .163436-.133736.297287-.297043.297287-.099178 0-.197983 0-.297157 0 0-1.204056 0-2.407837 0-3.611756z" fill="#2c2c2c"/><path d="m57.126728 120.767967c.794079.27372 1.36438 1.028092 1.36438 1.915787 0 .887604-.570301 1.641884-1.36438 1.915741v.110283c-.139141 0-.278755 0-.418022 0-1.118046 0-2.024704-.90712-2.024704-2.026024 0-1.119186.906658-2.026329 2.024704-2.026329h.418022z" fill="#2c2c2c"/><path d="m57.126728 120.657425c1.118301 0 2.02459.907143 2.02459 2.026329 0 1.118904-.906289 2.026024-2.02459 2.026024-1.118046 0-2.024338-.90712-2.024338-2.026024 0-1.119186.906292-2.026329 2.024338-2.026329z" fill="#464546"/><path d="m56.912086 120.316223h.65495c.163295 0 .296917.133972.296917.297287v3.017182c0 .163299-.133866.297287-.296917.297287-.21827 0-.43655 0-.65495 0 0-1.204056 0-2.407837 0-3.611756z" fill="#636162"/><path d="m56.763809 120.316223h.297043c.163437 0 .297169.133713.297169.297287v3.017182c0 .163436-.133732.297287-.297169.297287-.098808 0-.197983 0-.297043 0 0-1.204056 0-2.407837 0-3.611756z" fill="#2c2c2c"/><path d="m63.765285 120.767967c.793957.27372 1.364125 1.028092 1.364125 1.915787 0 .887604-.570168 1.641884-1.364125 1.915741v.110283h-.418148c-1.118305 0-2.024463-.90712-2.024463-2.026024 0-1.119186.906158-2.026329 2.024463-2.026329h.418148z" fill="#2c2c2c"/><path d="m63.765285 124.709778c1.114918 0 2.024464-.910072 2.024464-2.026024 0-1.115997-.909546-2.026329-2.024464-2.026329-1.115169 0-2.024589.910332-2.024589 2.026329 0 1.115952.90942 2.026024 2.024589 2.026024z" fill="#464546"/><path d="m63.550762 120.316223h.654705c.163552 0 .297173.133972.297173.297287v3.017182c0 .163299-.133881.297287-.297173.297287h-.654705z" fill="#636162"/><path d="m63.401993 120.316223h.297046c.163666 0 .297287.133713.297287.297287v3.017182c0 .163436-.133621.297287-.297287.297287h-.297046z" fill="#2c2c2c"/><path d="m9.597777 153.181747h25.305932v-28.009506h-25.305932z" fill="#636162"/><path d="m38.959366 144.836319h23.667946v-.789505h-23.667946z" fill="#fffffe"/><path d="m50.903934 135.467972c4.191502-.407578 7.589592 2.245605 7.589592 5.925979 0 .234574-.013996.467652-.041103.698731l-15.097069 1.467834c-.026893-.225906-.040889-.4561-.040889-.690857 0-3.680358 3.397956-6.994064 7.589469-7.401687z" fill="#af642f"/><path d="m58.205173 139.596481c.187684.56192.288353 1.164383.288353 1.79747 0 .234574-.013996.467835-.041103.698731l-15.097069 1.467834c-.026893-.225906-.040889-.4561-.040889-.690857 0-1.025299.26395-2.022232.735084-2.935684 1.481842 1.090607 4.006226 1.808853 6.871784 1.808853 3.151635 0 5.890896-.868713 7.28384-2.146347z" fill="#924e2a"/><path d="m40.537376 142.088745h20.733193c.156296 0 .284065.127869.284065.284287 0 .156234-.127769.284027-.284065.284027h-20.733193c-.156204 0-.283973-.127793-.283973-.284027 0-.156418.127769-.284287.283973-.284287z" fill="#fffffe"/><path d="m40.758251 142.657059h10.03513 10.035183l-2.997795 1.389938h-7.037388-7.037125z" fill="#f0e8e2"/><path d="m57.653313 134.719391-2.039074 2.130737-1.130833-1.084305 2.038994-2.130508c-.360413-.345551-.372925-.918427-.027458-1.279266.345459-.360825.917598-.373169 1.278278-.027527.241562.231643.32674.56517.252842.868545.299629-.08696.636524-.016021.877987.215622.36068.34552.373012.918381.027553 1.279129-.345195.360962-.917697.373307-1.278289.027573z" fill="#fffffe"/><path d="m55.991962 135.404251c.968953.928925.90878 2.565872-.134594 3.656128-1.043376 1.090225-2.674903 1.220749-3.643932.291901-.969036-.929108-.908859-2.565873.13451-3.656128 1.043377-1.090027 2.674725-1.220749 3.644016-.291901z" fill="#c3712f"/><path d="m217.952499 150.338684c0 1.469803 1.191513 2.661316 2.661316 2.661316h2.658127c1.469818 0 2.661331-1.191513 2.661331-2.661316v-2.474335c0-1.469818-1.191513-2.661331-2.661331-2.661331h-2.658127c-1.469803 0-2.661316 1.191513-2.661316 2.661331z"/><path d="m254.055984 150.148514c0 1.469803 1.191514 2.661316 2.661332 2.661316h2.658111c1.469818 0 2.661347-1.191513 2.661347-2.661316v-2.474335c0-1.469818-1.191529-2.661331-2.661347-2.661331h-2.658111c-1.469818 0-2.661332 1.191513-2.661332 2.661331z"/><path d="m269.693573 144.383255c0 4.141571-13.134094 7.499741-29.335754 7.499741-16.201874 0-29.33574-3.35817-29.33574-7.499741v-7.499802h29.33574 29.335754z" fill="#333"/><path d="m270.908508 141.806763c0 4.313751-13.677948 7.810196-30.550689 7.810196-16.872986 0-30.551117-3.496445-30.551117-7.810196v-7.81015h30.551117 30.550689z" fill="#027ca8"/><path d="m240.357819 141.806763c16.826721 0 30.551147-3.508606 30.551147-7.810608 0-4.301544-13.724426-7.81015-30.551147-7.81015-16.82692 0-30.550873 3.508606-30.550873 7.81015 0 4.302002 13.723953 7.810608 30.550873 7.810608z" fill="#07a1d9"/></g><path d="m220.612747 137.854385 37.43364.190171-3.990403-5.134598-26.982604-.380341z" fill="none" opacity=".477557" stroke="#fff" stroke-width=".225903"/><path d="m247.128708 128.151855c0 1.123749-3.563187 2.034592-7.958634 2.034592-4.395507 0-7.95874-.910843-7.95874-2.034592v-2.034591h7.95874 7.958634z" fill="#027ca8" fill-rule="evenodd"/><path d="m239.170074 128.151855c4.383454 0 7.958741-.914016 7.958741-2.034713 0-1.120575-3.575287-2.034592-7.958741-2.034592-4.383514 0-7.958679.914017-7.958679 2.034592 0 1.120697 3.575165 2.034713 7.958679 2.034713z" fill="#07a1d9" fill-rule="evenodd"/></svg>