<svg height="34" viewBox="0 0 24 34" width="24" xmlns="http://www.w3.org/2000/svg"><g fill-rule="evenodd"><path d="m2.453282 27.602238c-.059537-1.172417 1.611889-2.717247 4.104362-2.717247h14.990612l-.029812-19.781746h-14.960801c-2.587182 0-4.287863 1.672575-4.088154 2.857294"/><path d="m4.870929 9.647169c-1.281572 0-2.042822-.517103-2.093144-1.095692-.104397-1.200185 1.381539-2.75366 3.879929-2.711752h14.227082l-.077267.303038-.265312.148548.007578.262369.059742.303036-.283087.172945-.037153.311184-.30545.140284.007564.262369-.111679.237951.059742.303036-.283087.172945.059744.303038-.111681.237951-.40233.148548.178974.327454-.283085.172945z" fill="#fff" stroke="#000" stroke-linecap="round" stroke-linejoin="round" stroke-width=".179036"/><path d="m20.884796 24.61009-.089308.303038-.253278.148548.007566.262369.059744.303036-.283087.172945-.037155.311182-.305449.140285.007576.262368-.111677.237951.059742.303038-.283088.172945.059743.303035-.111679.237954-.40233.148548.178976.327453-.283089.172943v-18.770362l.283089-.172945-.178976-.327454.40233-.148548.111679-.237951-.059743-.303038.253688-.175621-.030342-.30036.111677-.237951-.007576-.262369.305449-.140284.037155-.311184.283087-.172945-.059744-.303036-.007566-.262369.268184-.148548.074398-.303038z" fill="#fff" stroke="#000" stroke-linecap="round" stroke-linejoin="round" stroke-width=".179036"/><path d="m4.674969 28.896757h14.99061v-19.781746h-14.990611c-1.40963-.00918-2.090204-.508005-2.205419-1.151569l-.016468 19.634655c.033702.713018.706264 1.289331 2.221888 1.29866z"/><path d="m20.566439 6.376701-.024222-.081895-3.6782.081895 3.6782.081896z"/><path d="m20.289286 7.340847-.054743-.133493-8.31308.133493 8.31308.133495z"/><path d="m19.903961 7.896063-.011642-.060633-1.767981.060633 1.767981.060629z"/><path d="m20.548706 6.840166s-.100847.035263-.100847.035263c.033615 1.785021.067232 3.570044.100847 5.355065 0 0 .100849-5.355065.100849-5.355065-.033615-.011753-.067232-.023508-.100849-.035263z"/><path d="m20.211033 7.314476c-.041365.018887-.082729.037775-.124096.056662.041367 2.868103.082731 5.736208.124096 8.604313 0 0 .124098-8.604313.124098-8.604313-.041365-.018887-.082732-.037775-.124098-.056662z"/><path d="m19.956404 7.838223-.073601.017423.102783 2.591433.044798-2.592146z"/></g></svg>