<svg height="24" viewBox="0 0 32 24" width="32" xmlns="http://www.w3.org/2000/svg" xmlns:xlink="http://www.w3.org/1999/xlink"><linearGradient id="a" gradientUnits="userSpaceOnUse" x1="15.568669" x2="17.581998" y1="14.460241" y2="14.460241"><stop offset=".00001" stop-color="#004d81"/><stop offset=".5" stop-color="#0376bb"/><stop offset="1" stop-color="#004d81"/></linearGradient><path d="m7.084479 2.565285c-.420489.02421-.824093.161533-1.160566.386087l10.675315 4.555411v.204103c.135908-.819757-.338122-1.64786-1.232226-2.013077l-7.238508-2.955965c-.339768-.138992-.696422-.196174-1.044015-.176559z" fill="#fff" stroke="#000" stroke-linecap="round" stroke-linejoin="round" stroke-width=".081862"/><path d="m26.06538 2.584486c.420488.02421.824091.16153 1.160566.386087l-10.675315 4.555409v.204105c-.135907-.819757.338121-1.647861 1.232227-2.01308l7.238506-2.955965c.339768-.138989.696011-.196171 1.044016-.176556z" fill="#fff" stroke="#000" stroke-linecap="round" stroke-linejoin="round" stroke-width=".081862"/><path d="m5.539428 2.66741 11.00826 4.769874v14.392035l-11.00826-4.768225z" fill="#004d81"/><path d="m27.611242 2.66741-11.006633 4.769874v14.392035l11.006633-4.768225z" fill="#0376bb"/><path d="m15.570862 7.020105s.519743.186571 1.00942.197842c.495445.011271 1.002833-.192417 1.002833-.192417v14.417114s-.314234.457876-1.006127.457876c-.682007 0-1.006126-.489181-1.006126-.489181z" fill="url(#a)"/><g fill="none" stroke="#000" stroke-linecap="round" stroke-linejoin="round" stroke-width=".032744"><path d="m16.970297 6.298851 8.847566-3.69725"/><path d="m16.792381 6.539268 9.291531-3.920972"/><path d="m16.692303 6.73419 9.637891-4.095026"/><path d="m16.630527 6.879862 9.863991-4.199375"/><path d="m16.589756 7.02553 10.07444-4.298296"/><path d="m16.589756 7.150747 10.223114-4.355478"/><path d="m16.789909 7.205008 10.207877-4.362992"/><path d="m16.143732 6.271305-8.847567-3.697254"/><path d="m16.321648 6.511723-9.291532-3.920975"/><path d="m16.422136 6.706644-9.638301-4.095444"/><path d="m16.4835 6.852312-9.863989-4.199373"/><path d="m16.524685 6.997982-10.074441-4.298296"/><path d="m16.524685 7.122782-10.223527-4.355479"/><path d="m16.32453 7.17746-10.207877-4.362992"/></g><path d="m5.656216 2.646677 9.948829 4.274506s.58193.221218.948056.226225c.386718.005008.967002-.187409.967002-.187409l9.823218-4.315826.26234.030887-10.031606 4.35673s-.453438.192001-1.020954.192835c-.562162.001253-.98471-.199513-.98471-.199513l-10.020077-4.352138z" fill="#ff6d6d"/></svg>