<svg height="164" viewBox="0 0 300 164" width="300" xmlns="http://www.w3.org/2000/svg"><g fill-rule="evenodd"><path d="m63.149437 78.344925-1.892849 6.060417c-1.211891 3.880722-.819244 8.193871 1.094604 12.023644l-.476406 22.385406-.750808 3.029953c-1.979313 7.988785-1.813523 16.507248.481052 24.73143l11.48801-2.737274-.226722-3.029923.04277-18.231056 1.955849-3.910125 4.898804-35.141701z" fill="#3f3f85"/><path d="m73.09304 143.838501 1.917328 1.29657c1.211914.818237 2.51001 1.491516 3.864518 2.00328.459922.1745.842849.522416 1.060356.964707.217643.443085.251098.941894.092682 1.381851-.264046.732407-.848534 1.287476-1.59729 1.515091h-17.481125l1.077213-1.710571-.421692-2.713654z" fill="#1a1a1a"/><path d="m58.40007 40.457954-2.059013 5.339692 6.704155 2.97821 2.95063-9.61512-6.711563-2.729446z" fill="#804848"/><path d="m68.494705 24.050385 1.717179 2.811813c.810455 3.130401-.859169 2.868667 2.760604 7.328186.634018.983505.209725 1.55516-.697685 2.230141-.516174 1.598198-.606384 5.853271-3.017242 6.142349-2.625893.315124-5.597763-.585945-7.610928-2.301186-2.012874-1.71524-3.217651-4.193901-3.323288-6.836761l-1.228111-9.118256z" fill="#804848"/><path d="m70.211884 26.862198c2.808174-8.473496-13.025776-10.085159-16.781662-2.388428-1.65976 3.400665-.214138 9.012573 4.969848 15.984184 1.667298-1.248085 1.801205-5.063057 2.599453-8.026146.807987-.553497 2.207337-.570358 3.217808-.553634-1.114697-3.872666-.583336-5.276016 1.018997-5.216156 1.658615.061737 3.316437.148559 4.975556.20018z" fill="#1f0d0d"/><path d="m59.689774 30.51915c-1.009037.423645-1.259228 2.119049-.558968 3.786987.70039 1.66806 2.085987 2.676575 3.095028 2.253075 1.009033-.423622 1.259224-2.119164.558834-3.787239-.70026-1.667786-2.086014-2.676575-3.094894-2.252823z" fill="#804848"/><path d="m69.595123 28.13501.122757 1.567215-.480545.037597c-.876938.068695-1.72847.326401-2.496132.755738l-.708168-.665909c.707505-.954712 1.79393-1.556061 2.978745-1.649002zm-1.32016 2.61528c-.505157-.035019-.876167.512024-.828697 1.221603.04744.709732.495041 1.313675 1.000336 1.348664.505043.035003.87603-.512024.82872-1.221741-.04731-.709732-.495308-1.313538-1.000359-1.348526z" fill="#1f0d0d"/><path d="m70.691772 38.207443c-.273498.911293-.909599 1.618424-1.485282 1.618424-.575539 0-.88836-.707131-.74524-1.618424z" fill="#fff"/><path d="m92.19519 71.772217.498543.333153c.540444.360893 1.203102.490257 1.839569.359054.786225-.161781 1.604431.017502 2.250641.493637.200279.147637.310455.38784.29126.635697-.018929.248115-.164497.468734-.384605.584106-.497246.260178-1.054276.384232-1.614785.359993-.214027-.009346-.42649-.041099-.633888-.094879-.798378-.206886-1.647461-.030747-2.297546.476776l-1.039254-1.407394z" fill="#612929"/><path d="m125.445068 31.570572-67.626907 50.058105c-2.259823 1.672745-4.917335 2.149292-7.617645 1.365799-2.598019-.753936-5.42783-.366607-7.75145 1.122589-4.212406 2.700165-7.676758 6.418473-10.072044 10.811585-.711277 1.304069.639461 2.639511 2.021698 2.094803l9.624698-3.792954c3.051224-1.202438 7.968956 10.674713 3.523594 12.48848l-8.862487 3.616928c-.997887.406509-.994915 1.830093.004673 2.232986 4.928222 1.986435 10.434742 1.983826 15.361053-.007003 2.723244-1.100815 4.886887-3.253952 6.000259-5.972519.600701-1.466645.984665-2.97033 1.166283-4.475846.298027-2.469177 1.46986-4.484123 3.469006-5.963722l67.627037-50.057991c2.259964-1.672867 4.917343-2.149254 7.617508-1.365661 2.598297.753814 5.427841.366348 7.751587-1.122849 4.212677-2.699905 7.676635-6.418304 10.071929-10.811203.711152-1.304443-.639587-2.639908-2.021438-2.095047l-9.62497 3.793076c-3.050964 1.202301-7.968826-10.674576-3.523559-12.488602l8.862716-3.616409c.997895-.407166.994523-1.83075-.004913-2.23378-4.928253-1.985901-10.434906-1.983185-15.360809.007415-2.723526 1.100541-4.887024 3.254212-6.000534 5.97226-.600434 1.466232-.984406 2.970444-1.166138 4.475723-.297897 2.469147-1.469994 4.484253-3.469147 5.963837z" fill="#b3b3b3"/><path d="m142.583893 21.001526 8.862716-3.616409c.997895-.407166.994523-1.83075-.004913-2.23378-4.928253-1.985901-10.434906-1.983185-15.360809.007415-2.723526 1.100541-4.887024 3.254212-6.000534 5.97226-3.422196 8.356171.178375 17.937584 8.256866 21.971909 2.985367 1.490989 6.535126 1.301055 9.344712-.499619 4.212677-2.699905 7.676635-6.418304 10.071929-10.811203.711152-1.304443-.639587-2.639908-2.021438-2.095047l-9.62497 3.793076c-3.050964 1.202301-7.968826-10.674576-3.523559-12.488602z" fill="#ccc"/><path d="m47.547012 105.718979-8.862487 3.616928c-.997887.406509-.994915 1.830093.004673 2.232986 4.928222 1.986435 10.434742 1.983826 15.361053-.007003 2.723244-1.100815 4.886887-3.253952 6.000259-5.972519 3.422364-8.355919-.178112-17.937462-8.256713-21.971901-2.985383-1.490875-6.535122-1.301079-9.344731.499595-4.212406 2.700043-7.676758 6.418473-10.072044 10.811585-.711277 1.304069.639461 2.639511 2.021698 2.094803l9.624702-3.792954c3.05122-1.202438 7.968952 10.674713 3.52359 12.48848z" fill="#ccc"/><path d="m115.796783 43.154884-46.110527 34.13163c-1.631774 1.207749-1.978675 3.530968-.77066 5.162743v.00013c1.207619 1.631759 3.530838 1.97866 5.162613.770637l46.110931-34.131378c1.631775-1.207886 1.978379-3.531067.770501-5.162842v-.000137c-1.207886-1.631653-3.531113-1.978417-5.162858-.770783z" fill="#999"/><path d="m63.149437 78.344925-2.346157 6.060417c-1.502144 3.880722-1.432137 8.193871.195339 12.023644l-2.150417 22.385406-.977524 3.029953c-2.576786 7.988785-3.048225 16.507248-1.368633 24.73143l11.692825-2.737274v-3.029923l1.406219-18.231056 2.248147-3.910125 7.526931-35.141701z" fill="#5b5ba8"/><path d="m63.149437 78.344925-2.346157 6.060417c-.179016.462265-.33522.930496-.469528 1.403389 7.955997 2.862602 13.656055 10.036148 14.589008 18.509491l4.453407-20.792526zm6.451652 44.232597 2.248147-3.910125c-1.570076 1.770454-4.245484 3.838317-7.652001 3.154121 1.477768 2.648064 4.068413 3.533966 5.403854.756004z" fill="#3f3f85"/><path d="m65.256554 44.436783 4.760627 3.120949c1.968171 1.290344 3.635598 2.989257 4.888985 4.981125 2.403053 3.819404 3.849068 8.162231 4.215141 12.659973l4.299668 19.352104-4.294358 1.841904c-6.435569 2.760444-13.688446 2.92987-20.245735.473403l-5.298992-24.742599c-1.32196-6.172798.436211-13.394318 3.279377-19.030479z" fill="#ffb700"/><path d="m79.760902 68.077255 3.660073 16.473679-1.010712.433609c-2.423035-6.090897-7.176018-10.98439-13.227753-13.576065-3.788673-1.62246-6.993633-4.359833-9.188629-7.848137l4.740929 2.283028.624275-1.095635 12.327881 2.625519z" fill="#f58f00"/><g fill="#804848"><path d="m70.259224 54.20018 5.535667 2.485512 3.276368 2.824371 21.126976-.338829 1.355789 7.117523-2.937386 1.620003c-6.962387 3.839615-15.139908 4.838005-22.821747 2.786247l-10.50682-5.987976z"/><path d="m98.732918 61.898758.810829-2.193222c.504753-1.365631 2.119171-2.780007 3.56012-2.987694 1.500976-.216209 2.21849-.657082 2.953338-1.983452.205727-.371246.616928-.579445 1.037811-.525886.420792.053772.766495.358551.872544.769455.310333 1.203888-.142601 2.475403-1.144097 3.211975-.52111.383438-.417152.339103-.876434.795013l3.974701 3.681069c1.574989 1.458709-.191063 3.609924-1.90271 2.713127l-2.731155 2.224334c-.644768.519417-1.561898.528359-2.216919.021637-1.349434-1.044158-2.584427-2.228836-3.683808-3.533813-.512535-.608612-.922813-1.466614-.65422-2.192543z"/><path d="m95.478951 76.452477-.170205-.889649c-.202217-1.057121-.560241-2.078613-1.061653-3.030991-.108108-.204956-.309288-.344306-.539139-.373184-.229827-.028915-.459259.056244-.6147.227989-.176803.195633-.297096.435578-.347801.694176l-.299942-.634651c-.146759-.310219-.350784-.590096-.601608-.824318-.17009-.159058-.401986-.235168-.633248-.207794-.231392.027481-.439049.155144-.567383.349609-.338066.511498-.418586 1.1511-.21804 1.730408l-.236176-.105507c-.204681-.091537-.437774-.093849-.644264-.006744-.20636.087234-.36737.256004-.444496.46653-.346634.945648-.389137 1.976211-.121216 2.947258l-.297363-.656052c-.144264-.318359-.288818-.636864-.433479-.955254-.078026-.172142-.252396-.280006-.441521-.272865-.188995.007385-.354652.127937-.419594.305672-.379692 1.040001-.30413 2.191757.208168 3.173317.185249.354789.541336.58786.94046.615997.398995.028007.784256-.153107 1.017456-.478203.53019.411835 1.37835.481583 1.97284-.587356.607948.087776 1.604301-.233826 1.995773-.855797 1.059959 1.104179 2.13253.283371 1.957131-.632591z"/></g><path d="m68.19487 143.838501 1.820374 1.29657c1.150459.818237 2.398269 1.491516 3.714523 2.00328.44696.1745.803825.522416.988441.964707.184326.443085.18055.941894-.01091 1.381851-.318634.732407-.944748 1.287476-1.710708 1.515091h-17.480889l1.205151-1.710571-.218807-2.713654z" fill="#1a1a1a"/><path d="m202.579208 29.557709h15.52739l3.914291 20.354919h-23.355972zm-38.691269 22.457763 10.979462-10.979286 17.160782 11.625359-16.514709 16.514869zm10.979462 81.929657-10.979462-10.978431 11.625535-17.161492 16.514709 16.515061zm70.950333-92.908943 10.979843 10.979286-11.625198 17.160942-16.515427-16.514869zm10.979843 81.930512-10.979843 10.978431-17.160782-11.624862 16.515427-16.515061zm-104.388123-27.712174v-15.527389l20.355286-3.914284v23.356293zm115.866608-15.527389v15.527389l-20.355301 3.91462v-23.356293zm-50.169464 65.697151h-15.52739l-3.914291-20.355286h23.355972z" fill="#b3b3b3"/><path d="m210.342773 39.082672c26.735245 0 48.407929 21.673058 48.407929 48.408341 0 26.735237-21.672684 48.407959-48.407929 48.407959-26.734939 0-48.408172-21.672722-48.408172-48.407959 0-26.735283 21.673233-48.408341 48.408172-48.408341zm0 22.18161c-14.48471 0-26.226562 11.742165-26.226562 26.226731 0 14.48471 11.741852 26.226509 26.226562 26.226509 14.484345 0 26.226868-11.741799 26.226868-26.226509 0-14.484566-11.742523-26.226731-26.226868-26.226731z" fill="#ccc"/></g></svg>