<?xml version="1.0" encoding="UTF-8"?>
<!-- Generated by Pixelmator Pro 2.4.1 -->
<svg width="64" height="64" viewBox="0 0 64 64" xmlns="http://www.w3.org/2000/svg" xmlns:xlink="http://www.w3.org/1999/xlink">
    <g id="Group">
        <g id="g3690">
            <path id="rect2822" fill="none" stroke="#ffffff" stroke-width="3.055046" stroke-linecap="round" stroke-linejoin="round" d="M 9.055046 8.055046 L 54.880733 8.055046 L 57.93578 59.990826 L 6 59.990826 L 9.055046 8.055046 Z"/>
        </g>
        <path id="Ellipse" fill="#ffffff" fill-rule="evenodd" stroke="none" d="M 24.330275 18.747707 C 24.330275 17.34166 23.190451 16.201836 21.784403 16.201836 C 20.378357 16.201836 19.238533 17.34166 19.238533 18.747707 C 19.238533 20.153751 20.378357 21.293579 21.784403 21.293579 C 23.190451 21.293579 24.330275 20.153751 24.330275 18.747707 Z"/>
        <path id="Ellipse-copy" fill="#ffffff" fill-rule="evenodd" stroke="none" d="M 44.697247 18.747707 C 44.697247 17.34166 43.557423 16.201836 42.151375 16.201836 C 40.745331 16.201836 39.605503 17.34166 39.605503 18.747707 C 39.605503 20.153751 40.745331 21.293579 42.151375 21.293579 C 43.557423 21.293579 44.697247 20.153751 44.697247 18.747707 Z"/>
        <path id="Path" fill="#ffffff" fill-rule="evenodd" stroke="#ffffff" stroke-width="2.036697" stroke-linecap="round" stroke-linejoin="round" d="M 9 7.036697 L 31.510639 10.091743 L 55 7.036697 L 31.510639 5 L 9 7.036697 Z"/>
    </g>
    <path id="path1" fill="none" stroke="#ffffff" stroke-width="2" stroke-linecap="round" stroke-linejoin="round" d="M 22 20 C 22 27.731987 26.477152 34 32 34 C 37.52285 34 42 27.731987 42 20"/>
</svg>
