<svg height="64" viewBox="0 0 64 64" width="64" xmlns="http://www.w3.org/2000/svg"><path d="m9.055046 8.055046h45.825687l3.055047 51.93578h-51.93578z" fill="none" stroke="#fff" stroke-linecap="round" stroke-linejoin="round" stroke-width="3.055046"/><g fill="#fff" fill-rule="evenodd"><path d="m24.330275 18.747707c0-1.406047-1.139824-2.545871-2.545872-2.545871-1.406046 0-2.54587 1.139824-2.54587 2.545871 0 1.406044 1.139824 2.545872 2.54587 2.545872 1.406048 0 2.545872-1.139828 2.545872-2.545872z"/><path d="m44.697247 18.747707c0-1.406047-1.139824-2.545871-2.545872-2.545871-1.406044 0-2.545872 1.139824-2.545872 2.545871 0 1.406044 1.139828 2.545872 2.545872 2.545872 1.406048 0 2.545872-1.139828 2.545872-2.545872z"/><path d="m8.036697 7.036697 23.422018 3.055046 24.440367-3.055046-24.440367-2.036697z" stroke="#fff" stroke-linecap="round" stroke-linejoin="round" stroke-width="2.036697"/></g><path d="m22 20c0 7.731987 4.477152 14 10 14 5.52285 0 10-6.268013 10-14" fill="none" stroke="#fff" stroke-linecap="round" stroke-linejoin="round" stroke-width="2"/></svg>