<svg viewBox="0 0 45.717 46.296" xmlns="http://www.w3.org/2000/svg"><g fill="#fff" stroke-width="1.9" transform="matrix(.26119 0 0 .26119 -249.9253248 -40.0906397)"><path d="m29.357 296.26c0 9.0245-7.3158 16.34-16.34 16.34-9.0245 0-16.34-7.3158-16.34-16.34 0-9.0245 7.3158-16.34 16.34-16.34 9.0245 0 16.34 7.3158 16.34 16.34z" transform="matrix(.6614 0 0 .62588 1049.6 94.657)"/><path d="m29.357 296.26c0 9.0245-7.3158 16.34-16.34 16.34-9.0245 0-16.34-7.3158-16.34-16.34 0-9.0245 7.3158-16.34 16.34-16.34 9.0245 0 16.34 7.3158 16.34 16.34z" transform="matrix(.6614 0 0 .62588 1007.4 94.31)"/><path d="m1089.7 214.97c-3.0278-.0128-6.3415 1.8535-8.0815 4.7724l-18.106 30.355h-54.772c-4.397 0-7.9369 3.2426-7.9369 7.2759s3.5399 7.2759 7.9369 7.2759h55.558c1.821 0 3.4794-.56697 4.8158-1.506 1.4449-.82838 2.735-2.0214 3.6171-3.501l18.705-31.392h15.791c4.3599 0 7.8748-2.9422 7.8748-6.5913 0-3.6492-3.5149-6.5913-7.8748-6.5913h-16.494c-.3425-.0536-.6806-.0963-1.0334-.0978z"/><path d="m29.911 462.71c0 7.9538-6.4478 14.402-14.402 14.402-7.9538 0-14.402-6.4478-14.402-14.402 0-7.9538 6.4478-14.402 14.402-14.402 7.9538 0 14.402 6.4478 14.402 14.402z" transform="matrix(.55964361 0 0 .52958836 994.358962 -7.785249)"/><path d="m29.911 462.71c0 7.9538-6.4478 14.402-14.402 14.402-7.9538 0-14.402-6.4478-14.402-14.402 0-7.9538 6.4478-14.402 14.402-14.402 7.9538 0 14.402 6.4478 14.402 14.402z" transform="matrix(.55964361 0 0 .52958836 1012.648458 -7.785249)"/><path d="m29.911 462.71c0 7.9538-6.4478 14.402-14.402 14.402-7.9538 0-14.402-6.4478-14.402-14.402 0-7.9538 6.4478-14.402 14.402-14.402 7.9538 0 14.402 6.4478 14.402 14.402z" transform="matrix(.55964361 0 0 .52958836 1030.938152 -7.785249)"/><path d="m29.911 462.71c0 7.9538-6.4478 14.402-14.402 14.402-7.9538 0-14.402-6.4478-14.402-14.402 0-7.9538 6.4478-14.402 14.402-14.402 7.9538 0 14.402 6.4478 14.402 14.402z" transform="matrix(.55964361 0 0 .52958836 1049.227846 -7.785249)"/><path d="m29.911 462.71c0 7.9538-6.4478 14.402-14.402 14.402-7.9538 0-14.402-6.4478-14.402-14.402 0-7.9538 6.4478-14.402 14.402-14.402 7.9538 0 14.402 6.4478 14.402 14.402z" transform="matrix(.55964361 0 0 .52958836 982.168962 -27.105249)"/><path d="m29.911 462.71c0 7.9538-6.4478 14.402-14.402 14.402-7.9538 0-14.402-6.4478-14.402-14.402 0-7.9538 6.4478-14.402 14.402-14.402 7.9538 0 14.402 6.4478 14.402 14.402z" transform="matrix(.55964361 0 0 .52958836 1000.458458 -27.105249)"/><path d="m29.911 462.71c0 7.9538-6.4478 14.402-14.402 14.402-7.9538 0-14.402-6.4478-14.402-14.402 0-7.9538 6.4478-14.402 14.402-14.402 7.9538 0 14.402 6.4478 14.402 14.402z" transform="matrix(.55964361 0 0 .52958836 1018.748152 -27.105249)"/><path d="m29.911 462.71c0 7.9538-6.4478 14.402-14.402 14.402-7.9538 0-14.402-6.4478-14.402-14.402 0-7.9538 6.4478-14.402 14.402-14.402 7.9538 0 14.402 6.4478 14.402 14.402z" transform="matrix(.55964361 0 0 .52958836 1037.037846 -27.105249)"/><path d="m29.911 462.71c0 7.9538-6.4478 14.402-14.402 14.402-7.9538 0-14.402-6.4478-14.402-14.402 0-7.9538 6.4478-14.402 14.402-14.402 7.9538 0 14.402 6.4478 14.402 14.402z" transform="matrix(.55964361 0 0 .52958836 1055.037186 -27.105249)"/></g></svg>