<?xml version="1.0" encoding="UTF-8"?>
<!-- Generated by Pixelmator Pro 3.7.1 -->
<svg width="140" height="140" viewBox="0 0 140 140" xmlns="http://www.w3.org/2000/svg">
    <g id="layer1">
        <g id="g12821">
            <g id="g12290">
                <g id="g5814">
                    <g id="g8323">
                        <g id="g8683">
                            <linearGradient id="linearGradient1" x1="71.770334" y1="26.02212" x2="70.987096" y2="84.088282" gradientUnits="userSpaceOnUse">
                                <stop offset="1e-05" stop-color="#ffd67a" stop-opacity="1"/>
                                <stop offset="1" stop-color="#f78018" stop-opacity="1"/>
                            </linearGradient>
                            <path id="rect8685" fill="url(#linearGradient1)" stroke="none" d="M 11.619951 59.878548 L 129.199265 59.878548 L 129.199265 111.55928 L 11.619951 111.55928 Z"/>
                            <path id="path8689" fill="#ffd67f" stroke="none" d="M 11.735008 60.139626 L 19.55769 57.457626 L 123.038666 57.457626 L 128.849701 60.363152 Z"/>
                        </g>
                        <g id="g8602">
                            <linearGradient id="linearGradient2" x1="133.562426" y1="-15.528165" x2="133.274799" y2="141.66036" gradientUnits="userSpaceOnUse">
                                <stop offset="1e-05" stop-color="#ffd67a" stop-opacity="1"/>
                                <stop offset="1" stop-color="#f78018" stop-opacity="1"/>
                            </linearGradient>
                            <path id="rect8580" fill="url(#linearGradient2)" stroke="none" d="M 135.903305 123.997803 L 129.058121 123.997803 L 129.058121 69.025093 L 135.903305 69.025093 Z"/>
                        </g>
                        <g id="g8606">
                            <linearGradient id="linearGradient3" x1="9.389695" y1="-13.05713" x2="9.86318" y2="124.310239" gradientUnits="userSpaceOnUse">
                                <stop offset="1e-05" stop-color="#ffd67a" stop-opacity="1"/>
                                <stop offset="1" stop-color="#f78018" stop-opacity="1"/>
                            </linearGradient>
                            <path id="rect8568" fill="url(#linearGradient3)" stroke="none" d="M 11.858907 124 L 5.013721 124 L 5.013721 68.963715 L 11.858907 68.963715 Z"/>
                        </g>
                        <g id="g8610">
                            <path id="rect8551" fill="#f18719" stroke="none" d="M 11.619951 123.985596 L 129.199265 123.985596 L 129.199265 120.32296 L 11.619951 120.32296 Z"/>
                        </g>
                        <linearGradient id="linearGradient4" x1="46.1313" y1="46.045697" x2="-6.02292" y2="67.857006" gradientUnits="userSpaceOnUse">
                            <stop offset="1e-05" stop-color="#ff9324" stop-opacity="1"/>
                            <stop offset="1" stop-color="#ffd67f" stop-opacity="1"/>
                        </linearGradient>
                        <path id="path8633" fill="url(#linearGradient4)" stroke="none" d="M 11.615536 69.211098 L 17.865099 66.310936 L 18.672819 66.307823 L 29.599716 66.357117 L 29.650707 60.18853 L 34.92453 57.449821 L 28.61344 16.300392 L 20.567287 19.652893 Z"/>
                        <linearGradient id="linearGradient5" x1="9.783538" y1="64.69306" x2="17.36815" y2="18.548117" gradientUnits="userSpaceOnUse">
                            <stop offset="1e-05" stop-color="#fcd675" stop-opacity="1"/>
                            <stop offset="1" stop-color="#fccd4e" stop-opacity="1"/>
                        </linearGradient>
                        <path id="path8635" fill="url(#linearGradient5)" stroke="none" d="M 5.000005 69.122589 L 11.622152 69.207939 L 20.686098 19.496353 L 13.732502 19.496353 Z"/>
                        <path id="path8637" fill="#fba643" stroke="none" d="M 20.607315 19.614571 C 20.844397 19.575058 28.58843 16.335258 28.58843 16.335258 L 20.409964 15.97966 L 13.693096 19.594803 Z"/>
                        <linearGradient id="linearGradient6" x1="71.438451" y1="48.891032" x2="160.573241" y2="50.789405" gradientUnits="userSpaceOnUse">
                            <stop offset="1e-05" stop-color="#ff9324" stop-opacity="1"/>
                            <stop offset="1" stop-color="#ffd67f" stop-opacity="1"/>
                        </linearGradient>
                        <path id="path8662" fill="url(#linearGradient6)" stroke="none" d="M 128.880692 69.219933 L 123.081139 66.308617 L 112.336983 66.327522 L 112.414581 60.323982 L 107.272621 57.455765 L 112.161453 16.300583 L 120.207611 19.653053 Z"/>
                        <linearGradient id="linearGradient7" x1="131.009143" y1="64.69306" x2="123.743138" y2="23.920197" gradientUnits="userSpaceOnUse">
                            <stop offset="1e-05" stop-color="#fcd675" stop-opacity="1"/>
                            <stop offset="1" stop-color="#fccd4e" stop-opacity="1"/>
                        </linearGradient>
                        <path id="path8664" fill="url(#linearGradient7)" stroke="none" d="M 135.89888 69.029655 L 128.882446 69.217415 L 120.084908 19.492569 L 127.069916 19.591103 Z"/>
                        <path id="path8666" fill="#fba643" stroke="none" d="M 120.163231 19.614571 C 119.926178 19.575058 112.182121 16.335258 112.182121 16.335258 L 120.360588 15.97966 L 127.077454 19.594803 Z"/>
                        <linearGradient id="linearGradient8" x1="74.381138" y1="33.491684" x2="74.381138" y2="24.079492" gradientUnits="userSpaceOnUse">
                            <stop offset="1e-05" stop-color="#ff9324" stop-opacity="1"/>
                            <stop offset="1" stop-color="#ffd67f" stop-opacity="1"/>
                        </linearGradient>
                        <path id="rect8672" fill="url(#linearGradient8)" stroke="none" d="M 27.722261 21.707634 L 113.694359 21.707634 C 115.570923 21.707634 117.092209 23.228897 117.092209 25.105461 L 117.092209 25.105461 C 117.092209 26.982018 115.570923 28.503258 113.694359 28.503258 L 27.722261 28.503258 C 25.845673 28.503258 24.324409 26.982018 24.324409 25.105461 L 24.324409 25.105461 C 24.324409 23.228897 25.845673 21.707634 27.722261 21.707634 Z"/>
                        <linearGradient id="linearGradient9" x1="76.708746" y1="30.606515" x2="76.708746" y2="24.287476" gradientUnits="userSpaceOnUse">
                            <stop offset="1e-05" stop-color="#fbb04f" stop-opacity="1"/>
                            <stop offset="1" stop-color="#d45500" stop-opacity="0"/>
                        </linearGradient>
                        <path id="path8754" fill="url(#linearGradient9)" stroke="none" d="M 38.821041 23.181198 C 38.352684 23.208855 37.867203 23.240486 37.382885 23.264168 C 36.625832 23.30085 35.855732 23.327667 35.087364 23.36097 C 34.450905 23.384735 33.8078 23.40097 33.151382 23.416283 C 33.005806 23.41407 32.854019 23.418495 32.708874 23.416283 C 31.540207 23.39505 30.386234 23.362373 29.210304 23.347137 C 28.284473 23.333824 27.370176 23.332802 26.444616 23.319481 C 25.954086 23.309357 25.444054 23.28891 24.992659 23.264168 C 24.946203 23.262413 24.900667 23.265953 24.854374 23.264168 C 24.825987 23.308434 24.797737 23.356812 24.771402 23.402451 C 25.048405 23.406448 25.323999 23.412689 25.601109 23.416252 C 26.767155 23.430168 27.91848 23.448044 29.072046 23.471573 C 29.809952 23.48661 30.564547 23.495468 31.312254 23.499229 C 32.911953 23.50322 34.514187 23.50322 36.110832 23.499229 C 36.203632 23.498985 36.310505 23.501007 36.401226 23.499229 C 36.497433 23.497009 36.581215 23.487717 36.677795 23.485428 C 37.378429 23.464355 38.088081 23.445969 38.765915 23.416283 C 39.53661 23.381416 40.300953 23.343552 41.061436 23.305656 C 41.569309 23.283318 42.06319 23.252365 42.541107 23.222687 C 42.821648 23.208076 43.064564 23.196564 43.3293 23.181229 L 38.821014 23.181229 Z M 64.182182 23.195 C 65.407082 23.237968 66.589867 23.29612 67.791374 23.347115 C 68.816925 23.39222 69.878662 23.421898 70.930458 23.457741 C 71.773071 23.486694 72.656853 23.494415 73.530205 23.499199 C 75.524147 23.504738 77.523682 23.499199 79.517807 23.499199 C 80.179871 23.499062 80.819519 23.499199 81.481445 23.499199 C 82.230423 23.489693 82.992744 23.479836 83.721657 23.457741 C 84.709145 23.428329 85.712677 23.404152 86.722397 23.388596 C 87.667244 23.375282 88.620186 23.376717 89.571053 23.374794 C 89.696785 23.374634 89.83226 23.374794 89.958252 23.374794 C 90.563652 23.374825 89.816811 23.374794 91.009216 23.374794 C 91.363976 23.374771 91.719025 23.374771 92.073975 23.374794 C 94.056198 23.375687 96.037987 23.374794 98.020424 23.374794 C 98.61145 23.371689 99.213829 23.378792 99.80426 23.374794 C 99.960533 23.373909 100.611145 23.363075 100.772255 23.360992 C 101.631805 23.347466 102.492218 23.327019 103.3582 23.319534 C 104.173477 23.313187 104.990654 23.325638 105.805801 23.319534 C 106.951218 23.309921 108.101326 23.307816 109.249084 23.305733 C 110.487297 23.303955 111.730881 23.305496 112.96891 23.305733 C 113.618599 23.305763 114.268997 23.305763 114.918694 23.305733 C 115.193695 23.305656 115.473228 23.305679 115.748398 23.305733 L 115.748398 23.236595 C 113.616302 23.236488 111.47773 23.236404 109.345718 23.236595 C 108.124794 23.237 106.902031 23.234383 105.681213 23.236595 C 104.507034 23.238785 103.327324 23.241722 102.154938 23.250397 C 101.333145 23.253471 100.513214 23.255554 99.693474 23.264198 C 98.837868 23.274109 97.989418 23.294365 97.135239 23.305656 C 96.674255 23.310379 96.214134 23.305359 95.752396 23.305656 C 95.12574 23.305679 94.498222 23.305496 93.871727 23.305656 C 93.151756 23.305656 92.434273 23.306549 91.714493 23.305656 C 89.782425 23.305328 87.838264 23.300797 85.906548 23.305656 C 84.968323 23.309654 84.029846 23.318405 83.09935 23.333313 C 82.076691 23.350433 81.060249 23.373367 80.057091 23.402451 C 79.316895 23.42012 78.574913 23.429085 77.816887 23.430107 C 77.690163 23.430107 77.556221 23.430084 77.429688 23.430107 C 77.346664 23.430031 77.263718 23.430275 77.180779 23.430107 C 76.309288 23.427002 75.430855 23.427467 74.581032 23.402451 C 73.511864 23.369179 72.444267 23.334686 71.40049 23.291824 C 70.672554 23.2612 69.945694 23.22422 69.215599 23.19503 L 64.182045 23.19503 Z M 41.558857 23.430084 C 41.401611 23.429924 41.229836 23.440941 41.074833 23.443886 C 40.775604 23.450233 40.482399 23.461739 40.189816 23.471542 C 39.715084 23.482887 39.23584 23.489746 38.793167 23.513031 C 38.725189 23.516998 38.651291 23.523155 38.585743 23.526833 C 38.523296 23.5308 38.46785 23.536957 38.405972 23.540634 C 38.152714 23.555672 37.917114 23.551247 37.659237 23.568291 C 37.214783 23.590324 36.871613 23.637779 36.456135 23.665085 C 36.058704 23.702248 35.568821 23.722023 35.114803 23.748055 C 34.689526 23.782143 34.182034 23.801666 33.690449 23.8172 C 33.030277 23.833755 32.385986 23.837425 31.712954 23.844856 C 30.839224 23.861092 29.940701 23.869377 29.057894 23.872513 C 27.982328 23.875618 26.911623 23.872948 25.835896 23.872513 C 25.51795 23.872482 25.199598 23.872597 24.88176 23.872513 C 24.780451 23.874725 24.667015 23.870728 24.563705 23.872513 C 24.554848 23.895309 24.544395 23.918617 24.536049 23.941658 C 26.17407 23.941711 27.807041 23.942085 29.445253 23.941658 C 30.524088 23.941254 31.61656 23.945625 32.694965 23.941658 C 33.592812 23.937683 34.473564 23.928825 35.363827 23.914001 C 36.044174 23.9039 36.732464 23.892448 37.396633 23.872543 C 37.90369 23.855415 38.396736 23.835541 38.848591 23.803398 C 39.313141 23.776932 39.769234 23.741821 40.189922 23.706596 C 40.575958 23.675537 40.944221 23.64521 41.379166 23.623627 C 41.763069 23.605804 42.131359 23.586761 42.5131 23.568314 C 42.962902 23.55127 43.426559 23.54155 43.882141 23.526855 C 44.165653 23.517647 44.429798 23.502899 44.698048 23.499199 C 44.941017 23.500061 45.191845 23.508789 45.430927 23.513 C 45.814991 23.523613 46.174961 23.54657 46.564857 23.554459 C 47.162155 23.571503 47.738384 23.582733 48.307243 23.609772 C 48.673046 23.629303 49.036583 23.649017 49.413517 23.665085 C 49.611111 23.673592 49.945992 23.684639 50.146397 23.692741 C 50.262775 23.697525 50.360115 23.702362 50.478279 23.706543 C 51.176968 23.735252 51.898907 23.764397 52.607857 23.789513 C 53.136444 23.810532 53.671783 23.822006 54.225758 23.830971 C 55.985481 23.830734 57.748417 23.831863 59.508438 23.830971 C 60.573875 23.83065 61.637287 23.830971 62.702835 23.830971 C 62.867477 23.830971 63.022076 23.831001 63.186855 23.830971 C 64.456779 23.831161 65.707169 23.837402 66.975853 23.844803 C 68.343323 23.854469 69.715607 23.865623 71.055267 23.900116 C 72.20694 23.921341 73.36013 23.95446 74.470917 23.996918 C 74.830887 24.005234 75.029457 23.999992 75.383591 24.010719 C 75.40477 24.011147 76.043846 24.037155 76.102669 24.038376 C 76.246681 24.041451 76.387047 24.036156 76.531349 24.038376 L 80.278862 23.969231 C 79.534042 23.975548 78.814209 23.945763 78.093964 23.927773 C 76.951637 23.891907 75.804604 23.867081 74.636856 23.844803 C 73.285103 23.813469 71.931725 23.787544 70.557465 23.775658 C 69.292839 23.765961 68.021568 23.762238 66.754623 23.761833 C 64.210327 23.761398 61.665295 23.761673 59.121323 23.761833 C 58.723755 23.761803 58.329834 23.76178 57.932076 23.761833 C 57.371944 23.761505 56.823505 23.751434 56.286465 23.734177 C 55.580704 23.708733 54.871132 23.678482 54.170742 23.651207 C 53.438347 23.622551 52.703686 23.601563 51.985847 23.56823 C 51.431065 23.538818 50.851917 23.506599 50.271122 23.48526 C 49.8913 23.474434 49.524685 23.470947 49.151047 23.457603 C 48.666267 23.440102 48.16053 23.431595 47.657574 23.429947 C 45.77985 23.427734 43.879494 23.42952 42.001854 23.429947 C 41.845528 23.43084 41.716396 23.430107 41.559341 23.429947 Z M 98.917 23.582199 C 98.433952 23.584412 97.932938 23.596245 97.465042 23.609856 C 97.157227 23.621574 96.83728 23.61496 96.524704 23.623657 C 96.211624 23.632462 95.906075 23.653931 95.598175 23.665138 C 95.176163 23.682076 94.732277 23.681862 94.298302 23.692795 C 94.051445 23.69912 93.810417 23.713242 93.565422 23.720451 C 92.795273 23.742172 91.998405 23.738899 91.214584 23.748108 C 90.546745 23.756805 89.867096 23.75975 89.195633 23.761909 C 88.664406 23.762802 88.150429 23.775711 87.619194 23.775711 C 87.057549 23.776604 86.490417 23.769608 85.876808 23.775711 C 85.243484 23.780441 84.603165 23.78846 83.968483 23.789513 C 83.42318 23.795052 82.865395 23.800133 82.378189 23.830971 C 81.904999 23.873726 82.108452 23.923775 82.419647 23.969261 C 82.790718 24.014145 83.249489 24.045258 83.691864 24.079887 C 84.225853 24.119537 84.794762 24.148163 85.378929 24.176682 C 85.991814 24.203232 86.625656 24.222656 87.273399 24.231995 C 88.18573 24.241211 89.096405 24.246124 90.011429 24.245827 C 92.500526 24.232185 95.00296 24.244934 97.492508 24.231995 C 98.306877 24.226486 99.092445 24.210907 99.884804 24.190536 C 100.561501 24.16407 101.26297 24.145409 101.945213 24.121399 C 102.888649 24.082558 103.871117 24.064705 104.863037 24.052254 C 105.484512 24.046722 106.106407 24.040131 106.729904 24.038452 C 110.388931 24.038025 109.756554 24.038887 108.596771 24.038452 C 109.008461 24.038025 109.43161 24.047882 109.841331 24.052254 C 110.488403 24.057793 111.114868 24.051956 111.763512 24.052254 C 113.087013 24.052498 114.420815 24.052338 115.746101 24.052254 L 115.746101 23.983116 C 115.640335 23.983116 115.533188 23.983086 115.428047 23.983116 C 114.793396 23.982872 114.167419 23.987114 113.533577 23.983116 C 113.287849 23.980896 113.031219 23.986649 112.786842 23.983116 C 112.655632 23.980896 112.544739 23.971199 112.413475 23.969315 C 112.361267 23.96888 112.300201 23.969315 112.247536 23.969315 C 111.867577 23.969391 111.479599 23.969261 111.099747 23.969315 C 109.065399 23.969559 107.035721 23.967094 105.001511 23.969315 C 103.74823 23.971092 102.501457 23.967094 101.253983 23.983116 C 100.243095 23.998505 99.250908 24.029137 98.280838 24.066086 C 97.58593 24.086937 96.899368 24.113564 96.206573 24.135223 C 95.442795 24.155945 94.655571 24.17263 93.869591 24.176682 C 93.482719 24.178467 92.893959 24.175819 92.279297 24.176682 C 91.837517 24.176254 91.392952 24.165176 90.951767 24.16288 C 90.307747 24.157349 89.675041 24.157593 89.057297 24.135223 C 88.473129 24.112297 87.939598 24.072212 87.397888 24.038429 C 86.981354 24.004372 86.540443 23.968529 86.167183 23.927803 C 86.022255 23.912407 86.044128 23.916618 85.932098 23.900146 C 85.82547 23.884453 86.012634 23.879425 86.11187 23.872482 C 86.611282 23.853851 87.151535 23.859657 87.674454 23.858681 C 88.307426 23.856468 88.937729 23.850853 89.568924 23.844887 C 89.675064 23.843994 89.766762 23.846642 89.873146 23.844887 C 90.000359 23.843994 90.006546 23.83284 90.06675 23.831085 C 90.483353 23.831085 90.894699 23.831085 91.311302 23.831085 C 91.84494 23.831001 92.368286 23.833725 92.901604 23.831085 C 93.560913 23.827087 94.222275 23.825272 94.879097 23.817253 C 95.672852 23.81015 96.470985 23.799835 97.24379 23.775795 C 97.92627 23.756378 98.63765 23.747139 99.304199 23.720482 C 99.918808 23.697662 100.537766 23.679588 101.171059 23.665169 C 101.7995 23.652557 102.427826 23.649338 103.065529 23.651367 C 103.349228 23.651314 103.639008 23.651443 103.922897 23.651367 C 104.575859 23.651337 105.219658 23.649155 105.872681 23.651367 C 106.615036 23.654472 107.365311 23.66452 108.09903 23.679024 C 108.985481 23.695122 109.871124 23.702713 110.767891 23.70668 C 111.607834 23.706764 112.444801 23.70652 113.284668 23.70668 C 114.103836 23.706841 114.926117 23.70668 115.746124 23.70668 L 115.746124 23.637535 C 115.300919 23.637535 114.864075 23.637512 114.418594 23.637535 C 113.529205 23.63797 112.629761 23.623199 111.749733 23.609879 C 111.019958 23.595757 110.289375 23.586922 109.550987 23.582222 C 108.897972 23.578255 108.254898 23.582222 107.601204 23.582222 C 105.619308 23.581795 103.622963 23.581978 101.641037 23.582222 C 100.886879 23.582382 100.141197 23.582382 99.386978 23.582222 C 99.226036 23.581329 99.077812 23.581795 98.916809 23.582222 Z M 47.696468 23.997047 C 46.775013 24.001045 45.843754 24.013474 44.930779 24.010849 C 44.467823 24.011742 43.993713 24.003502 43.534134 24.010849 C 43.063213 24.018791 42.599934 24.039536 42.137463 24.052338 C 41.631454 24.068085 41.121208 24.070946 40.602505 24.079994 C 39.726021 24.100685 38.863956 24.122696 37.975101 24.135307 C 36.816917 24.156319 35.623405 24.175926 34.504139 24.218277 C 33.524776 24.249741 32.556816 24.279022 31.558708 24.301247 C 31.372078 24.305222 31.165003 24.311646 30.977913 24.315048 C 30.442413 24.307137 29.911665 24.292824 29.373816 24.287392 C 28.283636 24.27948 27.188057 24.290474 26.096476 24.287392 C 25.538828 24.287422 24.981314 24.287392 24.423262 24.287392 C 24.417562 24.310753 24.414673 24.332954 24.40946 24.356537 C 24.852537 24.356079 25.295776 24.354752 25.73699 24.356537 C 26.362915 24.358749 26.970097 24.375336 27.59 24.384193 C 28.234426 24.392433 28.878448 24.383789 29.525982 24.384193 C 31.441977 24.388161 33.365589 24.406013 35.237019 24.356537 C 36.204659 24.331581 37.163788 24.306892 38.113335 24.273567 C 39.237083 24.231995 40.426464 24.226463 41.584297 24.204422 C 42.496029 24.193619 43.37978 24.167366 44.280872 24.149109 C 44.822018 24.144356 45.331482 24.121239 45.857311 24.107651 C 46.207939 24.102112 46.557079 24.085503 46.908272 24.079994 C 47.508057 24.095818 48.099194 24.116264 48.692116 24.135307 C 49.320744 24.156456 49.952015 24.185677 50.586582 24.204453 C 51.190174 24.214661 51.746147 24.240234 52.328968 24.259766 C 52.875813 24.275673 53.461979 24.275513 54.016037 24.287422 C 54.624001 24.302055 55.236477 24.312859 55.85519 24.315079 C 57.301991 24.317291 58.750225 24.315079 60.197323 24.315079 C 60.309029 24.315506 60.349705 24.313293 60.543034 24.315079 C 61.582081 24.323288 62.613354 24.327095 63.654404 24.32888 C 64.673119 24.330635 65.69178 24.328712 66.710487 24.32888 C 67.751785 24.328423 68.794884 24.328743 69.835716 24.32888 C 69.724091 24.329041 70.070313 24.340897 70.181427 24.342682 C 70.505829 24.346649 70.827827 24.351082 71.149414 24.356483 C 71.775368 24.367287 72.406181 24.371796 73.030083 24.38414 C 73.653198 24.398071 74.264 24.409309 74.896927 24.411797 C 76.135513 24.414009 77.391548 24.411797 78.6306 24.411797 C 78.729828 24.412689 78.740227 24.410042 78.920998 24.411797 C 79.32856 24.416573 79.756294 24.422897 80.165558 24.425598 C 80.538712 24.432724 80.893982 24.450554 81.244179 24.467079 C 81.623917 24.485748 82.003929 24.502304 82.378105 24.522392 C 81.976868 24.526367 81.558937 24.528389 81.161201 24.536194 C 81.129036 24.536629 80.593971 24.548698 80.552757 24.549995 C 80.031189 24.566933 79.500954 24.574951 78.962486 24.577652 C 78.407074 24.573654 77.878601 24.59005 77.344559 24.605309 C 76.520386 24.636375 75.662399 24.655357 74.81395 24.674454 C 73.598862 24.70079 72.367966 24.712105 71.13559 24.715912 C 70.939995 24.716347 70.506371 24.715019 70.181427 24.715912 C 69.850624 24.717697 69.52755 24.717697 69.199608 24.715912 C 69.157745 24.715942 69.138649 24.715912 69.102806 24.715912 C 68.454224 24.712807 67.81015 24.70211 67.166832 24.688255 C 66.479324 24.671349 65.78933 24.652092 65.106392 24.632942 C 64.313202 24.612228 63.509285 24.59948 62.700241 24.591484 C 61.625835 24.582542 60.540897 24.578247 59.464386 24.577682 C 57.150124 24.57679 54.850334 24.57782 52.536449 24.577682 C 52.001785 24.577705 51.453373 24.577705 50.918549 24.577682 C 49.918713 24.57782 48.916908 24.58387 47.917805 24.577682 C 46.986004 24.573685 46.05896 24.566177 45.138313 24.550026 C 44.258858 24.533875 43.383263 24.51532 42.51091 24.494713 C 41.795723 24.478584 41.07621 24.4505 40.353676 24.4394 C 39.750626 24.43116 39.16227 24.439697 38.555977 24.4394 C 36.336624 24.438507 34.096363 24.438965 31.876736 24.4394 C 30.620131 24.438507 29.376894 24.450226 28.129202 24.467056 C 27.165451 24.479263 26.2279 24.500275 25.280544 24.522369 C 24.978533 24.534225 24.671741 24.539223 24.367867 24.550026 C 24.358387 24.608391 24.346664 24.670433 24.34021 24.729797 C 24.701963 24.721992 25.066095 24.713806 25.418827 24.702141 C 25.956245 24.684692 26.482754 24.663139 27.022926 24.646828 C 27.669298 24.626457 28.294603 24.610039 28.945107 24.591507 C 29.864508 24.567177 30.783722 24.533546 31.724596 24.522369 C 32.77021 24.509834 33.826302 24.509758 34.87748 24.508568 C 34.405289 24.508377 35.700676 24.508568 35.762501 24.508568 C 36.062836 24.509003 36.375328 24.50589 36.675179 24.508568 C 37.414619 24.516479 38.118061 24.533684 38.846214 24.550026 C 39.72089 24.569664 40.605694 24.590103 41.487473 24.605339 C 42.412628 24.623787 43.342022 24.642097 44.280815 24.646797 C 45.281677 24.653114 46.292637 24.648552 47.295414 24.646797 C 49.390747 24.646881 51.478249 24.646637 53.573742 24.646797 C 54.43132 24.646797 55.288334 24.646851 56.145832 24.646797 C 54.903839 24.646637 52.820553 24.646477 57.70842 24.646797 C 58.156788 24.64769 58.601864 24.658302 59.049778 24.660599 C 59.845695 24.666916 60.628891 24.671913 61.41444 24.688255 C 62.110344 24.705788 62.822132 24.725204 63.516361 24.743568 C 63.978317 24.753563 64.417862 24.76561 64.885406 24.771225 C 65.452263 24.778358 66.032005 24.782867 66.600136 24.785027 C 69.292816 24.784973 71.983284 24.776817 74.675941 24.771225 C 75.934921 24.767258 77.212944 24.758698 78.451073 24.729767 C 79.322159 24.710915 80.181656 24.6875 81.037018 24.660629 C 81.576759 24.648094 82.116661 24.6465 82.668777 24.646828 C 83.209648 24.642075 83.735619 24.636292 84.259071 24.619171 C 84.859123 24.603638 85.485695 24.595619 86.098228 24.591507 C 86.187843 24.589729 86.485313 24.586998 86.568398 24.577705 C 86.633568 24.570038 86.673973 24.557693 86.692848 24.550049 C 86.670944 24.533577 86.56102 24.504868 86.416283 24.494736 C 85.953056 24.463654 85.447105 24.43483 84.95047 24.411766 C 84.60038 24.390594 84.234657 24.38781 83.871849 24.370285 C 83.46302 24.358559 83.042007 24.365883 82.627289 24.356483 C 81.287605 24.339142 79.939278 24.339058 78.589386 24.342682 C 77.964378 24.340897 77.32708 24.340897 76.708717 24.32888 C 76.083984 24.316673 75.470261 24.296928 74.84185 24.287422 C 74.515617 24.282669 74.172874 24.278374 73.846207 24.27359 C 72.474113 24.253548 71.095322 24.272728 69.711502 24.27359 C 68.892899 24.273643 68.082314 24.275375 67.26387 24.27359 C 66.238136 24.271835 65.217613 24.267593 64.193954 24.259789 C 62.640362 24.24704 61.064083 24.243965 59.506008 24.245987 C 58.899284 24.244232 58.30801 24.24334 57.708309 24.232185 C 57.157307 24.220604 56.61327 24.216087 56.062698 24.204529 C 55.464348 24.188675 54.885582 24.159752 54.278858 24.149216 C 53.635189 24.134171 53.016121 24.100571 52.384388 24.080078 C 51.736206 24.05674 51.075226 24.045372 50.42075 24.024757 C 49.755043 24.004395 49.077557 23.997673 48.387943 23.997101 C 48.1581 23.996864 47.926853 23.995781 47.696522 23.997101 Z M 115.719093 24.425728 C 115.021751 24.425896 114.335197 24.437561 113.603371 24.439529 C 113.594833 24.43956 113.096581 24.452873 113.077888 24.453362 C 112.884857 24.458084 112.773529 24.463486 112.580063 24.467163 C 112.069954 24.482208 111.572746 24.489471 111.072792 24.508621 C 110.518143 24.528442 109.988632 24.56218 109.468689 24.591591 C 109.167572 24.607391 108.841743 24.608719 108.528358 24.619247 C 108.33757 24.625572 108.163231 24.639481 107.97522 24.646904 C 107.399071 24.674156 106.759209 24.675667 106.149864 24.688362 C 105.53331 24.699921 104.933746 24.714699 104.310715 24.716019 C 104.145767 24.716019 104.223122 24.716019 104.020317 24.716019 C 103.23658 24.716911 102.454163 24.712479 101.669479 24.716019 C 101.580757 24.716423 101.503944 24.726151 101.42057 24.72982 C 101.339355 24.733818 101.252953 24.72628 101.171654 24.72982 C 100.696358 24.745834 100.2034 24.767014 99.733498 24.785133 C 99.44075 24.801559 99.149818 24.826973 99.304817 24.868103 C 99.33091 24.874451 99.401215 24.876129 99.4431 24.881935 C 100.023926 24.918777 100.717697 24.940514 101.36528 24.95108 C 102.839035 24.962799 104.299988 24.983543 105.762726 25.006393 C 107.890228 25.04142 110.008247 25.070938 112.15168 25.089363 C 113.34919 25.098785 114.545998 25.100594 115.74707 25.103165 L 115.74707 25.034019 C 115.699593 25.033699 115.656189 25.034348 115.608788 25.034019 C 114.515427 25.025703 113.433403 25.007629 112.345276 24.992561 C 111.10704 24.97525 111.444862 24.984406 110.229553 24.964905 C 109.905045 24.960152 109.572807 24.955963 109.247704 24.95108 C 107.831673 24.929146 106.430244 24.89225 105.00235 24.881935 C 104.48365 24.875618 103.968079 24.856415 103.467369 24.840477 C 103.945366 24.826538 104.42115 24.81601 104.891724 24.799019 C 105.112732 24.791107 105.319321 24.775169 105.513977 24.771362 C 106.337364 24.771385 107.179764 24.773575 108.003098 24.771362 C 108.628098 24.768257 109.241844 24.772255 109.856102 24.757561 C 110.47393 24.743355 111.094345 24.729446 111.681458 24.702248 C 112.192085 24.682823 112.736229 24.662109 113.216438 24.633102 C 113.722313 24.604019 114.254738 24.583702 114.792885 24.563965 C 115.113693 24.552864 115.425369 24.545731 115.747017 24.536308 L 115.747017 24.425674 C 115.73967 24.425674 115.726654 24.425674 115.71936 24.425674 Z M 95.225563 24.494873 L 95.225563 24.508675 C 94.30127 24.515808 93.252739 24.540062 92.404564 24.536331 C 92.013695 24.538544 91.62793 24.55545 91.242973 24.563988 C 90.836273 24.573418 90.411324 24.578522 90.012268 24.591644 C 89.553795 24.60585 89.103859 24.606392 88.643227 24.619301 C 88.121338 24.635727 87.586296 24.643555 87.066788 24.660789 C 86.421387 24.684937 85.803749 24.715805 85.227631 24.757584 C 84.770424 24.788025 84.318764 24.827568 83.844788 24.854385 C 83.443924 24.874992 83.039467 24.896759 82.614082 24.909698 C 82.023514 24.924606 81.41954 24.931633 80.816383 24.937355 C 80.004913 24.947487 79.225464 24.961502 78.424095 24.978813 C 77.891617 24.98735 77.356575 25.004257 76.819992 25.00647 C 76.568893 25.00647 76.310341 25.00647 76.059402 25.00647 C 73.983871 25.006874 71.912033 25.005577 69.836823 25.00647 C 68.613739 25.006798 67.395676 25.006691 66.172318 25.00647 C 66.166023 25.00647 65.479843 25.00647 65.370262 25.00647 C 64.731377 25.002472 64.075172 24.993942 63.448086 24.978813 C 62.655083 24.967712 61.885956 24.948456 61.083393 24.951157 C 60.359077 24.950264 59.635296 24.943459 58.912357 24.937355 C 58.04438 24.930229 57.168865 24.926231 56.298809 24.923531 C 55.24736 24.91394 54.208744 24.891357 53.173584 24.868217 C 51.913898 24.85244 50.654377 24.837479 49.38459 24.840561 C 48.186485 24.840668 47.001049 24.84053 45.802998 24.840561 C 43.605412 24.840393 41.390564 24.839691 39.192787 24.840561 C 38.569862 24.840668 37.948231 24.836586 37.325924 24.840561 C 36.633396 24.844551 35.942108 24.847389 35.251659 24.854385 C 34.622517 24.860703 33.998295 24.88102 33.412502 24.909698 C 32.700718 24.940353 31.973858 24.964203 31.255266 24.992668 C 30.361387 25.022408 29.444551 25.037102 28.517235 25.047981 C 27.499872 25.056061 26.494177 25.061707 25.474979 25.061783 C 25.13205 25.061623 24.815428 25.062675 24.382505 25.061783 L 24.327192 25.061783 C 24.32703 25.075859 24.327192 25.089172 24.327192 25.103241 C 24.327192 25.107941 24.327192 25.112343 24.327192 25.117043 C 25.691021 25.12104 27.05323 25.130844 28.420408 25.130844 C 29.658865 25.129982 30.906179 25.131012 32.140232 25.117043 C 33.080971 25.10173 34.012688 25.080177 34.91975 25.047905 C 35.411686 25.024132 35.924011 25.012009 36.427021 24.992592 C 36.655811 24.983704 36.879364 24.974846 37.104588 24.964935 C 37.691891 24.939331 38.336857 24.926849 38.957596 24.923477 C 39.642376 24.913345 40.314594 24.912453 41.004208 24.909676 C 41.403286 24.909622 41.794399 24.895874 42.193451 24.895874 C 43.393177 24.896034 44.603058 24.895683 45.802647 24.895874 C 47.074512 24.891876 48.329254 24.921608 49.59164 24.937332 C 50.615753 24.955482 51.63028 24.980164 52.661552 24.992645 C 53.522858 24.999771 54.386597 24.999046 55.247498 25.006447 C 55.972057 25.012764 56.691948 25.005119 57.418533 25.006447 C 58.213642 25.004227 58.996895 25.022163 59.783226 25.034103 C 60.40823 25.045685 61.047421 25.054817 61.677692 25.06176 C 62.214813 25.066483 62.743183 25.075562 63.281792 25.075562 C 65.398193 25.076454 67.512726 25.076019 69.62915 25.075562 C 70.900719 25.075157 72.174339 25.075317 73.445801 25.075562 C 73.18055 25.075615 71.504799 25.075989 74.966927 25.075562 C 76.625832 25.075478 78.286346 25.075584 79.945168 25.075562 C 80.668861 25.079559 81.37471 25.058273 82.0886 25.047905 C 82.873528 25.023491 83.672821 25.013924 84.480896 25.006447 C 85.099663 24.997101 85.749138 24.986214 86.347763 24.964989 C 86.769341 24.946159 87.17955 24.920639 87.578468 24.895844 C 88.043823 24.867699 88.464859 24.840149 88.933655 24.812874 C 89.474907 24.767448 90.134621 24.735901 90.772804 24.716072 C 91.040787 24.704865 91.314438 24.709244 91.588715 24.702271 C 91.843163 24.695923 92.094963 24.681587 92.349304 24.674614 C 92.718407 24.669861 93.069923 24.658058 93.427917 24.646957 C 93.433998 24.669701 93.347977 24.696518 93.248154 24.716103 C 93.07843 24.759666 92.716919 24.787025 92.390785 24.812904 C 91.924728 24.843147 91.470901 24.878532 91.007942 24.909698 C 90.619316 24.935143 90.19944 24.945137 89.791039 24.965012 C 89.450783 24.988243 89.121445 25.019844 88.809196 25.047981 C 88.489815 25.072105 88.197205 25.090576 87.827347 25.103294 C 87.428726 25.104164 87.073669 25.133469 86.69342 25.144753 C 86.630432 25.146515 86.548027 25.14254 86.485992 25.144753 C 86.376228 25.148727 86.328613 25.143867 86.306221 25.144753 C 86.300468 25.14473 86.294281 25.14492 86.292419 25.144753 C 86.310135 25.144783 86.326286 25.154045 86.112648 25.158554 C 85.901848 25.163338 85.701202 25.166954 85.490395 25.172356 C 84.993279 25.185188 84.47625 25.184402 83.969269 25.186157 C 83.392281 25.187943 82.803871 25.186623 82.226883 25.186157 C 80.319855 25.186432 78.408836 25.185837 76.501694 25.186157 C 76.196205 25.186134 75.894516 25.186188 75.58902 25.186157 C 76.428642 25.186272 74.658676 25.186157 73.818977 25.186157 C 73.2323 25.186081 72.649506 25.186134 72.062744 25.186157 C 70.017784 25.185997 67.967773 25.185921 65.92292 25.186157 C 65.726051 25.186157 65.525215 25.186188 65.32827 25.186157 C 66.096771 25.186157 64.213028 25.186157 63.599739 25.186157 C 61.583542 25.186592 59.558998 25.186157 57.542667 25.186157 C 56.722874 25.186272 55.914936 25.186211 55.095058 25.186157 C 54.396374 25.186157 53.705654 25.186134 53.006939 25.186157 C 52.236164 25.186432 51.468334 25.186348 50.697563 25.186157 C 49.956715 25.186272 49.212006 25.186241 48.47121 25.186157 C 47.700142 25.186348 46.93277 25.186348 46.161835 25.186157 C 45.363323 25.186081 44.540318 25.186211 43.741833 25.186157 C 42.877258 25.186241 42.03418 25.186157 41.169743 25.186157 C 40.42984 25.185997 39.697067 25.186211 38.957191 25.186157 C 38.352142 25.179054 37.770863 25.198776 37.187153 25.213814 C 36.778702 25.222382 36.365334 25.219437 35.956448 25.227646 C 35.463596 25.239449 34.943462 25.244446 34.449177 25.255302 C 33.844749 25.265106 33.259983 25.29039 32.651478 25.296761 L 36.3437 25.352074 C 36.955769 25.343132 37.558388 25.334679 38.169052 25.324417 C 38.674088 25.316101 39.158138 25.305458 39.662525 25.296761 C 40.071163 25.289627 40.50687 25.282066 40.907082 25.269104 C 41.473618 25.254898 42.028187 25.252357 42.608009 25.255302 C 43.339188 25.255302 44.075443 25.255547 44.806728 25.255302 C 45.673706 25.255302 46.539307 25.255219 47.406475 25.255302 C 48.207607 25.255196 49.025242 25.255333 49.826481 25.255302 C 50.601196 25.255302 51.347446 25.255219 52.121998 25.255302 C 52.861038 25.255219 53.609447 25.255112 54.348351 25.255302 C 55.121422 25.255196 55.89835 25.255112 56.671528 25.255302 C 57.367352 25.255356 58.077518 25.255272 58.773453 25.255302 C 59.587978 25.255302 60.378792 25.255112 61.193455 25.255302 C 61.338814 25.255302 61.476696 25.255302 61.622135 25.255302 C 63.423344 25.255356 65.24157 25.255737 67.042885 25.255302 C 67.881126 25.255112 68.721336 25.255302 69.559662 25.255302 C 69.927002 25.255302 69.50872 25.255356 71.343498 25.255302 C 71.532372 25.255272 71.721512 25.255302 71.910469 25.255302 C 73.829704 25.255112 75.743645 25.255463 77.663094 25.255302 C 78.491158 25.255112 79.310143 25.255463 80.13839 25.255302 C 80.314674 25.255302 78.584335 25.255356 81.396805 25.255302 C 82.909584 25.255547 84.419693 25.255737 85.932526 25.255302 C 86.511459 25.255196 87.068672 25.258842 87.647255 25.255302 C 88.163498 25.251305 88.690948 25.241043 89.196037 25.227646 C 89.606171 25.219437 89.998497 25.212898 90.399139 25.199989 C 90.784309 25.186646 91.185257 25.174927 91.56073 25.158501 C 91.906631 25.13665 92.21769 25.101219 92.54258 25.075531 C 92.851448 25.050575 93.18055 25.035233 93.538223 25.020218 C 93.955559 25.002312 94.341545 24.976761 94.72747 24.95108 C 95.199799 24.920013 95.663078 24.887497 96.124115 24.854279 C 96.496109 24.823677 96.851212 24.794373 97.022934 24.743652 C 97.196793 24.694038 97.317711 24.628105 97.092079 24.577705 C 96.754738 24.516212 96.218216 24.496628 95.612411 24.494736 C 95.486221 24.494331 95.357254 24.493874 95.225212 24.494736 Z M 115.746964 24.799103 L 112.85685 24.854416 C 113.097954 24.854439 113.362366 24.854385 113.603584 24.854416 C 114.056221 24.854416 114.492249 24.854439 114.944916 24.854416 C 115.213463 24.854416 115.4785 24.854385 115.746964 24.854416 L 115.746964 24.799103 Z M 97.880623 25.075668 C 97.483139 25.077454 97.080978 25.085091 96.691376 25.08947 C 96.190742 25.099304 95.690651 25.107269 95.225563 25.130951 C 94.702057 25.156616 94.175819 25.185379 93.662979 25.213928 L 97.410507 25.255386 C 97.691238 25.236557 98.013344 25.228432 98.309334 25.213928 C 98.411827 25.209145 98.513138 25.205688 98.613556 25.200096 C 98.718132 25.19532 98.827118 25.191292 98.93161 25.186295 C 99.263519 25.170494 99.604233 25.16507 99.954918 25.158638 C 99.960991 25.158745 99.962723 25.158554 99.968719 25.158638 C 100.32634 25.162636 100.695389 25.164848 101.047333 25.17244 C 101.512749 25.183296 101.948753 25.207634 102.388695 25.227753 C 102.821053 25.249901 103.245087 25.268646 103.702393 25.283066 C 104.13073 25.294815 104.564995 25.296547 105.002266 25.296898 C 105.8424 25.29776 106.67894 25.297218 107.519043 25.296898 C 107.848824 25.301674 108.184029 25.307022 108.514694 25.310699 C 108.895515 25.314667 109.266747 25.310699 109.648621 25.310699 C 111.129105 25.31086 112.621063 25.312454 114.101166 25.310699 L 110.408943 25.241554 C 109.229233 25.241203 110.90361 25.241478 112.248123 25.241554 C 111.915382 25.239769 111.563866 25.237045 111.238647 25.227753 C 109.966705 25.225967 108.707802 25.228615 107.435829 25.227753 C 106.964935 25.21981 106.500145 25.198502 106.080643 25.17244 C 105.644615 25.151375 105.243347 25.129364 104.780769 25.117126 C 104.434982 25.104591 104.064148 25.091682 103.702156 25.08947 C 103.314796 25.084686 102.931732 25.07283 102.540565 25.075638 C 102.163445 25.075562 101.797363 25.07653 101.420464 25.075638 C 100.567497 25.075638 99.664009 25.075638 98.765404 25.075638 C 98.465874 25.075615 98.178612 25.074318 97.880379 25.075638 Z M 46.341496 25.573494 C 45.904793 25.573845 45.449886 25.583405 45.013966 25.587296 C 44.486217 25.591293 43.970539 25.596611 43.465183 25.614952 C 42.963684 25.630264 42.491844 25.656731 41.985512 25.670265 C 41.459248 25.682579 40.939034 25.707939 40.422924 25.725578 C 39.925049 25.744133 39.477947 25.774841 38.984768 25.794724 C 38.526054 25.825668 38.001949 25.848572 37.491295 25.863861 C 37.088543 25.876099 36.749611 25.900864 36.37122 25.919174 C 35.969063 25.934219 35.583324 25.945213 35.181976 25.960663 C 34.684937 25.983269 34.137066 25.996498 33.63319 26.015976 C 33.139175 26.035202 32.614613 26.040604 32.098206 26.043633 C 32.047241 26.043793 31.997301 26.043472 31.946093 26.043633 C 31.636465 26.043579 31.329269 26.043526 31.019562 26.043633 C 31.170864 26.043526 30.727327 26.031395 30.577051 26.0298 C 30.097647 26.026726 29.630749 26.014763 29.16655 26.002144 C 28.657356 25.990425 28.166824 25.973221 27.659277 25.960686 C 27.122021 25.946754 26.585522 25.928848 26.041378 25.919228 C 25.530941 25.909805 25.005461 25.899246 24.492592 25.891571 C 24.469526 25.891144 24.446463 25.892006 24.42345 25.891571 C 24.434496 25.938484 24.438143 25.983727 24.451107 26.029854 C 24.784098 26.038094 25.118195 26.045357 25.446754 26.05751 C 25.920135 26.067505 26.366022 26.092865 26.843399 26.098976 C 27.17115 26.103729 27.483747 26.111801 27.783733 26.11277 C 27.888716 26.11277 28.116211 26.11261 28.253901 26.11277 C 29.152992 26.11261 30.050976 26.102646 31.268499 26.11277 C 31.298155 26.112694 31.427095 26.112907 31.448269 26.11277 C 32.4067 26.112717 33.366074 26.11248 34.324585 26.11277 C 34.819168 26.11245 35.324581 26.103836 35.818058 26.098976 C 36.342213 26.093437 36.852463 26.077042 37.353039 26.05751 C 37.870983 26.042877 38.403244 26.038795 38.901825 26.016052 C 39.310467 25.999092 39.738281 25.981888 40.13253 25.960739 C 40.480751 25.939323 40.829136 25.931221 41.211147 25.919281 C 41.720558 25.900726 42.224243 25.877419 42.704617 25.850143 C 43.181427 25.826782 43.640602 25.796692 44.142776 25.780998 C 44.655346 25.76255 45.167809 25.739296 45.691559 25.725685 C 46.184738 25.708023 46.681644 25.697975 47.185032 25.684227 C 47.692955 25.671616 48.201477 25.660355 48.720016 25.65657 C 49.041039 25.652573 49.366035 25.644333 49.688007 25.642738 C 49.81076 25.642769 50.000687 25.642738 50.033718 25.642738 C 50.16098 25.642769 50.279713 25.642769 50.407085 25.642738 C 52.166512 25.642738 53.943977 25.642715 55.703484 25.642738 C 55.807575 25.642769 57.772079 25.642738 57.14164 25.642738 C 58.75214 25.642769 60.357346 25.643631 61.967659 25.642738 L 62.271885 25.642738 C 62.657974 25.643204 63.05246 25.648499 63.433472 25.65657 C 63.882977 25.666779 64.314255 25.681389 64.774803 25.684227 C 65.416718 25.68428 66.055557 25.680229 66.696983 25.684227 C 66.947433 25.685982 67.195786 25.693733 67.443718 25.698029 C 67.577873 25.700241 67.724098 25.695816 67.858574 25.698029 C 67.930717 25.698891 67.979576 25.697136 68.05217 25.698029 C 68.453117 25.701996 68.852303 25.714935 69.241417 25.725685 C 69.674446 25.736702 70.050545 25.764359 70.499832 25.767143 C 70.889053 25.777458 71.287674 25.784401 71.550789 25.822456 C 71.813911 25.856705 71.977448 25.903481 72.103928 25.946915 C 72.313034 25.988991 72.625336 26.006577 72.988953 26.029884 C 73.062302 26.033852 73.132713 26.040985 73.210205 26.043686 C 73.587952 26.056999 74.028 26.050491 74.413277 26.057487 C 74.839668 26.0597 75.240204 26.060593 75.657837 26.071289 C 76.161308 26.074394 76.680573 26.075714 77.178963 26.085114 C 77.63028 26.085197 78.082893 26.085037 78.534157 26.085114 L 79.626625 26.085114 C 81.393181 26.08506 83.169998 26.090759 84.936745 26.085114 C 85.70752 26.081123 86.470978 26.0728 87.232269 26.057457 C 87.775841 26.047302 88.33049 26.049927 88.877876 26.043633 C 89.502533 26.033905 90.119247 26.024887 90.744743 26.015976 C 91.48143 26.002579 92.217583 25.985809 92.957298 25.974518 C 93.665222 25.961037 94.379654 25.947182 95.086876 25.93306 C 95.760956 25.918633 96.439926 25.915527 97.119682 25.905403 C 97.522087 25.899078 97.919868 25.893974 98.322784 25.891602 C 98.274223 25.891602 98.784256 25.891602 98.875923 25.891602 C 99.837891 25.894707 100.790779 25.900322 101.752235 25.905403 C 103.144371 25.910934 104.550438 25.911583 105.942253 25.919205 C 107.153992 25.927032 108.324875 25.91877 109.523842 25.919205 C 110.091461 25.923981 110.665962 25.941864 111.210915 25.960663 C 112.177528 25.991745 113.178146 26.010574 114.14254 26.043633 C 114.668213 26.059677 115.207764 26.061623 115.746643 26.071289 L 115.746643 25.933006 C 115.453163 25.925903 115.154312 25.913284 114.861618 25.90535 C 114.32782 25.888412 113.804474 25.874344 113.257523 25.863892 C 112.79554 25.857567 112.325699 25.85009 111.860878 25.85009 C 111.405487 25.85009 110.960892 25.85009 110.505692 25.85009 C 110.650131 25.849922 110.207436 25.850975 110.063179 25.85009 C 109.896729 25.849197 109.745529 25.851868 109.579155 25.85009 C 108.165062 25.842171 106.748459 25.841553 105.333801 25.836288 C 104.413559 25.832291 103.488052 25.827484 102.568115 25.822487 C 102.129738 25.820267 101.693359 25.822487 101.25441 25.822487 C 99.461388 25.821594 97.668037 25.822029 95.875259 25.822487 C 95.481766 25.824699 95.079124 25.819382 94.686012 25.822487 C 94.275589 25.826454 93.862762 25.829781 93.455284 25.836288 C 92.763481 25.843414 92.090721 25.863052 91.408669 25.877747 C 90.702263 25.890144 89.984856 25.892624 89.279091 25.905403 C 88.540726 25.915451 87.816711 25.934975 87.080368 25.946861 C 86.439697 25.952393 85.810318 25.966606 85.172043 25.974518 C 84.623772 25.97419 84.091103 25.991158 83.554123 26.002174 C 82.797363 26.015678 82.022995 26.013733 81.258598 26.015976 C 81.132385 26.015976 80.997887 26.015976 80.871399 26.015976 C 80.369125 26.014221 79.878838 26.006546 79.37793 26.002174 C 78.956001 25.998199 78.526863 25.993149 78.105713 25.988373 C 77.64106 25.982834 77.199654 25.981079 76.736702 25.974571 C 76.389206 25.963631 76.103294 25.949532 75.865479 25.919258 C 75.6819 25.878906 75.54586 25.831886 75.31234 25.7948 C 75.025589 25.7481 74.675262 25.729301 74.219872 25.71183 C 73.788895 25.702133 73.390785 25.686386 72.975311 25.670372 C 72.583092 25.659027 72.185791 25.650009 71.786064 25.642715 C 71.319382 25.637962 70.856667 25.619728 70.38942 25.615059 C 69.74807 25.610306 69.109589 25.615921 68.467239 25.615059 C 68.023331 25.615219 67.585594 25.612381 67.153511 25.601257 C 66.771317 25.590401 66.38398 25.575623 65.991928 25.573601 C 65.142532 25.571388 64.283302 25.573601 63.433689 25.573601 C 62.584213 25.573677 61.738731 25.572708 60.889256 25.573601 L 60.363777 25.573601 C 60.870106 25.573654 59.240162 25.573654 59.644695 25.573601 C 59.318325 25.573761 59.003185 25.57357 58.676704 25.573601 C 57.157711 25.573761 55.646038 25.573601 54.127258 25.573601 C 52.028522 25.573601 53.943356 25.57357 53.435837 25.573601 L 52.509304 25.573601 C 51.886753 25.573601 51.265015 25.573601 50.642437 25.573601 L 50.324383 25.573601 C 48.998096 25.57357 47.667973 25.572708 46.341793 25.573601 Z M 24.368217 25.601151 C 24.371325 25.623886 24.378265 25.647713 24.382019 25.670288 C 24.619127 25.672966 24.85729 25.676262 25.087296 25.68409 C 25.416153 25.700516 25.751602 25.715073 26.096745 25.725578 C 26.486399 25.736404 26.862333 25.749451 27.230677 25.767036 C 27.663734 25.78875 28.095657 25.811195 28.558207 25.82235 C 28.941677 25.830261 29.321552 25.829369 29.705994 25.836151 C 30.058323 25.842468 30.428179 25.848198 30.784613 25.849953 C 30.99979 25.850845 31.205408 25.849953 31.420721 25.849953 L 35.159935 25.787994 C 34.944382 25.788048 34.725555 25.788185 34.509972 25.787994 C 34.153755 25.78759 33.785141 25.793015 33.431355 25.787994 C 33.042431 25.781677 32.664875 25.760254 32.269768 25.760338 C 31.815317 25.754021 31.367325 25.747025 30.969893 25.71888 C 30.5814 25.705482 30.234501 25.687874 29.83596 25.677422 C 29.504644 25.664406 29.156368 25.649063 28.826511 25.635963 C 28.494007 25.617897 28.123936 25.614708 27.761749 25.608307 C 27.321156 25.608383 26.888451 25.608253 26.448021 25.608307 C 25.756058 25.608383 25.064825 25.60833 24.373755 25.608307 Z M 57.888351 25.836258 C 57.283409 25.837151 56.680386 25.85006 56.076797 25.85006 C 53.30471 25.863075 50.528622 25.875961 47.793457 25.933029 C 45.658176 25.979645 43.575539 26.045631 41.556721 26.140457 C 40.068733 26.217056 38.626011 26.301292 37.186935 26.389366 C 35.600018 26.485382 33.996429 26.590637 32.208698 26.624451 C 31.903095 26.629204 31.588741 26.634285 31.282166 26.638252 C 31.204031 26.639145 31.210512 26.636497 31.130053 26.638252 C 30.837063 26.63607 30.553068 26.629723 30.023779 26.624451 C 28.196939 26.599983 26.375988 26.562843 24.616751 26.5 C 24.640167 26.552208 24.659992 26.601364 24.685894 26.652107 C 25.299585 26.661942 25.905579 26.670395 26.525049 26.679764 C 29.262026 26.707291 32.061314 26.734917 34.794697 26.693565 C 35.103462 26.688843 35.39999 26.685577 35.707375 26.679764 C 37.504745 26.638634 39.129913 26.527412 40.740925 26.430855 C 42.180138 26.343376 43.600983 26.256004 45.096882 26.181946 C 47.070919 26.090576 49.097191 26.033424 51.181396 25.988342 C 53.360672 25.942917 55.568279 25.93103 57.777454 25.919205 C 58.071606 25.920097 58.437408 25.916557 58.62096 25.919205 C 60.395699 25.942833 62.067997 26.005196 63.751446 26.071312 C 65.854637 26.153206 67.830322 26.268562 69.780647 26.389366 C 70.790741 26.446846 71.72554 26.526192 72.795242 26.569138 C 72.973877 26.576271 73.166718 26.590668 73.348381 26.596794 C 74.493843 26.624779 75.678719 26.625748 76.846947 26.624451 C 78.335991 26.622696 79.824547 26.613434 81.313644 26.610649 C 83.463394 26.586533 85.583687 26.540642 87.688446 26.486198 C 89.398819 26.441795 91.104179 26.382317 92.832626 26.347908 C 94.099953 26.322601 94.382866 26.323845 95.667427 26.30645 C 98.253639 26.275909 100.841263 26.267937 103.438789 26.264992 C 103.410294 26.26532 103.42569 26.278793 103.411133 26.278793 C 103.61248 26.281013 104.417259 26.277016 104.738663 26.278793 C 105.953217 26.287521 107.157104 26.300919 108.361717 26.320251 C 110.682625 26.3619 112.989487 26.408813 115.317528 26.44471 C 115.460754 26.446922 115.602684 26.442497 115.746208 26.44471 L 115.746208 26.334084 C 114.420708 26.311424 113.086449 26.28849 111.763618 26.264938 C 110.124519 26.237717 108.47226 26.212486 106.81282 26.209625 C 105.246941 26.207413 103.691132 26.209625 102.12487 26.209625 C 101.680878 26.209549 101.227539 26.209625 100.783516 26.209625 C 97.956947 26.213623 95.146835 26.215027 92.334229 26.251083 C 90.990875 26.270287 90.782608 26.265617 89.457916 26.292542 C 87.709778 26.328087 85.979256 26.387749 84.244705 26.430824 C 82.240852 26.481255 80.232651 26.519928 78.18763 26.541458 C 77.700073 26.537483 77.237869 26.533943 76.970726 26.527657 C 76.456886 26.514038 76.387016 26.522118 75.892113 26.5 C 74.994263 26.459839 74.179382 26.397362 73.320023 26.347885 C 71.30439 26.22921 69.296761 26.115364 67.152328 26.029831 C 65.885643 25.978325 64.620773 25.925606 63.308018 25.891548 C 61.974113 25.856895 60.614822 25.837906 59.256313 25.836235 C 58.803432 25.8358 58.341095 25.835342 57.887268 25.836235 Z M 49.480659 26.251114 L 49.480659 26.264915 C 49.320202 26.264755 49.166443 26.260483 49.010494 26.264915 C 48.697651 26.275932 48.339706 26.267586 48.028648 26.278717 C 47.772442 26.297272 47.483128 26.30899 47.19894 26.320198 C 46.853771 26.325706 46.544033 26.340027 46.244804 26.361656 C 45.857529 26.378784 45.531883 26.408844 45.166187 26.430801 C 44.783936 26.451111 44.440033 26.47963 44.059914 26.499947 C 43.994793 26.503914 43.918953 26.496407 43.852486 26.499947 C 43.682873 26.509453 43.640713 26.516037 43.479118 26.527603 C 43.319633 26.539108 43.207817 26.545776 43.03661 26.55526 C 42.988667 26.559227 42.917393 26.565384 42.870667 26.569061 C 42.709076 26.5811 42.765469 26.587425 42.594097 26.596718 C 42.446766 26.60463 42.287415 26.603142 42.137787 26.610519 C 41.77676 26.62645 41.420437 26.649757 41.05917 26.665833 C 40.652985 26.688683 40.245289 26.696861 39.800755 26.707291 C 39.497879 26.725304 39.179527 26.733322 38.846619 26.734947 C 38.443489 26.755501 38.003464 26.76133 37.588203 26.776428 C 37.26202 26.790855 36.89465 26.793068 36.564899 26.804085 C 36.171951 26.813187 35.811169 26.822403 35.417114 26.831741 C 35.127041 26.843063 34.827377 26.851242 34.532093 26.859398 C 34.218792 26.868019 33.893124 26.878738 33.577957 26.887054 C 32.966183 26.899399 32.346199 26.899292 31.738802 26.914719 C 31.178371 26.931648 30.61235 26.93956 30.051733 26.956177 C 29.623133 26.965355 29.195963 26.97551 28.765715 26.983833 C 28.400261 26.99015 28.02854 26.997635 27.659439 26.997635 L 27.604126 26.997635 C 27.674402 26.997581 27.466599 26.99852 27.3967 26.997635 C 27.195457 26.995415 26.989597 26.986534 26.788248 26.983833 C 26.335123 26.978294 25.874735 26.984207 25.419207 26.983833 C 25.2339 26.983505 25.051023 26.97316 24.866068 26.970032 C 24.887648 27.003036 24.912497 27.034607 24.935211 27.066826 C 25.50161 27.066505 26.0921 27.066368 26.608425 27.066826 C 26.723913 27.066803 27.930067 27.06691 27.7285 27.066826 C 28.950104 27.067261 30.171785 27.069908 31.393009 27.066826 C 31.761974 27.064613 32.123596 27.061722 32.485485 27.053001 C 32.910412 27.042709 33.349682 27.03717 33.771503 27.025345 C 34.334255 27.01284 34.882072 26.996414 35.444744 26.983887 C 36.056328 26.972244 36.681118 26.959633 37.283897 26.942429 C 37.896049 26.923874 38.504204 26.902481 39.123051 26.887115 C 39.514244 26.874771 39.896122 26.866447 40.298443 26.859459 C 40.641129 26.855484 40.991241 26.843033 41.321747 26.831795 C 41.74157 26.821671 42.139786 26.80954 42.566307 26.804138 C 42.902454 26.799362 43.213432 26.78875 43.534298 26.776482 C 43.962788 26.759766 44.367813 26.739052 44.792713 26.721169 C 45.15876 26.705238 45.501339 26.680763 45.87133 26.665855 C 46.191139 26.651924 46.487072 26.629799 46.784008 26.610542 C 47.113647 26.586021 47.455116 26.561386 47.807312 26.541405 C 48.174278 26.516853 48.525986 26.495483 48.899784 26.47226 C 49.251087 26.447922 49.629208 26.421837 50.006062 26.403114 C 50.320091 26.390587 50.652836 26.390587 50.960194 26.375458 C 51.228851 26.363251 51.494804 26.354584 51.7761 26.347801 C 51.939529 26.346024 52.112251 26.3367 52.273922 26.334 C 52.514977 26.337975 52.736904 26.346207 52.979202 26.347801 C 53.297363 26.347801 53.615067 26.347801 53.933334 26.347801 C 55.503674 26.347778 57.078548 26.347969 58.648724 26.347801 C 58.997166 26.348694 59.364643 26.349129 59.699688 26.361603 C 60.146221 26.377945 60.609447 26.389832 61.027218 26.416916 C 61.486256 26.436256 61.962662 26.443199 62.382404 26.472229 C 62.708885 26.49176 63.02602 26.51828 63.33654 26.541374 C 63.603249 26.567413 63.897724 26.591881 64.207756 26.610519 C 64.510742 26.640251 64.885757 26.657455 65.231064 26.679657 C 65.608994 26.706207 66.00267 26.728439 66.406456 26.748802 C 66.813179 26.777512 67.261734 26.798439 67.706329 26.81794 C 68.240883 26.845924 68.759529 26.87709 69.310425 26.900917 C 69.845955 26.915527 70.290894 26.919228 70.845406 26.914719 C 71.28878 26.914719 71.729454 26.914688 72.172935 26.914719 C 73.818901 26.915176 75.463753 26.917389 77.109581 26.914719 C 77.635086 26.912956 78.166298 26.910316 78.68602 26.900917 C 79.150925 26.890488 79.603477 26.871582 80.082664 26.87326 C 80.50103 26.870148 80.901489 26.868744 81.31337 26.859459 C 81.796501 26.854729 82.290573 26.843735 82.765327 26.831795 C 83.005219 26.827019 83.243599 26.833122 83.484413 26.831795 C 83.132133 26.831963 84.655342 26.831772 84.217293 26.831795 C 85.034035 26.831795 85.848289 26.831635 86.664925 26.831795 C 88.630638 26.832207 90.590202 26.834015 92.555595 26.831795 C 93.107948 26.830017 93.67054 26.829582 94.215004 26.818001 C 94.603691 26.808868 94.985374 26.804901 95.362793 26.790337 C 95.636124 26.780426 95.934219 26.777023 96.220161 26.776535 C 96.641388 26.771759 97.047218 26.749992 97.450859 26.735054 C 98.093941 26.712448 98.743088 26.688194 99.386841 26.665909 C 100.030891 26.641685 100.669243 26.631149 101.322823 26.610596 C 101.720444 26.598175 102.122284 26.58445 102.51207 26.569138 C 102.711662 26.566925 102.903099 26.559822 103.10672 26.555336 L 103.964081 26.555336 C 104.379532 26.557121 104.785255 26.559845 105.194786 26.569138 C 105.444458 26.575485 105.519508 26.57357 105.761749 26.582939 C 106.078751 26.594986 106.360672 26.608925 106.702087 26.610596 C 107.175659 26.621727 107.59594 26.655594 108.071098 26.665909 C 108.48085 26.682442 108.886841 26.693085 109.301834 26.707397 C 109.73967 26.728218 110.22007 26.732376 110.670845 26.748856 C 112.442482 26.806168 113.556992 26.807678 115.745995 26.790314 L 115.745995 26.721169 L 115.552391 26.721169 C 115.194908 26.716393 114.749969 26.704536 114.390808 26.693512 C 113.942436 26.6782 113.499603 26.666481 113.049477 26.652054 C 112.648773 26.633499 112.210556 26.627373 111.804916 26.610596 C 111.335777 26.596474 110.883781 26.571999 110.422073 26.555283 C 109.897911 26.544563 109.39682 26.530624 108.887085 26.513802 C 108.344131 26.497078 107.800262 26.488708 107.241501 26.486145 C 105.977905 26.48217 104.702469 26.486145 103.43866 26.486145 C 100.126694 26.398712 100.75267 26.470718 99.248611 26.499969 C 99.02771 26.503937 98.992844 26.487518 98.778442 26.499969 C 98.405243 26.518417 97.989708 26.541512 97.603058 26.555283 C 96.957169 26.574783 96.347504 26.602303 95.708588 26.624428 C 95.055573 26.645439 94.411629 26.658562 93.758774 26.679741 C 93.346382 26.693268 92.913162 26.706047 92.486557 26.707397 C 92.185684 26.70694 91.922729 26.710472 91.643051 26.721199 C 91.256668 26.725166 90.863503 26.741158 90.481461 26.748856 C 89.948746 26.755173 89.412193 26.762383 88.877365 26.762657 L 87.798744 26.762657 C 87.043343 26.762497 86.286156 26.762901 85.530884 26.762657 C 83.851646 26.764442 82.17662 26.762711 80.49733 26.762657 C 80.007935 26.757927 79.534607 26.765305 79.059174 26.776459 C 78.581444 26.791206 78.087242 26.792526 77.607216 26.804115 C 77.203247 26.815216 76.775482 26.81646 76.362656 26.817917 C 76.286003 26.818108 76.217133 26.816162 76.141403 26.817917 C 75.977676 26.821022 75.81749 26.826721 75.657379 26.831741 C 75.426971 26.838844 75.202232 26.842033 74.965958 26.845543 C 74.705864 26.848625 74.45282 26.844658 74.191566 26.845543 L 73.790543 26.845543 C 73.534767 26.844658 73.256332 26.850761 73.00235 26.845543 C 72.44062 26.830803 71.926727 26.791687 71.412048 26.762573 C 70.987442 26.740349 70.570618 26.731461 70.153633 26.70726 C 69.769081 26.682602 69.348671 26.649033 68.964394 26.62429 C 68.631241 26.602768 68.308998 26.59185 67.982574 26.568977 C 67.687691 26.546936 67.387085 26.522903 67.097549 26.499832 C 66.787003 26.474556 66.469574 26.450356 66.129562 26.430695 C 65.690132 26.400635 65.206001 26.383102 64.732887 26.361549 C 64.303261 26.340996 63.87204 26.318741 63.419186 26.306236 C 63.058594 26.292114 62.690842 26.281982 62.312908 26.27858 C 60.767475 26.272232 59.211559 26.27858 57.666553 26.27858 C 58.503769 26.27858 57.410862 26.27858 56.698563 26.27858 C 56.33292 26.281662 55.980457 26.27002 55.619946 26.264778 C 55.293278 26.259995 54.967419 26.251358 54.6381 26.250954 C 53.077271 26.248734 51.5112 26.250786 49.950153 26.250954 C 49.790127 26.251839 49.640606 26.251137 49.479984 26.250954 Z M 44.239574 26.92868 C 43.776131 26.935028 43.324413 26.943588 42.870533 26.956337 C 42.428078 26.96949 42.007767 26.991821 41.584515 27.01165 C 41.147892 27.031097 40.700169 27.049675 40.256985 27.066963 C 39.760078 27.091484 39.307846 27.123413 38.818829 27.149933 C 38.350468 27.177589 37.86499 27.195473 37.380669 27.219078 C 36.623619 27.255806 35.853519 27.296425 35.085148 27.329704 C 34.435646 27.354034 33.778416 27.369812 33.107655 27.385017 C 32.974396 27.382805 32.839485 27.386803 32.706631 27.385017 C 31.537966 27.363785 30.383993 27.331108 29.208063 27.315872 C 28.282232 27.302559 27.367935 27.287842 26.442375 27.274414 C 25.979853 27.264854 25.505093 27.254379 25.073334 27.232956 C 25.11471 27.284302 25.153576 27.336266 25.197788 27.385071 C 25.331591 27.386826 25.465391 27.383286 25.598814 27.385071 C 26.764885 27.398956 27.916212 27.416832 29.069778 27.440384 C 29.807709 27.455429 30.562277 27.464424 31.309986 27.46804 C 32.909657 27.472015 34.51189 27.4729 36.108562 27.46804 C 36.201363 27.467773 36.308235 27.457024 36.39896 27.454239 C 36.495163 27.452026 36.578918 27.456886 36.675529 27.454239 C 37.37616 27.43309 38.085865 27.414864 38.763649 27.385101 C 39.534367 27.350227 40.29866 27.312363 41.05917 27.274467 C 41.567039 27.252106 42.060921 27.221184 42.538837 27.191498 C 43.035202 27.165573 43.454487 27.141777 43.976997 27.12236 C 44.430904 27.108452 44.855858 27.083275 45.304527 27.067047 C 45.709034 27.043571 46.14706 27.020836 46.590542 27.011734 C 46.871162 27.002602 47.158997 27.001816 47.447906 26.997932 C 47.555859 26.999687 47.657925 26.996147 47.765961 26.997932 C 48.26878 27.009026 48.782837 27.015755 49.28709 27.025589 C 49.743752 27.037094 50.204197 27.037094 50.669933 27.039391 C 52.575069 27.043358 54.476318 27.039413 56.38097 27.039391 C 57.343422 27.038956 58.322514 27.039444 59.284943 27.039391 L 59.437054 27.039391 C 59.9604 27.044167 60.476509 27.066231 60.98584 27.080849 C 62.046036 27.110664 63.128384 27.130028 64.180237 27.163818 C 65.40519 27.206787 66.587982 27.251106 67.789429 27.302101 C 68.81498 27.347206 69.876717 27.390686 70.928513 27.426559 C 71.771126 27.455482 72.654907 27.46315 73.528259 27.468018 C 75.522202 27.473549 77.521736 27.468018 79.515862 27.468018 C 80.177925 27.46785 80.817574 27.468178 81.4795 27.468018 C 82.228477 27.458588 82.990799 27.44873 83.719711 27.426559 C 84.707199 27.397118 85.710732 27.372948 86.720451 27.357414 C 87.665298 27.344101 88.618248 27.345505 89.569115 27.343613 C 90.095375 27.343643 89.389099 27.343613 91.007271 27.343613 C 91.36203 27.343582 91.717087 27.343582 92.072029 27.343613 C 94.054253 27.344475 96.036041 27.343613 98.018478 27.343613 C 98.609505 27.340508 99.211884 27.34758 99.802315 27.343613 C 99.958588 27.34272 100.6092 27.332108 100.770309 27.329811 C 101.62986 27.316254 102.490273 27.295944 103.356255 27.288322 C 104.171539 27.282005 104.988708 27.294434 105.803856 27.288322 C 106.949219 27.27874 108.099434 27.27652 109.247116 27.274521 C 110.238976 27.272766 111.242188 27.274094 112.234055 27.274521 C 112.195213 27.274521 113.406799 27.274582 112.966965 27.274521 C 113.616653 27.274582 114.267052 27.274551 114.916748 27.274521 C 115.192314 27.274445 115.470772 27.274582 115.746452 27.274521 L 115.746452 27.205383 C 113.613228 27.205299 111.476974 27.205223 109.343781 27.205383 C 108.122849 27.205788 106.900085 27.203171 105.679268 27.205383 C 104.505096 27.207596 103.325356 27.210625 102.152992 27.219185 C 101.3312 27.22229 100.511215 27.224586 99.691528 27.233009 C 98.835922 27.242928 97.987473 27.26326 97.133293 27.274467 C 96.67231 27.279251 96.212189 27.273582 95.75045 27.274467 C 95.123795 27.274498 94.496277 27.274307 93.869781 27.274467 C 93.149811 27.274467 92.432327 27.274796 91.712547 27.274467 C 89.780479 27.274117 87.836319 27.27047 85.904602 27.274467 C 84.966377 27.278442 84.027908 27.287216 83.097404 27.302124 C 82.074722 27.319252 81.058304 27.342155 80.055145 27.371269 C 79.314949 27.388962 78.572968 27.39782 77.814941 27.398926 C 77.605919 27.398926 77.387688 27.398872 77.178833 27.398926 C 76.307343 27.395821 75.428909 27.396713 74.579086 27.371269 C 73.509918 27.337997 72.442322 27.303505 71.398544 27.260643 C 70.195229 27.210052 68.998177 27.152687 67.775497 27.108528 C 66.752083 27.072365 65.702065 27.055077 64.664124 27.025558 C 64.166115 27.010651 63.683384 26.99099 63.17065 26.9841 C 62.895489 26.977753 62.607468 26.9841 62.327118 26.9841 C 58.007702 26.984261 59.719456 26.983643 58.095615 26.9841 C 57.539265 26.984154 56.992447 26.9841 56.436203 26.9841 C 56.363468 26.98407 55.918877 26.984154 55.648006 26.9841 C 55.21714 26.9841 54.790997 26.984962 54.361992 26.9841 C 53.903896 26.983208 53.458549 26.980103 53.006805 26.970268 C 52.498177 26.959091 51.96859 26.95253 51.458019 26.942612 C 50.987148 26.931786 50.513878 26.927979 50.033661 26.92881 C 49.242092 26.92865 48.44466 26.92881 47.65517 26.92881 C 46.865681 26.928574 46.068249 26.92749 45.27668 26.92881 C 44.931698 26.929138 44.582909 26.924385 44.239521 26.92881 Z M 41.307945 27.398842 C 41.228458 27.399117 41.150349 27.410484 41.072861 27.412643 C 40.773632 27.418991 40.480427 27.430496 40.187843 27.4403 C 39.713112 27.451645 39.233868 27.45845 38.791199 27.481789 C 38.723217 27.485756 38.649319 27.49192 38.583771 27.49559 C 38.521328 27.499557 38.465878 27.505722 38.403999 27.509392 C 38.150768 27.524437 37.915142 27.53373 37.657265 27.55085 C 37.212811 27.572807 36.86964 27.606461 36.454166 27.63382 C 36.056732 27.670982 35.566849 27.690758 35.112835 27.716789 C 34.687553 27.750877 34.180061 27.770401 33.688477 27.785934 C 33.028305 27.80249 32.384014 27.819908 31.710983 27.827393 C 30.837252 27.843651 29.938728 27.838036 29.055923 27.841217 C 28.328255 27.843407 27.598833 27.841217 26.871029 27.841217 C 26.481754 27.84111 26.095665 27.841164 25.70944 27.841217 C 25.741392 27.864716 25.773451 27.887947 25.80624 27.910362 C 27.018497 27.910469 28.230673 27.91069 29.443146 27.910362 C 30.52198 27.909927 31.614454 27.913445 32.692856 27.910362 C 33.590706 27.906364 34.471485 27.897423 35.361717 27.882706 C 36.042038 27.872658 36.730354 27.861183 37.394524 27.841217 C 37.901585 27.824097 38.39463 27.804192 38.846485 27.772079 C 39.311031 27.745636 39.767128 27.710495 40.187817 27.675278 C 40.573849 27.644218 40.942112 27.613838 41.37706 27.592308 C 41.760963 27.574486 42.129253 27.555359 42.510994 27.536995 C 42.960823 27.519981 43.424427 27.510147 43.880035 27.495537 C 44.163544 27.486328 44.427689 27.471603 44.695938 27.46788 L 44.765083 27.46788 C 44.982502 27.468773 45.214802 27.477493 45.428848 27.481682 C 45.812912 27.492325 46.172882 27.515358 46.562778 27.523163 C 47.160076 27.540184 47.736305 27.565269 48.305161 27.592308 C 48.670967 27.611809 49.048359 27.617645 49.42524 27.633766 C 49.622833 27.64225 49.943859 27.65332 50.144318 27.661423 C 50.260696 27.666153 50.358036 27.67115 50.4762 27.675224 C 51.174889 27.703911 51.896828 27.733131 52.605778 27.758194 C 53.134365 27.779205 53.669704 27.790657 54.223679 27.799652 C 55.983402 27.799408 57.746338 27.800545 59.506359 27.799652 C 60.571796 27.799332 61.635155 27.79998 62.700756 27.799652 C 63.391125 27.799652 64.07077 27.799706 64.761169 27.799652 C 65.504066 27.800545 66.231544 27.809647 66.973717 27.813454 C 68.341217 27.823151 69.71347 27.834305 71.053131 27.868767 C 72.204803 27.890022 73.357994 27.923141 74.468781 27.965569 C 74.828751 27.973885 75.027321 27.968674 75.381462 27.97937 C 75.402664 27.979828 76.04174 28.00592 76.10054 28.007027 C 76.244545 28.010132 76.384911 28.004837 76.529221 28.007027 L 80.276749 27.937881 C 79.531906 27.944229 78.812073 27.928162 78.091858 27.910225 C 76.949532 27.87439 75.802498 27.835739 74.63475 27.813431 C 73.282967 27.782097 71.94339 27.756195 70.569191 27.744286 C 69.304588 27.734619 68.01944 27.730972 66.752541 27.730484 C 64.208244 27.730049 61.663216 27.730324 59.119244 27.730484 C 58.72192 27.730461 58.327187 27.730537 57.929996 27.730484 C 57.369865 27.730164 56.821426 27.720139 56.284386 27.702827 C 55.578625 27.677383 54.869053 27.647133 54.168663 27.619858 C 53.436268 27.591202 52.701607 27.570213 51.983768 27.536888 C 51.428986 27.507477 50.849865 27.489082 50.269043 27.467743 C 49.889221 27.456917 49.522606 27.439713 49.148968 27.426285 C 48.664188 27.40876 48.158451 27.400276 47.655495 27.398628 C 45.777771 27.396416 43.877415 27.398384 41.999771 27.398628 C 41.843445 27.399521 41.714317 27.398788 41.557262 27.398628 C 41.478642 27.398552 41.387836 27.398384 41.30835 27.398628 Z M 99.391815 27.558167 C 98.748138 27.555061 98.093559 27.568161 97.469635 27.585823 C 97.161842 27.597549 96.841896 27.59082 96.529297 27.599625 C 96.21624 27.608429 95.910667 27.629982 95.602768 27.641083 C 95.180786 27.65802 94.73687 27.671661 94.302895 27.682541 C 94.056038 27.688866 93.815033 27.689133 93.570015 27.696342 C 92.799858 27.718086 92.002998 27.714844 91.219177 27.723999 C 90.551338 27.732727 89.871689 27.735641 89.200226 27.737801 C 88.668991 27.738693 88.155022 27.737885 87.623787 27.737801 C 87.062141 27.738693 86.495041 27.745636 85.881401 27.751633 C 85.248077 27.756416 84.60778 27.764351 83.973076 27.765434 C 83.427773 27.770973 82.869987 27.776131 82.382782 27.806892 C 81.909615 27.849648 82.113045 27.899666 82.42424 27.945175 C 82.795334 27.99012 83.254082 28.021149 83.696457 28.055801 C 84.230446 28.095375 84.799377 28.124054 85.383522 28.152603 C 85.996407 28.179153 86.630272 28.19857 87.278023 28.207916 C 88.190315 28.217125 89.101021 28.222046 90.016052 28.221718 C 92.505112 28.208107 95.007553 28.219963 97.497101 28.207916 C 98.311462 28.202377 99.097038 28.186798 99.88942 28.166458 C 100.566093 28.139992 101.267563 28.12133 101.949829 28.097313 C 102.893272 28.058449 103.87571 28.040596 104.867661 28.028175 C 105.865898 28.018341 106.86673 28.01516 107.868401 28.014374 C 108.087227 28.014534 108.31321 28.014374 108.532166 28.014374 C 108.970001 28.012589 109.410492 28.023689 109.845894 28.028175 C 110.492966 28.033714 111.119438 28.027283 111.768051 28.028175 C 112.985893 28.028389 114.212036 28.028252 115.432587 28.028175 C 115.474045 28.003571 115.516747 27.985336 115.557037 27.95903 C 115.515472 27.95903 115.473717 27.959007 115.432587 27.95903 C 114.797935 27.958786 114.171951 27.963005 113.538086 27.95903 C 113.292389 27.956818 113.035751 27.96257 112.791351 27.95903 C 112.660172 27.956818 112.549271 27.947121 112.417984 27.945229 C 112.365807 27.944771 112.304741 27.945229 112.252045 27.945229 C 111.872116 27.945313 111.484131 27.945175 111.104286 27.945229 C 109.069908 27.945473 107.04026 27.943016 105.00605 27.945229 C 103.752769 27.946983 102.505989 27.943451 101.258514 27.95903 C 100.247635 27.974426 99.255447 28.005188 98.285378 28.042 C 97.590469 28.062828 96.903908 28.089485 96.211113 28.111145 C 95.447334 28.131859 94.66011 28.148521 93.87413 28.152603 C 93.487259 28.154358 92.898468 28.151711 92.283836 28.152603 C 91.842056 28.152168 91.397491 28.141098 90.956306 28.138802 C 90.312279 28.133263 89.679573 28.1334 89.061836 28.111145 C 88.477661 28.088158 87.944138 28.048134 87.40242 28.014343 C 86.98587 27.980263 86.544975 27.94445 86.171715 27.903717 C 86.026787 27.888268 86.048668 27.892563 85.936638 27.87606 C 85.830002 27.860344 86.017174 27.855293 86.116402 27.848404 C 86.615852 27.829765 87.156075 27.835579 87.678993 27.834602 C 88.311966 27.83239 88.942215 27.826797 89.573463 27.820778 C 89.679604 27.819908 89.771324 27.821663 89.877686 27.820778 C 90.004898 27.819908 90.011078 27.808754 90.071281 27.806976 C 90.487892 27.806976 90.899231 27.806976 91.315842 27.806976 C 91.84948 27.806892 92.372826 27.809647 92.906143 27.806976 C 93.565422 27.803001 94.226807 27.801193 94.883636 27.793175 C 95.677391 27.786041 96.475525 27.775749 97.248322 27.751717 C 97.930748 27.732292 98.642189 27.72303 99.308731 27.696404 C 99.923317 27.673553 100.542297 27.65551 101.175598 27.641083 C 101.804039 27.628471 102.432365 27.625229 103.070068 27.627281 C 103.814186 27.627098 104.566132 27.627281 105.310272 27.627281 C 105.50058 27.627525 105.700821 27.626823 105.891068 27.627281 C 106.63343 27.630363 107.369873 27.640411 108.103622 27.654945 C 108.990044 27.671036 109.875687 27.678604 110.772484 27.682602 C 111.612396 27.682678 112.449371 27.682411 113.289261 27.682602 C 114.106705 27.682762 114.932304 27.682602 115.750717 27.682602 L 115.750717 27.613457 C 115.305511 27.613457 114.868668 27.613426 114.423187 27.613457 C 113.533791 27.613892 112.634354 27.599197 111.754326 27.5858 C 111.024529 27.571671 110.293945 27.562813 109.55558 27.558144 C 108.902512 27.554146 108.25946 27.558144 107.605797 27.558144 C 105.623871 27.557686 103.627525 27.558144 101.64563 27.558144 C 100.891441 27.558304 100.14579 27.558304 99.391571 27.558144 Z M 48.379246 27.973022 C 47.232971 27.972755 46.077217 27.990036 44.935993 27.986824 C 44.473038 27.987686 43.998928 27.979912 43.539349 27.986824 C 43.068424 27.994736 42.605171 28.001595 42.142704 28.014481 C 41.636696 28.030281 41.126419 28.046814 40.607719 28.055939 C 39.731232 28.076653 38.869171 28.098587 37.980316 28.111252 C 36.822132 28.132263 35.628647 28.151817 34.509354 28.194221 C 33.529991 28.225685 32.562054 28.254967 31.563921 28.277191 C 31.364326 28.281166 31.155792 28.287323 30.955469 28.290993 C 30.432365 28.283081 29.904644 28.268738 29.379028 28.263336 C 28.40847 28.256317 27.433756 28.263687 26.461201 28.263336 C 26.528452 28.290024 26.599323 28.323891 26.668627 28.346306 C 26.976147 28.351845 27.285181 28.355682 27.59516 28.360107 C 28.239586 28.368347 28.883608 28.359703 29.531141 28.360107 C 31.447107 28.364105 33.370747 28.382011 35.24218 28.332451 C 36.209816 28.307495 37.168949 28.282814 38.118492 28.249481 C 39.242241 28.207947 40.431622 28.202461 41.589458 28.180344 C 42.50119 28.16954 43.384937 28.129456 44.28603 28.111198 C 44.827148 28.106476 45.336613 28.097206 45.862473 28.083542 C 46.219391 28.078003 46.583385 28.061424 46.94109 28.055885 C 47.534576 28.071686 48.110374 28.092453 48.6973 28.111198 C 49.325928 28.132347 49.95723 28.161568 50.591797 28.180344 C 51.195358 28.190659 51.751331 28.216103 52.334179 28.235657 C 52.881023 28.251587 53.467167 28.251457 54.021248 28.263313 C 54.629189 28.277924 55.241692 28.288757 55.860405 28.29097 C 57.282005 28.293182 58.697693 28.29097 60.119564 28.29097 C 60.233997 28.291862 60.31181 28.289215 60.548244 28.29097 C 61.587296 28.299286 62.618568 28.302933 63.659615 28.304771 C 64.678307 28.306549 65.69696 28.304771 66.715675 28.304771 C 67.759506 28.304367 68.796936 28.304611 69.840904 28.304771 C 69.729301 28.304932 70.0755 28.316818 70.186615 28.318596 C 70.51104 28.322571 70.833038 28.326591 71.154602 28.332397 C 71.780579 28.343201 72.411369 28.34774 73.035271 28.360054 C 73.658417 28.373993 74.269218 28.385231 74.902138 28.387711 C 76.159737 28.389931 77.433334 28.387711 78.691124 28.387711 C 78.784279 28.388603 78.779579 28.386391 78.926208 28.387711 C 79.333771 28.392494 79.761482 28.398895 80.170769 28.401512 C 80.543922 28.408646 80.899193 28.426392 81.24939 28.44297 C 81.630722 28.461693 82.007843 28.478249 82.383324 28.498291 C 81.982079 28.502281 81.564148 28.503502 81.16642 28.512085 L 86.697792 28.512085 C 86.661545 28.497803 86.549896 28.479622 86.421227 28.470627 C 85.958 28.439568 85.452042 28.410728 84.955406 28.387657 C 84.605324 28.366508 84.239601 28.363678 83.876793 28.346199 C 83.467964 28.33448 83.046951 28.328049 82.632233 28.318542 C 81.292633 28.301208 79.944191 28.315437 78.59433 28.318542 C 77.969322 28.316765 77.332024 28.31633 76.713661 28.304741 C 76.088921 28.292534 75.475204 28.272789 74.846794 28.263283 C 74.520554 28.25853 74.177818 28.254234 73.851151 28.249458 C 72.403564 28.228363 70.940231 28.250351 69.481361 28.249458 C 68.738869 28.249512 68.011177 28.250351 67.268814 28.249458 C 66.243027 28.247704 65.222557 28.243271 64.198898 28.235657 C 62.645279 28.222908 61.069027 28.220123 59.510948 28.221855 C 58.904228 28.2201 58.312954 28.219643 57.713253 28.208054 C 57.162251 28.196495 56.618214 28.191925 56.067642 28.180397 C 55.469292 28.164543 54.890522 28.135612 54.283802 28.125084 C 53.640129 28.110039 53.021065 28.076439 52.389332 28.055939 C 51.741123 28.032715 51.080166 28.021233 50.425694 28.000626 C 49.759876 27.980263 49.0667 27.973106 48.379086 27.972969 Z M 31.882029 28.415535 C 30.62545 28.414642 29.382215 28.41243 28.134521 28.429337 C 27.792971 28.433762 27.461628 28.44854 27.125046 28.456993 C 27.320536 28.491669 27.513945 28.512306 27.719696 28.512306 L 31.038521 28.512306 C 31.270229 28.508308 31.495913 28.501228 31.729942 28.498505 C 32.876354 28.484779 34.034271 28.47052 35.187054 28.470848 C 35.685497 28.471008 36.182972 28.480759 36.680523 28.48465 C 37.175079 28.489944 37.652027 28.501717 38.132481 28.512306 L 45.143635 28.512306 C 44.264179 28.496155 43.388584 28.4776 42.516232 28.456993 C 41.801044 28.440865 41.081505 28.426529 40.358997 28.415535 C 39.755974 28.407295 39.167618 28.415909 38.561298 28.415535 C 36.341915 28.414642 34.101685 28.415535 31.882029 28.415535 Z M 113.6092 28.415535 C 113.60067 28.415535 113.102409 28.428741 113.083717 28.429337 C 112.890694 28.434059 112.779358 28.425797 112.585899 28.429337 C 112.075783 28.444382 111.578583 28.465469 111.078621 28.48465 C 110.892159 28.491318 110.720703 28.503174 110.539291 28.512306 L 113.692169 28.512306 C 113.975922 28.512306 114.258759 28.480438 114.521881 28.415504 C 114.218544 28.418152 113.924904 28.414612 113.6092 28.415504 Z M 95.618515 28.470848 L 95.618515 28.48465 C 95.113724 28.483322 94.55526 28.500961 94.00061 28.512306 L 96.586555 28.512306 C 96.301666 28.489372 95.980728 28.471924 95.618568 28.470848 Z"/>
                        <g id="g8678">
                            <linearGradient id="linearGradient10" x1="72.434094" y1="50.36017" x2="71.464998" y2="132.720118" gradientUnits="userSpaceOnUse">
                                <stop offset="1e-05" stop-color="#ffd67a" stop-opacity="1"/>
                                <stop offset="1" stop-color="#f78018" stop-opacity="1"/>
                            </linearGradient>
                            <path id="rect8533" fill="url(#linearGradient10)" stroke="none" d="M 11.650927 68.728752 L 129.23024 68.728752 L 129.23024 120.409485 L 11.650927 120.409485 Z"/>
                            <path id="path8625" fill="#ffd67f" stroke="none" d="M 11.765983 68.98983 L 17.846066 66.307831 L 123.070511 66.307831 L 128.881561 69.213356 Z"/>
                        </g>
                    </g>
                </g>
            </g>
        </g>
    </g>
</svg>
