<svg height="164" viewBox="0 0 300 164" width="300" xmlns="http://www.w3.org/2000/svg"><g fill-rule="evenodd"><path d="m138.110107 22.944565c32.647522 0 49.667679 26.458671 38.016358 59.097557-11.651779 32.638504-47.562744 59.097053-80.210144 59.097053-32.647293 0-49.667557-26.458549-38.01601-59.097053 11.651531-32.638886 47.562641-59.097557 80.209796-59.097557z" fill="#c2edf2"/><path d="m108.28511 36.557091h112.51503c2.565186 0 4.663239 2.098099 4.663239 4.662605v79.652954c0 2.563706-2.098053 4.66198-4.663239 4.66198h-112.51503c-2.565139 0-4.663787-2.098274-4.663787-4.66198v-79.652954c0-2.564506 2.098648-4.662605 4.663787-4.662605z" fill="#262657"/><path d="m109.256577 119.900871h110.571579v-77.710014h-110.571579z" fill="#66c"/><path d="m109.256577 113.100876h110.571579v-64.110207h-110.571579z" fill="#4242a1"/><path d="m87.783958 123.154617h153.516991c1.870697 0 3.40094 1.529808 3.40094 3.400002v.000389c0 1.869797-1.530243 3.399612-3.40094 3.399612h-153.516991c-1.870719 0-3.40094-1.529815-3.40094-3.399612v-.000389c0-1.870194 1.530221-3.400002 3.40094-3.400002z" fill="#66c"/><path d="m146.470062 123.154617h36.144593c0 1.870179-1.529847 3.400002-3.400925 3.400002h-29.342743c-1.870682 0-3.400925-1.529823-3.400925-3.400002z" fill="#262657"/><path d="m92.375557 125.267578h11.513298c.70797 0 1.286995.579254 1.286995 1.287041v.000389c0 .707397-.579025 1.286308-1.286995 1.286308h-11.513298c-.70797 0-1.287422-.578911-1.287422-1.286308v-.000389c0-.707787.579452-1.287041 1.287422-1.287041zm16.371849 0h11.513252c.708008 0 1.287438.579254 1.287438 1.287041v.000389c0 .707397-.57943 1.286308-1.287438 1.286308h-11.513252c-.707977 0-1.287231-.578911-1.287231-1.286308v-.000389c0-.707787.579254-1.287041 1.287231-1.287041z" fill="#262657"/><path d="m157.91095 55.431999c0-1.696213-1.375412-3.071274-3.072083-3.071274-1.69667 0-3.072082 1.375061-3.072082 3.071274 0 1.696221 1.375412 3.071274 3.072082 3.071274 1.696671 0 3.072083-1.375053 3.072083-3.071274z" fill="#bbbbfc"/><path d="m159.521561 56.71418h19.208007v-2.564362h-19.208007z" fill="#bbbbfc"/><path d="m141.268005 71.861504c0 1.317619 1.068146 2.385772 2.385773 2.385772h43.546707c1.317627 0 2.385773-1.068153 2.385773-2.385772v-6.857552c0-1.317627-1.068146-2.385773-2.385773-2.385773h-43.546707c-1.317627 0-2.385773 1.068146-2.385773 2.385773z" fill="#45b38d" stroke="#45b38d" stroke-width=".487012"/><path d="m164.651657 71.146179c0 .988091.800995 1.789093 1.789093 1.789093h6.383728c.988083 0 1.789093-.801002 1.789093-1.789093 0-.988083-.80101-1.789085-1.789093-1.789085h-6.383728c-.988098 0-1.789093.801002-1.789093 1.789085z" fill="#bbbbfc"/><path d="m177.775131 71.146179c0 .988091.800995 1.789093 1.789093 1.789093h6.383728c.988083 0 1.789093-.801002 1.789093-1.789093 0-.988083-.80101-1.789085-1.789093-1.789085h-6.383728c-.988098 0-1.789093.801002-1.789093 1.789085z" fill="#bbbbfc"/><path d="m144.011993 67.269821h29.647141v-3.458916h-29.647141z" fill="#bbbbfc"/><path d="m141.268005 87.30732c0 1.317627 1.068146 2.385772 2.385773 2.385772h43.546707c1.317627 0 2.385773-1.068145 2.385773-2.385772v-6.857552c0-1.317619-1.068146-2.385765-2.385773-2.385765h-43.546707c-1.317627 0-2.385773 1.068146-2.385773 2.385765z" fill="#45b38d" stroke="#45b38d" stroke-width=".487012"/><path d="m164.651657 86.592003c0 .988083.800995 1.789085 1.789093 1.789085h6.383728c.988083 0 1.789093-.801002 1.789093-1.789085 0-.988091-.80101-1.789093-1.789093-1.789093h-6.383728c-.988098 0-1.789093.801002-1.789093 1.789093z" fill="#bbbbfc"/><path d="m177.775131 86.592003c0 .988083.800995 1.789085 1.789093 1.789085h6.383728c.988083 0 1.789093-.801002 1.789093-1.789085 0-.988091-.80101-1.789093-1.789093-1.789093h-6.383728c-.988098 0-1.789093.801002-1.789093 1.789093z" fill="#bbbbfc"/><path d="m144.011993 82.715637h29.647141v-3.458908h-29.647141z" fill="#bbbbfc"/><path d="m141.268005 104.005501c0 1.317627 1.068146 2.385772 2.385773 2.385772h43.546707c1.317627 0 2.385773-1.068145 2.385773-2.385772v-6.857552c0-1.317619-1.068146-2.385765-2.385773-2.385765h-43.546707c-1.317627 0-2.385773 1.068146-2.385773 2.385765z" fill="#45b38d" stroke="#45b38d" stroke-width=".487012"/><path d="m164.651657 103.290176c0 .988099.800995 1.789093 1.789093 1.789093h6.383728c.988083 0 1.789093-.800994 1.789093-1.789093 0-.988082-.80101-1.789085-1.789093-1.789085h-6.383728c-.988098 0-1.789093.801003-1.789093 1.789085z" fill="#bbbbfc"/><path d="m177.775131 103.290176c0 .988099.800995 1.789093 1.789093 1.789093h6.383728c.988083 0 1.789093-.800994 1.789093-1.789093 0-.988082-.80101-1.789085-1.789093-1.789085h-6.383728c-.988098 0-1.789093.801003-1.789093 1.789085z" fill="#bbbbfc"/><path d="m144.011993 99.413818h29.647141v-3.458908h-29.647141z" fill="#bbbbfc"/><path d="m93.010757 46.3582 15.291962 16.073738c2.998016 3.151093 3.540627 8.002014 1.317742 11.776222-2.222863 3.774109-6.64386 5.507447-10.732567 4.208115z" fill="#66c"/><path d="m98.887894 81.698387-6.126038 53.63073 1.15902 3.476135-12.914574 2.316452 3.228599-43.36692-9.354873 38.733055-1.655625 4.633865-9.106323-3.309662.49675-3.47612 6.788292-52.803398z" fill="#262657"/><path d="m85.932655 43.213333 7.078102 3.144867 5.877137 21.353195c1.612892 5.859673 2.179413 11.950341-.396019 17.45559-7.194748-1.767289-17.646729-2.146828-27.557343.011032-2.124809-2.330887-3.330055-5.971878-1.68341-10.514382l2.109649-29.129265 6.500176-2.321037 9.272957 9.517632z" fill="#343494"/><path d="m85.0541 69.703781 6.852516-1.867523c.779389-.040894 1.453179.537132 1.531601 1.313148l1.933899 3.910729h-9.07682l-1.933556-1.747772z" fill="#f63"/><path d="m105.306763 73.742752-.288872 2.396011c-.05217.432915-.305336.815598-.683136 1.032784-.377922.217293-.836075.243759-1.236443.071457l-3.980217-.162331c-.533859-.021721-1.029396-.283554-1.347839-.712585-.318718-.428787-.426239-.978653-.292747-1.49588z" fill="#f63"/><path d="m98.040779 59.42466h17.757782c.523666 0 .803894.428161.622566.951713l-4.296592 12.414658c-.181199.523529-.757782.951721-1.281456.951721h-17.757782c-.523697 0-.803666-.428192-.622597-.951721l4.296852-12.414658c.18119-.523552.757774-.951713 1.281227-.951713z" fill="#fff"/><path d="m85.337128 73.060135h22.102691c.540924 0 .982926.442131.982926.98291v.000122c0 .540627-.442002.98288-.982926.98288h-22.102691c-.540924 0-.98317-.442253-.98317-.98288v-.000122c0-.540779.442246-.98291.98317-.98291z" fill="#fff"/><path d="m105.872292 68.533287c1.615951 0 2.933837-.875885 2.933837-1.949532 0-1.073776-1.317886-1.949668-2.933837-1.949668-1.615807 0-2.933823.875892-2.933823 1.949668 0 1.073647 1.318016 1.949532 2.933823 1.949532z" fill="#66c"/><path d="m71.360771 45.53437-2.605903 4.067124c-5.455613 8.515091-7.764775 18.6679-6.528458 28.704254l4.022667-.10424c6.984299-.181023 13.837166-1.938729 20.046219-5.141373l-1.241196-3.356232-10.870064-4.811615.313225-3.235649c.538857-5.564445-.550865-11.165558-3.13649-16.122269z" fill="#66c"/><path d="m93.920876 138.805252 1.000862.924042c.776848.717331 1.741073 1.199966 2.780914 1.39241.467598.086624.832298.454254.914841.922821.082641.468353-.134247.938385-.544075 1.179825-.561432.330261-1.109261.683563-1.642029 1.058731h-15.996704l.571617-3.161377 7.309799-3.030121z" fill="#262657"/><path d="m64.11808 137.812042-1.030121 1.307938c-.358982.455719-.864109.773605-1.430259.900513-.502919.112365-.907307.484848-1.060341.976974-.15316.491623-.031567 1.028122.318817 1.405975.859737.927185 1.973244 1.580674 3.201904 1.879639h9.51059l-.211907-1.456207-.053016-.264755-.139344-1.440415-6.375671-4.490448z" fill="#262657"/><path d="m77.860947 43.213333.852951-2.959633 6.99205.52974.226707 2.429893 1.201249 9.517632z" fill="#66c"/><path d="m88.128357 27.962448.435806 2.106522c.791283 3.823364 1.231842 7.711044 1.315926 11.614486.020752.957428-.58725 1.815728-1.497498 2.114067-2.355758.772385-4.871116.922585-7.302139.435929-1.23838-.247864-2.159409-1.290947-2.252251-2.549996-.310806-4.212211-.849296-8.4048-1.61351-12.558792z" fill="#f63"/><path d="m88.99353 32.351212.887055-1.483628c.590309-.98703.623314-2.210052.087494-3.227646-.535805-1.017471-1.563012-1.682373-2.710991-1.754806l-.13472-1.166947c-.310562-2.690872-2.517426-4.765243-5.223068-4.909774-2.705552-.144242-5.120667 1.683715-5.715821 4.326309l-.869453.538589c-2.306137 1.428879-3.383949 4.214142-2.640106 6.822769.998672 3.502198 3.120697 6.579384 6.039978 8.757622l.466377-4.015785 1.571411-.522568-1.010101-3.590896 1.378181.134796c2.813446.274673 5.562424-.959015 7.226441-3.243546z" fill="#262657"/><path d="m87.156837 25.016907-.034469-.298722c-.310562-2.690872-2.517426-4.765243-5.223068-4.909774-2.705552-.144242-5.120667 1.683715-5.715821 4.326309l-.869453.538589c-1.87664 1.162705-2.939636 3.22374-2.869743 5.356736.672477.92575 1.827613 1.42575 3.005668 1.227142 1.483307-.249954 2.569245-1.534012 2.569245-3.037872v-.628495c1.422508 1.695206 3.761642 2.305985 5.831596 1.52269 1.78318-.674713 3.030929-2.256988 3.306045-4.096603z" fill="#393973"/><path d="m76.908623 34.963928c.654388-.452789 1.68219-.10144 2.295562.784546.613129.886078.579995 1.971382-.074508 2.424042-.654389.452568-1.681969.101303-2.295342-.784523-.61335-.88607-.579994-1.971382.074288-2.424065z" fill="#f63"/><g fill="#262657"><path d="m85.200722 32.084885-.182038 1.528396-.867393.111161c-.647942.083084-1.301735.32698-1.898232.708419l-.534233-.499984c.654137-.868103 1.618485-1.48642 2.622284-1.681275z"/><path d="m84.982269 34.875748c.012253.098617.018814.200424.018814.304504 0 .878449-.455711 1.590782-1.01799 1.590782-.562172 0-1.017982-.712333-1.017982-1.590782 0-.10408.006538-.205887.018692-.304504z"/><path d="m86.710472 32.084885.140656 1.49588.670158-.043183c.500763-.032043 1.006119.09549 1.467049.370789l.412994-.595245c-.505608-.75177-1.250778-1.198395-2.026756-1.21428z"/><path d="m86.879288 34.875748c-.009476.098617-.014687.200424-.014687.304504 0 .878449.352318 1.590782.786781 1.590782.434494 0 .786812-.712333.786812-1.590782 0-.10408-.005218-.205887-.014564-.304504z"/></g><path d="m85.569176 41.022583c-.180229.633095-.763001 1.096825-1.4543 1.096825-.691017 0-1.273819-.46373-1.454041-1.096825z" fill="#fff"/><path d="m86.359741 36.237915-.040542.533119c-.049759.652397.085929 1.305634.391273 1.884377.096237.182243.108139.397232.033127.588943-.075234.191834-.230232.341423-.4244.409722-.311531.109809-.626122.210769-.9431.302986.576217.219955 1.227317.09378 1.679535-.325424.251709-.233422.276588-.623154.056068-.886567-.464218-.55471-.725639-1.250892-.740799-1.974037z" fill="#e04410"/></g></svg>